<svg width="120" height="120" viewBox="0 0 120 120" fill="none" xmlns="http://www.w3.org/2000/svg">
<path d="M1 60C1 27.4152 27.4152 1 60 1C92.5848 1 119 27.4152 119 60C119 92.5848 92.5848 119 60 119C27.4152 119 1 92.5848 1 60Z" fill="white" fill-opacity="0.5"/>
<path d="M50.4853 0.361636C28.0996 4.68374 9.47628 20.9386 2.32792 42.5491C-0.775973 51.945 -0.775973 67.918 2.32792 77.3139C12.2039 107.005 42.4904 125.045 71.7422 118.75C104.568 111.609 125.825 79.287 118.583 47.435C117.736 43.7706 116.231 38.8847 115.291 36.7237C108.707 21.3144 94.0338 7.9723 77.7619 2.61665C71.7422 0.643512 55.9406 -0.67191 50.4853 0.361636ZM72.0244 8.72397C91.4002 13.3279 106.543 28.4553 111.152 47.8108C117.83 76.0924 100.336 104.468 72.0244 111.139C43.7131 117.81 15.3078 100.334 8.62976 72.0522C2.04575 44.0525 19.4464 15.583 47.2873 8.81793C54.6238 7.03271 64.5939 7.03271 72.0244 8.72397Z" fill="#333399"/>
<path d="M54.4357 45.1797C47.0993 52.5085 41.0796 59.1796 41.0796 59.9313C41.0796 60.7769 47.1933 67.448 54.7179 74.9647L68.3562 88.5887L70.8958 85.9578L73.5294 83.421L50.015 59.9313L61.6781 48.2804C71.9304 38.0389 73.1531 36.4416 72.2126 34.7503C71.4601 33.3409 69.2968 31.7436 68.074 31.7436C67.98 31.7436 61.8663 37.757 54.4357 45.1797Z" fill="#333399"/>
</svg>
