<svg width="76" height="76" viewBox="0 0 76 76" fill="none" xmlns="http://www.w3.org/2000/svg">
<path d="M1.67172 73.6884C-0.316975 71.6997 -0.316975 68.4754 1.67172 66.4867L66.487 1.67147C68.4756 -0.317219 71.7 -0.31722 73.6887 1.67147C75.6773 3.66017 75.6773 6.88447 73.6887 8.87317L8.87341 73.6884C6.88472 75.6771 3.66041 75.6771 1.67172 73.6884Z" fill="white"/>
<path d="M1.67169 1.67121C3.66039 -0.317486 6.8847 -0.317486 8.87339 1.67121L73.6886 66.4865C75.6773 68.4751 75.6773 71.6995 73.6886 73.6881C71.6999 75.6768 68.4756 75.6768 66.4869 73.6881L1.6717 8.8729C-0.316997 6.88421 -0.316998 3.6599 1.67169 1.67121Z" fill="white"/>
</svg>
