<svg width="400" height="300" viewBox="0 0 400 300" fill="none" xmlns="http://www.w3.org/2000/svg">
<path d="M400 263.831H0V264.032H400V263.831Z" fill="#E0E0E0"/>
<path d="M119.288 273.034H83.9121V273.234H119.288V273.034Z" fill="#E0E0E0"/>
<path d="M78.0481 273.13H64.2881V273.33H78.0481V273.13Z" fill="#E0E0E0"/>
<path d="M183.28 271.785H166.552V271.985H183.28V271.785Z" fill="#E0E0E0"/>
<path d="M224.152 269.622H179.928V269.822H224.152V269.622Z" fill="#E0E0E0"/>
<path d="M304.024 273.33H293.336V273.53H304.024V273.33Z" fill="#E0E0E0"/>
<path d="M288.896 273.33H285.408V273.53H288.896V273.33Z" fill="#E0E0E0"/>
<path d="M358.84 271.12H313.44V271.32H358.84V271.12Z" fill="#E0E0E0"/>
<path d="M189.6 228.112H35.1279C33.9177 228.11 32.7579 227.627 31.903 226.77C31.048 225.912 30.5679 224.75 30.5679 223.539V6.15316C30.5784 4.94864 31.0632 3.79692 31.917 2.94817C32.7708 2.09942 33.9246 1.62218 35.1279 1.62012H189.6C190.811 1.62012 191.973 2.10192 192.83 2.95954C193.687 3.81716 194.168 4.98034 194.168 6.1932V223.539C194.168 224.752 193.687 225.915 192.83 226.773C191.973 227.63 190.811 228.112 189.6 228.112ZM35.1279 1.7803C33.9708 1.78242 32.8618 2.24406 32.0444 3.0639C31.227 3.88375 30.7679 4.99479 30.7679 6.15316V223.539C30.7679 224.697 31.227 225.808 32.0444 226.628C32.8618 227.448 33.9708 227.91 35.1279 227.912H189.6C190.757 227.908 191.866 227.446 192.684 226.626C193.502 225.807 193.964 224.697 193.968 223.539V6.15316C193.964 4.9947 193.502 3.8849 192.684 3.06574C191.866 2.24658 190.757 1.78452 189.6 1.7803H35.1279Z" fill="#E0E0E0"/>
<path d="M362.648 228.112H208.168C206.958 228.108 205.798 227.625 204.943 226.768C204.087 225.911 203.604 224.75 203.6 223.539V6.15316C203.613 4.94791 204.099 3.7962 204.954 2.94767C205.809 2.09914 206.964 1.62216 208.168 1.62012H362.648C363.85 1.62429 365.002 2.10245 365.854 2.95098C366.706 3.79951 367.19 4.95002 367.2 6.15316V223.539C367.201 224.138 367.084 224.732 366.856 225.287C366.628 225.841 366.293 226.345 365.87 226.769C365.447 227.194 364.945 227.531 364.393 227.761C363.84 227.992 363.247 228.111 362.648 228.112ZM208.168 1.7803C207.011 1.78452 205.902 2.24658 205.084 3.06574C204.266 3.8849 203.804 4.9947 203.8 6.15316V223.539C203.804 224.697 204.266 225.807 205.084 226.626C205.902 227.446 207.011 227.908 208.168 227.912H362.648C363.805 227.908 364.914 227.446 365.732 226.626C366.55 225.807 367.012 224.697 367.016 223.539V6.15316C367.012 4.9947 366.55 3.8849 365.732 3.06574C364.914 2.24658 363.805 1.78452 362.648 1.7803H208.168Z" fill="#E0E0E0"/>
<path d="M333.328 19.8483H234.192V175.189H333.328V19.8483Z" fill="#E0E0E0"/>
<path d="M337.688 19.8483H236.232V175.189H337.688V19.8483Z" fill="#EBEBEB"/>
<path d="M333.328 175.197H234.192V183.294H333.328V175.197Z" fill="#E6E6E6"/>
<path d="M344.936 175.197H243.48V183.294H344.936V175.197Z" fill="#F0F0F0"/>
<path d="M331.592 25.9512H242.328V169.094H331.592V25.9512Z" fill="#FAFAFA"/>
<path d="M274.368 169.094L294.32 25.9512H311.208L291.256 169.094H274.368Z" fill="white"/>
<path d="M246.4 157.794C246.285 157.792 246.175 157.744 246.094 157.662C246.013 157.58 245.968 157.469 245.968 157.353V29.9235C245.96 29.8662 245.964 29.8079 245.978 29.7519C245.993 29.6959 246.018 29.6434 246.053 29.5973C246.088 29.5512 246.132 29.5124 246.182 29.4832C246.232 29.454 246.287 29.4349 246.344 29.427C246.401 29.4191 246.459 29.4226 246.515 29.4372C246.571 29.4519 246.624 29.4774 246.67 29.5123C246.716 29.5473 246.755 29.591 246.784 29.6409C246.813 29.6909 246.832 29.7461 246.84 29.8034C246.848 29.843 246.848 29.8839 246.84 29.9235V157.353C246.84 157.47 246.794 157.582 246.711 157.665C246.629 157.747 246.517 157.794 246.4 157.794Z" fill="#E6E6E6"/>
<path d="M294.88 169.094L314.832 25.9512H321.416L301.464 169.094H294.88Z" fill="white"/>
<path d="M331.592 25.9512H330.816V169.094H331.592V25.9512Z" fill="#E6E6E6"/>
<path d="M339.12 30.6362H239.992L239.432 28.3216H338.56L339.12 30.6362Z" fill="#E0E0E0"/>
<path d="M339.12 32.3261H239.992L239.432 30.0195H338.56L339.12 32.3261Z" fill="#E0E0E0"/>
<path d="M339.12 34.3601H239.992L239.432 32.0456H338.56L339.12 34.3601Z" fill="#E0E0E0"/>
<path d="M339.12 36.6271H239.992L239.432 34.3125H338.56L339.12 36.6271Z" fill="#E0E0E0"/>
<path d="M339.12 39.3338H239.992L239.432 37.0192H338.56L339.12 39.3338Z" fill="#E0E0E0"/>
<path d="M339.12 42.3852H239.992L239.432 40.0706H338.56L339.12 42.3852Z" fill="#E0E0E0"/>
<path d="M73.8403 155.391C73.8403 157.794 75.5282 159.508 73.1042 159.508C70.6802 159.508 65.1042 157.818 65.1042 155.391C65.1042 154.223 65.5678 153.102 66.393 152.276C67.2181 151.45 68.3373 150.986 69.5042 150.986C70.6712 150.986 71.7904 151.45 72.6155 152.276C73.4407 153.102 73.9042 154.223 73.9042 155.391H73.8403Z" fill="#E0E0E0"/>
<path d="M81.3442 157.497C81.3442 159.9 83.0322 161.606 80.6082 161.606C78.1842 161.606 72.6082 159.916 72.6082 157.497C72.6082 156.329 73.0717 155.208 73.8969 154.382C74.722 153.556 75.8412 153.092 77.0082 153.092C78.1751 153.092 79.2943 153.556 80.1194 154.382C80.9446 155.208 81.4082 156.329 81.4082 157.497H81.3442Z" fill="#E0E0E0"/>
<path d="M88.5358 156.192C88.5358 158.595 90.2238 160.301 87.7998 160.301C85.3758 160.301 79.7998 158.611 79.7998 156.192C79.7998 155.024 80.2634 153.903 81.0885 153.077C81.9137 152.251 83.0329 151.787 84.1998 151.787C85.3668 151.787 86.4859 152.251 87.3111 153.077C88.1362 153.903 88.5998 155.024 88.5998 156.192H88.5358Z" fill="#E0E0E0"/>
<path d="M62.4001 156.776C62.4001 156.776 62.7601 165.338 76.5041 165.338C90.2481 165.338 90.6081 156.776 90.6081 156.776H62.4001Z" fill="#F0F0F0"/>
<path d="M224.232 165.346H218V263.832H224.232V165.346Z" fill="#E0E0E0"/>
<path d="M226.2 165.346H221.872V263.832H226.2V165.346Z" fill="#F0F0F0"/>
<path d="M227.544 165.346H98.1443V173.011H227.544V165.346Z" fill="#F0F0F0"/>
<path d="M95.3521 173.01H89.1201V263.831H95.3521V173.01Z" fill="#E0E0E0"/>
<path d="M97.3199 173.01H92.9919V263.831H97.3199V173.01Z" fill="#F0F0F0"/>
<path d="M55.9119 173.01H49.6799V263.831H55.9119V173.01Z" fill="#E0E0E0"/>
<path d="M57.88 173.01H53.552V263.831H57.88V173.01Z" fill="#F0F0F0"/>
<path d="M184.792 173.01H178.56V263.831H184.792V173.01Z" fill="#E0E0E0"/>
<path d="M186.76 173.01H182.432V263.831H186.76V173.01Z" fill="#F0F0F0"/>
<path d="M98.1439 165.346H49.6799V173.011H98.1439V165.346Z" fill="#E0E0E0"/>
<path d="M97.3201 132.894H149.336L156.872 163.64H104.856L97.3201 132.894Z" fill="#E0E0E0"/>
<path d="M104.856 163.64L105.072 165.346H157.088L156.88 163.64H104.856Z" fill="#E0E0E0"/>
<path d="M98.9199 132.894H150.936L158.472 163.64H106.464L98.9199 132.894Z" fill="#F0F0F0"/>
<path d="M107.56 162.238L100.712 134.295H149.84L156.688 162.238H107.56Z" fill="white"/>
<path d="M120.016 163.64L120.224 165.346H177.504L177.296 163.64H120.016Z" fill="#EBEBEB"/>
<path d="M220.504 152.812C220.354 152.82 220.204 152.836 220.056 152.86V151.851C220.056 151.515 219.923 151.194 219.686 150.956C219.449 150.719 219.127 150.586 218.792 150.586H208.92C208.585 150.586 208.263 150.719 208.026 150.956C207.789 151.194 207.656 151.515 207.656 151.851V165.338H220.056V163.072C220.205 163.093 220.354 163.106 220.504 163.112C220.994 163.112 221.478 163.015 221.931 162.827C222.383 162.64 222.794 162.365 223.14 162.018C223.486 161.672 223.761 161.26 223.948 160.808C224.136 160.355 224.232 159.87 224.232 159.379V156.552C224.232 155.562 223.839 154.612 223.141 153.91C222.442 153.209 221.493 152.814 220.504 152.812ZM222.632 159.379C222.632 159.944 222.408 160.486 222.009 160.886C221.61 161.285 221.068 161.51 220.504 161.51C220.353 161.51 220.203 161.494 220.056 161.462V154.462C220.203 154.43 220.353 154.414 220.504 154.414C221.069 154.416 221.61 154.642 222.009 155.043C222.408 155.444 222.632 155.987 222.632 156.552V159.379Z" fill="#E6E6E6"/>
<path d="M166.872 263.832H165.144L160.192 239.421L159.328 235.144L153.928 208.546H133.24L122.04 263.808H120.312L131.736 207.505C131.765 207.314 131.862 207.14 132.009 207.015C132.156 206.89 132.343 206.822 132.536 206.824H154.608C154.801 206.822 154.988 206.89 155.135 207.015C155.282 207.14 155.379 207.314 155.408 207.505L160.152 230.867L161.016 235.136L166.872 263.832Z" fill="#E0E0E0"/>
<path d="M200.096 263.831H198.4L187.2 208.57H166.456L161.056 235.184L160.192 239.484L155.24 263.896H153.512L159.328 235.208L160.192 230.955L164.928 207.593C164.967 207.407 165.067 207.239 165.211 207.115C165.356 206.992 165.538 206.921 165.728 206.912H187.8C187.993 206.91 188.18 206.978 188.327 207.103C188.474 207.228 188.571 207.402 188.6 207.593L200.096 263.831Z" fill="#E0E0E0"/>
<path d="M149.088 207.697H187.112C190.598 207.696 193.945 206.328 196.436 203.887C198.927 201.445 200.365 198.124 200.44 194.635L201.856 136.786C201.882 135.511 201.658 134.242 201.194 133.053C200.731 131.864 200.038 130.779 199.156 129.858C198.273 128.937 197.218 128.199 196.051 127.687C194.883 127.175 193.626 126.897 192.352 126.871H168.312C165.927 126.872 163.626 127.75 161.847 129.339C160.068 130.928 158.935 133.117 158.664 135.489L149.088 207.697Z" fill="#F0F0F0"/>
<path d="M169.824 207.697H129.312C128.809 207.697 128.327 207.497 127.971 207.141C127.616 206.785 127.416 206.302 127.416 205.799V205.623C127.415 204.938 127.549 204.259 127.81 203.626C128.072 202.993 128.455 202.418 128.939 201.934C129.423 201.449 129.997 201.065 130.63 200.804C131.262 200.542 131.94 200.408 132.624 200.409H169.824V207.697Z" fill="#F0F0F0"/>
<path d="M162.496 24.5094H53.3601V110.365H162.496V24.5094Z" fill="#E0E0E0"/>
<path d="M163.776 24.5094H54.6399V110.365H163.776V24.5094Z" fill="#EBEBEB"/>
<path d="M156.592 31.7012H61.824V103.173H156.592V31.7012Z" fill="white"/>
<path opacity="0.5" d="M61.824 53.8861V103.173H144.096C146.608 92.9776 143.368 82.7181 130.496 77.1279C119.384 72.3226 106.144 77.5043 94.592 75.0376C81.256 72.1864 76.84 61.2463 65.88 55.616C64.5704 54.9443 63.215 54.3662 61.824 53.8861Z" fill="#E6E6E6"/>
<path opacity="0.7" d="M61.824 31.7012V34.5043C71.056 42.0166 82.408 56.2164 94.544 60.0527C113.744 66.1315 139.552 49.7052 140.72 31.7012H61.824Z" fill="#E6E6E6"/>
<path d="M140.224 71.3852C143.92 80.8998 149.752 88.1238 156.592 94.571V35.4492C143.44 39.3976 133.984 55.3273 140.224 71.3852Z" fill="#E6E6E6"/>
<path d="M200 300C285.666 300 355.112 295.941 355.112 290.934C355.112 285.927 285.666 281.868 200 281.868C114.334 281.868 44.8879 285.927 44.8879 290.934C44.8879 295.941 114.334 300 200 300Z" fill="#F5F5F5"/>
<path d="M59.248 289.124V290.934H340.752V174.06H321.832L289.328 195.332H258.328L223.568 218.077V227.231H209.272L169.712 253.116H143.432L110.696 274.54H87.312L59.248 289.124Z" fill="#333399"/>
<path opacity="0.2" d="M59.248 289.124V290.934H340.752V174.06H321.832L289.328 195.332H258.328L223.568 218.077V227.231H209.272L169.712 253.116H143.432L110.696 274.54H87.312L59.248 289.124Z" fill="black"/>
<path d="M78.168 290.934H340.752V175.87L308.248 197.134H277.248L242.488 219.879V229.041H228.192L188.632 254.926H162.352L129.624 276.35H106.232L78.168 290.934Z" fill="#333399"/>
<path opacity="0.1" d="M78.168 290.934H340.752V175.87L308.248 197.134H277.248L242.488 219.879V229.041H228.192L188.632 254.926H162.352L129.624 276.35H106.232L78.168 290.934Z" fill="white"/>
<path d="M133.6 75.0539C132.48 76.3594 131.2 77.817 130.104 79.2506C129.008 80.6842 127.808 82.1418 126.72 83.6234C124.55 86.4966 122.595 89.527 120.872 92.6895L120.288 93.8508L120.072 94.2913C120.008 94.4114 119.96 94.5796 119.896 94.7238C119.639 95.4614 119.433 96.216 119.28 96.9823C118.944 98.6481 118.688 100.458 118.48 102.292C118.104 105.96 117.856 109.797 117.624 113.561L113.232 113.953C112.383 110.059 111.848 106.104 111.632 102.124C111.519 100.053 111.545 97.9766 111.712 95.9091C111.794 94.764 111.974 93.628 112.248 92.5133C112.336 92.201 112.4 91.9046 112.52 91.5763C112.64 91.2479 112.752 90.8875 112.84 90.6793L113.44 89.2056C114.258 87.2826 115.19 85.4105 116.232 83.5994C117.232 81.8054 118.344 80.1075 119.432 78.4417C120.52 76.7758 121.76 75.158 123.016 73.6363C123.64 72.8354 124.28 72.0345 124.928 71.3057C125.576 70.5769 126.224 69.8161 126.976 69.0072L133.6 75.0539Z" fill="#E4897B"/>
<path d="M135.048 77.0721C134.248 78.5537 133.344 79.9873 132.472 81.3248C130.968 83.6394 129.512 85.6416 128.472 87.0191C127.536 88.2605 126.936 88.9893 126.936 88.9893L115.088 80.9083C115.088 80.9083 122.288 66.8767 127.832 65.9797C133.544 65.0747 138.768 70.4247 135.048 77.0721Z" fill="#333399"/>
<path opacity="0.3" d="M135.048 77.0721C134.248 78.5537 133.344 79.9873 132.472 81.3248C130.968 83.6394 129.512 85.6416 128.472 87.0191C127.536 88.2605 126.936 88.9893 126.936 88.9893L115.088 80.9083C115.088 80.9083 122.288 66.8767 127.832 65.9797C133.544 65.0747 138.768 70.4247 135.048 77.0721Z" fill="black"/>
<path d="M155.92 248.19H161.792L162.376 234.567H156.504L155.92 248.19Z" fill="#E4897B"/>
<path d="M98.7681 222.81L103.536 226.254L114.784 217.581L110.016 214.137L98.7681 222.81Z" fill="#E4897B"/>
<path d="M162.376 234.567L162.08 241.591H156.2L156.496 234.567H162.376Z" fill="#CE6F64"/>
<path d="M110.016 214.137L114.784 217.581L108.976 222.05L104.216 218.606L110.016 214.137Z" fill="#CE6F64"/>
<path d="M149.96 117.141C149.96 117.141 150.632 159.011 145.376 175.429C137.056 201.434 111.92 222.498 111.92 222.498L102.928 216.003C102.928 216.003 123.848 198.207 127.728 176.31C131.176 156.633 129.712 133.215 129.712 117.141H149.96Z" fill="#333399"/>
<path opacity="0.7" d="M149.96 117.141C149.96 117.141 150.632 159.011 145.376 175.429C137.056 201.434 111.92 222.498 111.92 222.498L102.928 216.003C102.928 216.003 123.848 198.207 127.728 176.31C131.176 156.633 129.712 133.215 129.712 117.141H149.96Z" fill="white"/>
<path d="M117.832 112.479L119.952 116.292L112.528 117.397C112.528 117.397 111.768 114.193 113.6 111.983L117.832 112.479Z" fill="#E4897B"/>
<path d="M121.072 121.361L114.896 121.986L112.528 117.397L119.952 116.292L121.072 121.361Z" fill="#E4897B"/>
<path d="M155.312 44.4276C155.384 44.8921 155.688 45.2285 156 45.2285C156.312 45.2285 156.488 44.756 156.416 44.2915C156.344 43.8269 156.04 43.4906 155.728 43.4906C155.416 43.4906 155.24 43.9551 155.312 44.4276Z" fill="#263238"/>
<path d="M155.648 45.2445C156.43 46.5881 157.394 47.8171 158.512 48.8965C158.231 49.1803 157.891 49.399 157.517 49.5374C157.142 49.6757 156.742 49.7304 156.344 49.6974L155.648 45.2445Z" fill="#DE5753"/>
<path d="M153.2 42.0891C153.164 42.0902 153.129 42.0842 153.095 42.0715C153.062 42.0588 153.031 42.0396 153.005 42.0151C152.979 41.9905 152.959 41.9611 152.944 41.9284C152.929 41.8958 152.921 41.8606 152.92 41.8248C152.92 41.786 152.928 41.7475 152.943 41.7117C152.958 41.6759 152.98 41.6436 153.008 41.6166C153.315 41.3012 153.694 41.064 154.111 40.9247C154.529 40.7853 154.973 40.748 155.408 40.8157C155.444 40.8224 155.479 40.8362 155.509 40.8565C155.54 40.8768 155.566 40.9031 155.586 40.9338C155.606 40.9644 155.62 40.9989 155.627 41.035C155.633 41.0712 155.632 41.1083 155.624 41.1441C155.617 41.1794 155.604 41.213 155.584 41.243C155.564 41.273 155.539 41.2988 155.509 41.3189C155.479 41.339 155.446 41.353 155.411 41.3601C155.376 41.3672 155.339 41.3673 155.304 41.3603C154.958 41.3131 154.606 41.3488 154.276 41.4643C153.947 41.5799 153.649 41.772 153.408 42.0251C153.38 42.0499 153.347 42.0685 153.311 42.0795C153.275 42.0906 153.237 42.0939 153.2 42.0891Z" fill="#263238"/>
<path d="M139.68 49.5934C140.528 53.8942 141.368 61.783 138.36 64.6502C138.36 64.6502 139.536 69.023 147.52 69.023C156.32 69.023 151.72 64.6502 151.72 64.6502C146.92 63.5049 147.048 59.9489 147.888 56.6412L139.68 49.5934Z" fill="#E4897B"/>
<path d="M135.096 67.5656C136.048 66.0759 134.448 62.4879 134.448 62.4879C134.448 62.4879 148.6 58.924 154.376 64.3941C155.576 65.5233 154.248 67.1892 154.248 67.1892L135.096 67.5656Z" fill="#333399"/>
<path d="M106.048 229.073C105.304 229.073 104.216 227.615 103.912 227.095C103.897 227.072 103.889 227.046 103.889 227.019C103.889 226.991 103.897 226.965 103.912 226.942C103.928 226.922 103.949 226.907 103.973 226.897C103.997 226.887 104.023 226.883 104.048 226.886C104.128 226.886 106.056 227.303 106.504 228.064C106.555 228.144 106.588 228.234 106.601 228.328C106.613 228.422 106.605 228.518 106.576 228.608C106.464 228.953 106.256 229.049 106.104 229.065L106.048 229.073ZM104.328 227.239C104.832 227.976 105.664 228.841 106.08 228.793C106.12 228.793 106.24 228.793 106.32 228.52C106.336 228.468 106.34 228.413 106.332 228.359C106.324 228.304 106.303 228.253 106.272 228.208C105.734 227.693 105.059 227.346 104.328 227.207V227.239Z" fill="#333399"/>
<path d="M104.984 227.247C104.647 227.255 104.31 227.215 103.984 227.127C103.964 227.114 103.948 227.096 103.937 227.075C103.926 227.054 103.92 227.031 103.92 227.007C103.92 226.983 103.926 226.96 103.937 226.939C103.948 226.918 103.964 226.9 103.984 226.887C104.04 226.839 105.36 225.781 106.232 225.869C106.338 225.881 106.441 225.914 106.535 225.966C106.628 226.019 106.71 226.089 106.776 226.174C106.85 226.25 106.894 226.349 106.901 226.455C106.909 226.56 106.878 226.665 106.816 226.75C106.528 227.103 105.712 227.247 104.984 227.247ZM104.352 226.927C105.096 227.039 106.32 226.927 106.552 226.59C106.571 226.55 106.577 226.504 106.57 226.46C106.563 226.416 106.543 226.375 106.512 226.342C106.47 226.287 106.417 226.241 106.357 226.208C106.296 226.175 106.229 226.155 106.16 226.15C105.493 226.219 104.862 226.49 104.352 226.927Z" fill="#333399"/>
<path d="M164.152 248.495C163.548 248.487 162.947 248.43 162.352 248.326C162.324 248.322 162.298 248.308 162.278 248.288C162.258 248.268 162.245 248.242 162.24 248.214C162.235 248.186 162.239 248.156 162.252 248.13C162.265 248.104 162.286 248.083 162.312 248.07C162.4 248.022 164.448 246.845 165.432 247.117C165.523 247.138 165.609 247.177 165.685 247.232C165.761 247.287 165.824 247.357 165.872 247.437C165.935 247.526 165.968 247.633 165.968 247.742C165.968 247.851 165.935 247.957 165.872 248.046C165.64 248.39 164.912 248.495 164.152 248.495ZM162.8 248.118C163.896 248.278 165.384 248.262 165.656 247.886C165.696 247.786 165.696 247.674 165.656 247.574C165.626 247.523 165.585 247.48 165.537 247.447C165.489 247.414 165.434 247.391 165.376 247.381C164.752 247.221 163.52 247.75 162.8 248.118Z" fill="#333399"/>
<path d="M162.4 248.294H162.32C162.3 248.28 162.284 248.261 162.274 248.238C162.264 248.216 162.261 248.191 162.264 248.166C162.33 247.329 162.657 246.533 163.2 245.892C163.311 245.8 163.438 245.732 163.576 245.69C163.713 245.649 163.857 245.636 164 245.652C164.12 245.638 164.24 245.671 164.335 245.744C164.431 245.817 164.494 245.925 164.512 246.044C164.624 246.709 163.216 247.982 162.512 248.302L162.4 248.294ZM163.84 245.892C163.662 245.895 163.491 245.957 163.352 246.068C162.908 246.579 162.629 247.213 162.552 247.886C163.28 247.446 164.232 246.444 164.152 246.052C164.152 246.052 164.152 245.916 163.88 245.892H163.84Z" fill="#333399"/>
<path d="M104.216 226.206L99.648 221.401C99.5659 221.317 99.4581 221.264 99.3419 221.249C99.2258 221.235 99.1081 221.26 99.008 221.32L94.44 224.108C94.3432 224.165 94.2587 224.242 94.1915 224.332C94.1242 224.422 94.0754 224.525 94.0479 224.635C94.0204 224.744 94.0147 224.858 94.0312 224.969C94.0477 225.081 94.086 225.188 94.144 225.285C94.1829 225.346 94.2285 225.402 94.28 225.453C95.88 227.055 96.776 227.8 98.784 229.898C100.024 231.187 103.392 235.72 105.096 237.506C106.8 239.292 108.792 237.827 108.248 236.946C105.848 232.989 104.68 229.065 104.616 227.111C104.6 226.77 104.457 226.447 104.216 226.206Z" fill="#263238"/>
<path d="M161.752 247.494H155.352C155.236 247.493 155.123 247.533 155.033 247.606C154.942 247.679 154.88 247.781 154.856 247.894L153.688 253.1C153.638 253.321 153.677 253.553 153.797 253.745C153.917 253.937 154.108 254.074 154.328 254.125C154.397 254.133 154.467 254.133 154.536 254.125C156.856 254.125 160.2 253.949 163.112 253.949C166.512 253.949 169.448 254.133 173.44 254.133C175.84 254.133 176.52 251.691 175.512 251.474C170.912 250.465 167.16 250.353 163.184 247.902C162.753 247.637 162.258 247.496 161.752 247.494Z" fill="#263238"/>
<path opacity="0.3" d="M132.472 81.3245C130.968 83.6391 129.512 85.6413 128.472 87.0188C128.592 84.2638 129.16 79.8108 131.296 76.415C132.072 77.1839 132.384 79.1701 132.472 81.3245Z" fill="black"/>
<path d="M164.8 71.7861C165.12 72.2907 165.704 73.0595 166.24 73.7723C166.776 74.4851 167.392 75.2139 168 75.9347C169.224 77.3683 170.472 78.7939 171.776 80.1635C174.287 82.8849 177.04 85.3726 180 87.5957C180.688 88.0988 181.401 88.5666 182.136 88.9973L182.624 89.2776C182.68 89.2776 182.704 89.3497 182.808 89.3817L182.936 89.4378L183.112 89.4938C183.243 89.5343 183.377 89.5664 183.512 89.5899C185.106 89.8129 186.725 89.7913 188.312 89.5259C192.061 88.9322 195.765 88.0867 199.4 86.9951L201.296 90.9995C197.732 93.3066 193.87 95.1147 189.816 96.3735C187.524 97.1166 185.12 97.4553 182.712 97.3746C182.35 97.357 181.99 97.3196 181.632 97.2625L181.08 97.1583L180.488 97.0142C180.073 96.9016 179.667 96.7598 179.272 96.5897L179.024 96.4856L178.824 96.3895L178.424 96.1973C177.392 95.6927 176.392 95.1401 175.416 94.5394C171.815 92.1916 168.478 89.4607 165.464 86.3944C163.984 84.8967 162.544 83.375 161.192 81.7572C160.504 80.9563 159.84 80.1554 159.176 79.2584C158.451 78.3303 157.785 77.3566 157.184 76.3432L164.8 71.7861Z" fill="#E4897B"/>
<path d="M198.456 88.0604L202.36 83.4072L205.016 90.1988C205.016 90.1988 201.648 91.8006 199.024 90.8795L198.456 88.0604Z" fill="#E4897B"/>
<path d="M208.088 82.3981L209.176 87.8281L205.016 90.1988L202.368 83.4072L208.088 82.3981Z" fill="#E4897B"/>
<path d="M139.536 45.8774C140.784 51.5797 141.232 54.9835 144.6 57.4823C149.664 61.2465 156.352 57.4823 156.824 51.5316C157.248 46.1657 155.128 37.7403 149.144 36.3147C147.824 35.9969 146.445 36.0228 145.137 36.3899C143.83 36.7569 142.638 37.453 141.676 38.4117C140.714 39.3704 140.012 40.5598 139.639 41.8666C139.266 43.1735 139.233 44.5542 139.544 45.8774H139.536Z" fill="#E4897B"/>
<path d="M137.128 34.737C132.128 34.8732 131.528 39.7987 134.008 41.2483C134.008 41.2483 131.128 42.6338 132.608 45.9415C134.864 50.9631 139.184 56.4812 143.6 56.1769C149.08 55.8005 150.64 49.8258 150.448 43.9313C153.336 41.2002 151.592 39.8707 154.448 38.2049C159.504 35.2576 162.064 26.8082 153.648 26.9363C145.024 27.0725 149.888 34.3926 137.128 34.737Z" fill="#263238"/>
<path d="M134.632 40.5273C134.632 40.5273 132.704 41.5284 129.736 39.7985C130.768 42.3293 133.936 43.3705 134.632 40.5273Z" fill="#263238"/>
<path d="M147.44 45.3488C147.595 46.7921 148.222 48.1436 149.224 49.1931C150.552 50.5626 151.856 49.6336 152.024 47.9036C152.176 46.3499 151.664 43.763 150.072 43.0422C148.48 42.3214 147.272 43.6028 147.44 45.3488Z" fill="#E4897B"/>
<path d="M115.744 220.6L112.056 222.802L102.232 215.706L105.504 213.2L115.744 220.6Z" fill="#333399"/>
<path d="M144.088 124.333C142.976 131.877 146.904 152.884 148.264 159.764C149.688 146.902 149.952 131.645 149.976 123.315C147.096 121.361 144.6 120.857 144.088 124.333Z" fill="#333399"/>
<path opacity="0.4" d="M144.088 124.333C142.976 131.877 146.904 152.884 148.264 159.764C149.688 146.902 149.952 131.645 149.976 123.315C147.096 121.361 144.6 120.857 144.088 124.333Z" fill="white"/>
<path d="M161.104 117.141C161.104 117.141 169.96 154.702 170.584 172.642C171.28 192.769 164.264 240.23 164.264 240.23H154.312C154.312 240.23 153.088 192.4 152.64 174.068C152.16 154.086 140.448 117.141 140.448 117.141H161.104Z" fill="#333399"/>
<path opacity="0.7" d="M161.104 117.141C161.104 117.141 169.96 154.702 170.584 172.642C171.28 192.769 164.264 240.23 164.264 240.23H154.312C154.312 240.23 153.088 192.4 152.64 174.068C152.16 154.086 140.448 117.141 140.448 117.141H161.104Z" fill="white"/>
<path d="M166.184 236.281C166.232 236.281 165.624 240.414 165.624 240.414H153.512L153.184 236.722L166.184 236.281Z" fill="#333399"/>
<path d="M163.648 85.4654C163.648 87.4676 163.6 89.67 163.488 92.0967C163.2 98.6961 162.48 106.921 161.088 117.141H129.672C129.456 112.335 132.488 88.741 127.832 65.9797C131.323 65.3088 134.853 64.8647 138.4 64.6502C142.85 64.3939 147.311 64.3939 151.76 64.6502C154.81 64.9553 157.832 65.4908 160.8 66.252C160.8 66.252 163.656 69.5597 163.648 85.4654Z" fill="#333399"/>
<path opacity="0.3" d="M163.648 85.4654C163.648 87.4676 163.6 89.67 163.488 92.0967C163.2 98.6961 162.48 106.921 161.088 117.141H129.672C129.456 112.335 132.488 88.741 127.832 65.9797C131.323 65.3088 134.853 64.8647 138.4 64.6502C142.85 64.3939 147.311 64.3939 151.76 64.6502C154.81 64.9553 157.832 65.4908 160.8 66.252C160.8 66.252 163.656 69.5597 163.648 85.4654Z" fill="black"/>
<path opacity="0.3" d="M163.648 85.4653C163.648 87.4675 163.6 89.67 163.488 92.0967C159.8 88.4927 159.552 81.1325 159.552 81.1325L163.648 85.4653Z" fill="black"/>
<path d="M152.384 73.1476C153.08 78.7538 165.784 90.5589 165.784 90.5589L177.224 81.4848C174.35 77.2237 170.985 73.3153 167.2 69.8399C158.928 62.6479 151.544 66.4441 152.384 73.1476Z" fill="#333399"/>
<path opacity="0.3" d="M152.384 73.1476C153.08 78.7538 165.784 90.5589 165.784 90.5589L177.224 81.4848C174.35 77.2237 170.985 73.3153 167.2 69.8399C158.928 62.6479 151.544 66.4441 152.384 73.1476Z" fill="black"/>
<path d="M286.424 190.222L280.544 190.799L274.424 176.783L280.304 176.206L286.424 190.222Z" fill="#E4897B"/>
<path d="M325.56 172.603L320.44 175.902L311.16 165.098L316.28 161.799L325.56 172.603Z" fill="#E4897B"/>
<path d="M274.432 176.791L277.584 184.015H283.72L280.312 176.214L274.432 176.791Z" fill="#CE6F64"/>
<path d="M316.288 161.799L311.16 165.098L315.952 170.664L321.072 167.365L316.288 161.799Z" fill="#CE6F64"/>
<path d="M236 40.5913C235.872 42.7697 235.6 44.7559 235.288 46.8222C234.976 48.8885 234.536 50.8908 234.04 52.917C233.073 57.0443 231.575 61.0286 229.584 64.7702C229.06 65.7408 228.475 66.677 227.832 67.5733C227.208 68.4623 226.544 69.2792 225.88 70.0721C224.552 71.6739 223.176 73.1555 221.776 74.6212C218.952 77.5284 216.072 80.3075 212.976 82.9584L210.752 80.812C213.208 77.6966 215.728 74.6132 218.12 71.4897C220.512 68.3662 222.992 65.2587 224.52 62.1353C226.081 58.7292 227.256 55.1591 228.024 51.4914C228.448 49.6334 228.768 47.7353 229.072 45.8852C229.376 44.0351 229.6 42.0329 229.768 40.279L236 40.5913Z" fill="#E4897B"/>
<path d="M233.552 0.883314C229.264 0.883314 224.4 5.48844 224.6 12.0958C224.8 18.7031 226.2 28.514 216 37.5961C219.664 45.6051 236.896 53.1094 248.4 47.4631C259.304 42.1132 254.8 12.4562 247.032 4.68755C242.68 0.338708 237.6 -1.11891 233.552 0.883314Z" fill="#263238"/>
<path d="M240.672 41.3441C240.352 43.2822 238.744 46.9503 237.472 49.6733C236.528 51.6435 235.76 53.1252 235.76 53.1252L234.64 52.6286L225.368 48.496C226.072 43.4905 227.216 38.0845 232.728 35.6257C236.168 34.104 241.24 37.8842 240.672 41.3441Z" fill="#333399"/>
<path opacity="0.6" d="M240.672 41.3441C240.352 43.2822 238.744 46.9503 237.472 49.6733C236.528 51.6435 235.76 53.1252 235.76 53.1252L234.64 52.6286L225.368 48.496C226.072 43.4905 227.216 38.0845 232.728 35.6257C236.168 34.104 241.24 37.8842 240.672 41.3441Z" fill="white"/>
<path d="M237.448 49.6737C236.504 51.6439 235.736 53.1256 235.736 53.1256L234.616 52.629C234.768 50.6508 235.16 47.5353 236.216 46.1338C236.874 47.2124 237.294 48.4193 237.448 49.6737Z" fill="#333399"/>
<path opacity="0.5" d="M237.448 49.7297C236.504 51.6999 235.736 53.1816 235.736 53.1816L234.616 52.685C234.768 50.7068 235.16 47.5913 236.216 46.1898C236.874 47.2684 237.294 48.4753 237.448 49.7297Z" fill="white"/>
<path d="M268.8 63.0486L245.2 70.4968C228.88 38.1729 231.2 36.459 231.2 36.459C231.2 36.459 234.968 34.3046 238.888 32.5106L240.672 31.7097C244.154 30.3221 247.731 29.1873 251.376 28.3139C251.912 28.1698 252.448 28.0416 252.976 27.9135C255.879 27.2586 258.817 26.7745 261.776 26.4639C262.128 30.9408 262.48 34.7291 262.864 38.0207C263.36 42.3135 263.896 45.7493 264.464 48.7206C265.527 53.6043 266.977 58.3955 268.8 63.0486Z" fill="#333399"/>
<path opacity="0.6" d="M268.8 63.0486L245.2 70.4968C228.88 38.1729 231.2 36.459 231.2 36.459C231.2 36.459 234.968 34.3046 238.888 32.5106L240.672 31.7097C244.154 30.3221 247.731 29.1873 251.376 28.3139C251.912 28.1698 252.448 28.0416 252.976 27.9135C255.879 27.2586 258.817 26.7745 261.776 26.4639C262.128 30.9408 262.48 34.7291 262.864 38.0207C263.36 42.3135 263.896 45.7493 264.464 48.7206C265.527 53.6043 266.977 58.3955 268.8 63.0486Z" fill="white"/>
<path d="M245.2 70.4968C245.2 70.4968 244.4 118.871 250.712 136.346C256.792 153.101 274.928 181.901 274.928 181.901L285.44 181.628C285.44 181.628 268.744 145.164 266 130.74C261.464 106.817 262.464 65.0667 262.464 65.0667L245.2 70.4968Z" fill="#333399"/>
<path opacity="0.4" d="M245.2 70.4968C245.2 70.4968 244.4 118.871 250.712 136.346C256.792 153.101 274.928 181.901 274.928 181.901L285.44 181.628C285.44 181.628 268.744 145.164 266 130.74C261.464 106.817 262.464 65.0667 262.464 65.0667L245.2 70.4968Z" fill="black"/>
<path opacity="0.3" d="M254.64 74.6533L257.464 66.6444L262.464 65.0426C262.464 65.0426 262.008 84.0478 263.104 103.758C258.568 95.052 254.64 79.0342 254.64 74.6533Z" fill="black"/>
<path d="M250.4 68.9591C250.4 68.9591 266.8 106.513 277.4 127.889C285.96 145.148 312.6 168.318 312.6 168.318L319.896 163.248C319.896 163.248 299.856 135.809 293.944 124.1C275.024 86.6347 279.688 71.1936 268.808 63.0485L250.4 68.9591Z" fill="#333399"/>
<path opacity="0.4" d="M250.4 68.9591C250.4 68.9591 266.8 106.513 277.4 127.889C285.96 145.148 312.6 168.318 312.6 168.318L319.896 163.248C319.896 163.248 299.856 135.809 293.944 124.1C275.024 86.6347 279.688 71.1936 268.808 63.0485L250.4 68.9591Z" fill="black"/>
<path d="M212.176 80.2435L206.832 81.2366L210.616 86.3623C210.616 86.3623 213.408 84.4161 213.992 81.9494L212.176 80.2435Z" fill="#E4897B"/>
<path d="M203.328 85.2892L206.84 88.5728L210.608 86.3624L206.832 81.2367L203.328 85.2892Z" fill="#E4897B"/>
<path d="M318.552 174.284L324.112 170.28C324.207 170.21 324.323 170.178 324.439 170.188C324.555 170.198 324.664 170.251 324.744 170.336L328.536 174.284C328.709 174.476 328.798 174.729 328.785 174.988C328.771 175.246 328.656 175.488 328.464 175.661L328.376 175.734C326.408 177.087 325.392 177.648 322.952 179.402C321.448 180.483 318.28 183.094 316.2 184.583C314.12 186.073 312.544 184.095 313.272 183.294C316.552 179.674 317.424 177.207 317.944 175.165C318.04 174.81 318.255 174.499 318.552 174.284Z" fill="#263238"/>
<path d="M279.768 188.98H286.968C287.097 188.984 287.222 189.028 287.324 189.108C287.426 189.187 287.5 189.297 287.536 189.421L289.136 195.139C289.169 195.253 289.179 195.372 289.166 195.489C289.153 195.607 289.117 195.721 289.059 195.824C289.002 195.928 288.925 196.019 288.832 196.092C288.74 196.166 288.634 196.22 288.52 196.252C288.432 196.265 288.344 196.265 288.256 196.252H271.608C268.968 196.252 268.408 193.577 269.512 193.337C274.408 192.248 277.232 190.758 278.744 189.333C279.028 189.089 279.394 188.963 279.768 188.98Z" fill="#263238"/>
<path d="M252.992 27.9297V28.3542C252.992 28.6024 252.824 34.3368 246.968 38.8618L246.376 39.3184L245.656 39.1582C242.552 38.4854 240.488 37.196 239.504 35.3299C239.048 34.4637 238.84 33.4879 238.904 32.5108L240.688 31.7099C244.17 30.3223 247.747 29.1875 251.392 28.3141C251.92 28.186 252.456 28.0498 252.992 27.9297Z" fill="white"/>
<path d="M246.512 16.5967C246.928 20.2568 248.248 26.792 251.384 28.3297C251.384 28.3297 251.304 33.4875 245.984 37.596C238.936 36.0583 240.68 31.7255 240.68 31.7255C244.232 29.5871 243.232 26.768 241.712 24.3013L246.512 16.5967Z" fill="#E4897B"/>
<path d="M244.56 19.7363L241.72 24.2934C242.081 24.8658 242.392 25.4688 242.648 26.0954C244.048 25.4146 245.848 23.3964 245.512 21.8106C245.321 21.0677 244.999 20.3651 244.56 19.7363Z" fill="#CE6F64"/>
<path d="M244.848 8.43552C246.864 14.1459 247.832 16.5165 246.24 20.561C243.84 26.6398 236.4 27.8651 232.72 22.8836C229.416 18.3906 226.68 9.82106 231.176 5.26399C232.716 3.70921 234.811 2.83069 236.998 2.82168C239.186 2.81267 241.287 3.6739 242.84 5.21594C243.753 6.11585 244.441 7.21899 244.848 8.43552Z" fill="#E4897B"/>
<path d="M237.296 1.78027C235.36 3.88662 239.336 12.6964 245.4 14.0499C251.464 15.4034 246.568 5.82477 246.568 5.82477L237.296 1.78027Z" fill="#263238"/>
<path d="M237.928 4.24737C238.152 6.65004 228.512 10.2781 227.688 12.0561C228.088 9.16484 228.224 5.77707 231.864 3.3744C235.504 0.971725 238.504 1.90877 238.504 1.90877L237.928 4.24737Z" fill="#263238"/>
<path d="M237.216 4.34309C237.216 4.34309 236.152 7.10617 232.096 10.4859C235.294 9.57175 238.034 7.49162 239.776 4.65544L237.216 4.34309Z" fill="#263238"/>
<path d="M248.296 13.073C248.473 14.2303 248.185 15.4106 247.496 16.3566C246.576 17.606 245.168 17.0134 244.632 15.6519C244.144 14.4185 244.032 12.2881 245.336 11.5273C245.562 11.3972 245.811 11.313 246.069 11.2796C246.328 11.2463 246.59 11.2643 246.841 11.3328C247.093 11.4013 247.328 11.5188 247.534 11.6786C247.739 11.8384 247.911 12.0374 248.04 12.2641C248.184 12.5117 248.271 12.7878 248.296 13.073Z" fill="#E4897B"/>
<path d="M268.688 61.5511L270.424 63.3291C270.56 63.4652 270.424 63.6975 270.144 63.7776L245.416 71.6103C245.335 71.6465 245.244 71.6552 245.157 71.635C245.071 71.6147 244.993 71.5667 244.936 71.4981L244.056 69.4559C244 69.3117 244.144 69.1355 244.376 69.0554L268.248 61.495C268.32 61.4645 268.399 61.4536 268.476 61.4635C268.553 61.4733 268.626 61.5036 268.688 61.5511Z" fill="#263238"/>
<path d="M236.384 13.8256C236.576 14.2741 236.488 14.7466 236.192 14.8668C235.896 14.9869 235.504 14.7306 235.312 14.2741C235.12 13.8176 235.208 13.3531 235.504 13.233C235.8 13.1128 236.192 13.3691 236.384 13.8256Z" fill="#263238"/>
<path d="M231.272 15.988C231.464 16.4445 231.376 16.909 231.08 17.0372C230.784 17.1653 230.392 16.901 230.2 16.4445C230.008 15.988 230.096 15.5235 230.392 15.3954C230.688 15.2672 231.08 15.5395 231.272 15.988Z" fill="#263238"/>
<path d="M230.528 15.3714L229.312 15.5156C229.312 15.5156 230.232 16.1323 230.528 15.3714Z" fill="#263238"/>
<path d="M233.072 16.0843C233.106 17.29 232.974 18.4947 232.68 19.6643C232.981 19.7305 233.293 19.7305 233.594 19.6641C233.896 19.5977 234.179 19.4666 234.424 19.2799L233.072 16.0843Z" fill="#DE5753"/>
<path d="M237.296 20.249C237.265 20.2469 237.235 20.2346 237.211 20.2138C237.187 20.1931 237.171 20.1651 237.164 20.1342C237.158 20.1033 237.162 20.0711 237.176 20.0426C237.189 20.0142 237.212 19.991 237.24 19.9767C237.808 19.7494 238.314 19.3918 238.718 18.9328C239.123 18.4737 239.414 17.926 239.568 17.3337C239.57 17.3158 239.575 17.2984 239.584 17.2827C239.593 17.2669 239.605 17.253 239.619 17.2418C239.633 17.2307 239.649 17.2224 239.667 17.2176C239.684 17.2127 239.702 17.2114 239.72 17.2136C239.739 17.2165 239.757 17.2232 239.774 17.2333C239.79 17.2434 239.804 17.2566 239.815 17.2723C239.827 17.288 239.835 17.3058 239.839 17.3246C239.843 17.3434 239.843 17.3628 239.84 17.3818C239.684 18.024 239.375 18.619 238.941 19.1167C238.507 19.6144 237.959 20 237.344 20.241L237.296 20.249Z" fill="#263238"/>
<path d="M237.112 11.5431C237.065 11.5511 237.016 11.5511 236.968 11.5431C236.658 11.3567 236.309 11.2446 235.948 11.2154C235.587 11.1862 235.224 11.2408 234.888 11.3749C234.821 11.409 234.744 11.4155 234.672 11.3931C234.6 11.3706 234.54 11.321 234.504 11.2547C234.47 11.1865 234.463 11.1075 234.485 11.0344C234.508 10.9612 234.557 10.8996 234.624 10.8623C235.044 10.6796 235.502 10.6009 235.959 10.633C236.416 10.665 236.858 10.8069 237.248 11.0465C237.314 11.085 237.361 11.1478 237.381 11.2213C237.4 11.2948 237.39 11.373 237.352 11.4389C237.323 11.4735 237.286 11.5009 237.244 11.519C237.203 11.537 237.158 11.5453 237.112 11.5431Z" fill="#263238"/>
<path d="M227.84 14.6426H227.784C227.748 14.6359 227.713 14.6221 227.682 14.6019C227.651 14.5817 227.625 14.5556 227.604 14.5251C227.583 14.4946 227.569 14.4603 227.561 14.4241C227.554 14.3879 227.553 14.3506 227.56 14.3143C227.638 13.8591 227.824 13.4294 228.102 13.0613C228.381 12.6933 228.744 12.3979 229.16 12.1999C229.231 12.1731 229.31 12.1748 229.38 12.2046C229.45 12.2345 229.506 12.2901 229.536 12.3601C229.566 12.4302 229.566 12.5091 229.538 12.5796C229.509 12.6501 229.454 12.7065 229.384 12.7365C229.053 12.8979 228.766 13.1363 228.546 13.4317C228.326 13.7271 228.18 14.0709 228.12 14.4344C228.105 14.4965 228.069 14.5513 228.018 14.5894C227.967 14.6274 227.904 14.6463 227.84 14.6426Z" fill="#263238"/>
<path d="M265.4 32.1341C266.352 32.8469 267.152 33.5117 267.984 34.2325C268.816 34.9533 269.584 35.6741 270.384 36.4189C271.944 37.9246 273.432 39.5023 274.864 41.1522C276.305 42.8105 277.641 44.5571 278.864 46.382C279.184 46.8305 279.464 47.319 279.76 47.7835C280.056 48.248 280.352 48.7206 280.616 49.2091C280.88 49.6977 281.16 50.1542 281.416 50.7068L281.84 51.5878L282.184 52.4928C282.919 54.7649 283.265 57.145 283.208 59.5326C283.159 61.754 282.921 63.9671 282.496 66.148C282.071 68.2698 281.537 70.3683 280.896 72.4349C280.251 74.49 279.495 76.5085 278.632 78.4817L275.744 77.4085C276.24 75.4863 276.712 73.4681 277.064 71.4739C277.457 69.4992 277.742 67.5048 277.92 65.4992C278.113 63.5567 278.159 61.6022 278.056 59.6527C277.997 58.7283 277.882 57.8082 277.712 56.8977C277.545 56.0549 277.302 55.2292 276.984 54.4309L276.744 53.8783L276.472 53.3657C276.256 52.9973 275.96 52.5648 275.672 52.1644C275.384 51.764 275.144 51.3635 274.872 50.9551C274.6 50.5466 274.328 50.1542 274.016 49.7617C272.856 48.16 271.536 46.7103 270.224 45.2287C268.912 43.747 267.472 42.3455 266.008 40.992C265.28 40.3032 264.544 39.6305 263.792 38.9737C263.04 38.317 262.256 37.6603 261.6 37.0997L265.4 32.1341Z" fill="#E4897B"/>
<path d="M276.672 75.4945L272.288 78.698L277.888 81.6613C277.888 81.6613 279.56 78.698 279.016 76.2233L276.672 75.4945Z" fill="#E4897B"/>
<path d="M270.896 83.888L275.488 85.3135L277.92 81.6775L272.288 78.7142L270.896 83.888Z" fill="#E4897B"/>
<path d="M316.448 176.791H316.352C316.213 176.774 316.08 176.721 315.968 176.637C315.856 176.552 315.767 176.44 315.712 176.31C315.669 176.235 315.646 176.149 315.646 176.062C315.646 175.975 315.669 175.889 315.712 175.814C316.104 175.141 318.304 175.013 318.552 175.013C318.579 175.013 318.605 175.021 318.628 175.035C318.65 175.049 318.668 175.069 318.68 175.093C318.696 175.117 318.704 175.145 318.704 175.173C318.704 175.202 318.696 175.23 318.68 175.253C318.152 175.838 317.2 176.791 316.448 176.791ZM318.208 175.325C317.328 175.389 316.16 175.598 315.96 175.95C315.936 175.981 315.923 176.019 315.923 176.058C315.923 176.097 315.936 176.135 315.96 176.166C315.995 176.253 316.051 176.33 316.124 176.389C316.197 176.448 316.284 176.487 316.376 176.503C316.8 176.543 317.464 176.11 318.208 175.325Z" fill="#333399"/>
<path d="M318.4 175.309C317.664 175.309 316.216 174.901 315.944 174.308C315.896 174.204 315.886 174.086 315.916 173.975C315.945 173.864 316.011 173.767 316.104 173.7C316.186 173.626 316.283 173.57 316.387 173.536C316.492 173.501 316.603 173.489 316.712 173.499C317.592 173.587 318.624 175.013 318.664 175.101C318.676 175.123 318.682 175.148 318.682 175.173C318.682 175.198 318.676 175.223 318.664 175.245C318.654 175.268 318.639 175.288 318.619 175.303C318.6 175.319 318.577 175.329 318.552 175.333L318.4 175.309ZM316.624 173.788C316.565 173.786 316.506 173.797 316.451 173.819C316.396 173.841 316.346 173.874 316.304 173.916C316.168 174.036 316.184 174.124 316.208 174.188C316.384 174.581 317.52 174.989 318.264 174.989C317.896 174.532 317.208 173.812 316.664 173.756L316.624 173.788Z" fill="#333399"/>
<path d="M276.56 190.174C276.067 190.209 275.576 190.092 275.152 189.838C275.044 189.755 274.955 189.65 274.891 189.53C274.828 189.409 274.791 189.277 274.784 189.141C274.773 189.064 274.784 188.987 274.817 188.917C274.85 188.847 274.902 188.788 274.968 188.748C275.616 188.308 278.08 189.421 278.568 189.653C278.595 189.665 278.618 189.686 278.632 189.712C278.647 189.738 278.652 189.768 278.648 189.797C278.646 189.828 278.633 189.857 278.613 189.88C278.593 189.903 278.566 189.919 278.536 189.926C277.888 190.076 277.226 190.159 276.56 190.174ZM275.408 188.924C275.311 188.918 275.213 188.94 275.128 188.989C275.109 189.005 275.093 189.026 275.084 189.05C275.074 189.074 275.07 189.099 275.072 189.125C275.075 189.219 275.099 189.312 275.144 189.395C275.188 189.479 275.251 189.551 275.328 189.605C275.744 189.926 276.744 189.966 278.04 189.733C277.211 189.326 276.323 189.053 275.408 188.924Z" fill="#333399"/>
<path d="M278.504 189.926H278.448C277.648 189.589 275.992 188.268 276.088 187.587C276.088 187.435 276.208 187.251 276.576 187.203C278.016 187.034 278.624 189.605 278.648 189.757C278.653 189.784 278.651 189.81 278.642 189.836C278.634 189.861 278.62 189.883 278.6 189.902C278.572 189.921 278.538 189.93 278.504 189.926ZM276.712 187.483H276.616C276.464 187.483 276.376 187.547 276.368 187.619C276.32 188.011 277.456 189.061 278.28 189.517C278.096 188.884 277.6 187.483 276.712 187.483Z" fill="#333399"/>
<path d="M235.64 13.2012L234.424 13.3453C234.424 13.3453 235.336 13.962 235.64 13.2012Z" fill="#263238"/>
<path d="M273.448 182.462L286.424 182.133L285.68 178.137L271.504 178.809L273.448 182.462Z" fill="#333399"/>
<path opacity="0.5" d="M273.448 182.462L286.424 182.133L285.68 178.137L271.504 178.809L273.448 182.462Z" fill="white"/>
<path d="M312.968 170.736L321.544 164.625L319.6 160.877L310.176 168.013L312.968 170.736Z" fill="#333399"/>
<path opacity="0.5" d="M312.968 170.736L321.544 164.625L319.6 160.877L310.176 168.013L312.968 170.736Z" fill="white"/>
<path d="M266.328 65.2427L266.968 65.0344C267.096 64.9944 267.176 64.8983 267.136 64.8262L265.968 62.1753C265.968 62.0952 265.808 62.0631 265.68 62.1032L265.04 62.3114C264.912 62.3514 264.832 62.4476 264.872 62.5196L266.032 65.1706C266.066 65.2139 266.114 65.2444 266.168 65.2575C266.221 65.2705 266.278 65.2653 266.328 65.2427Z" fill="#333399"/>
<path d="M247.288 71.2977L247.928 71.0975C248.056 71.0494 248.128 70.9533 248.096 70.8812L246.928 68.2303C246.928 68.1502 246.76 68.1182 246.632 68.1582L245.992 68.3664C245.864 68.3664 245.792 68.5026 245.824 68.5747L246.992 71.2256C247.024 71.2977 247.2 71.2977 247.288 71.2977Z" fill="#333399"/>
<path d="M256.8 68.2541L257.44 68.0538C257.467 68.0533 257.492 68.047 257.516 68.0352C257.539 68.0234 257.56 68.0066 257.576 67.9859C257.592 67.9651 257.603 67.9411 257.609 67.9154C257.615 67.8898 257.614 67.8632 257.608 67.8376L256.44 65.1867C256.44 65.1146 256.272 65.0825 256.144 65.1226L255.512 65.3228C255.384 65.3628 255.304 65.459 255.336 65.539L256.504 68.19C256.541 68.2308 256.589 68.259 256.642 68.2705C256.695 68.2821 256.751 68.2763 256.8 68.2541Z" fill="#333399"/>
<path opacity="0.4" d="M266.328 65.2427L266.968 65.0344C267.096 64.9944 267.176 64.8983 267.136 64.8262L265.968 62.1753C265.968 62.0952 265.808 62.0631 265.68 62.1032L265.04 62.3114C264.912 62.3514 264.832 62.4476 264.872 62.5196L266.032 65.1706C266.066 65.2139 266.114 65.2444 266.168 65.2575C266.221 65.2705 266.278 65.2653 266.328 65.2427Z" fill="black"/>
<path opacity="0.4" d="M247.288 71.2977L247.928 71.0975C248.056 71.0494 248.128 70.9533 248.096 70.8812L246.928 68.2303C246.928 68.1502 246.76 68.1182 246.632 68.1582L245.992 68.3664C245.864 68.3664 245.792 68.5026 245.824 68.5747L246.992 71.2256C247.024 71.2977 247.2 71.2977 247.288 71.2977Z" fill="black"/>
<path opacity="0.4" d="M256.8 68.2541L257.44 68.0538C257.467 68.0533 257.492 68.047 257.516 68.0352C257.539 68.0234 257.56 68.0066 257.576 67.9859C257.592 67.9651 257.603 67.9411 257.609 67.9154C257.615 67.8898 257.614 67.8632 257.608 67.8376L256.44 65.1867C256.44 65.1146 256.272 65.0825 256.144 65.1226L255.512 65.3228C255.384 65.3628 255.304 65.459 255.336 65.539L256.504 68.19C256.541 68.2308 256.589 68.259 256.642 68.2705C256.695 68.2821 256.751 68.2763 256.8 68.2541Z" fill="black"/>
<path d="M264.536 48.7366C262.272 45.533 260.104 38.0767 260.664 35.2816L262.904 38.0367C263.4 42.3294 263.936 45.7652 264.536 48.7366Z" fill="#333399"/>
<path opacity="0.5" d="M264.536 48.7366C262.272 45.533 260.104 38.0767 260.664 35.2816L262.904 38.0367C263.4 42.3294 263.936 45.7652 264.536 48.7366Z" fill="white"/>
<path d="M261.816 26.4478C264.88 26.3116 270.904 33.848 270.904 33.848L264.648 42.6578C264.648 42.6578 257.624 37.0516 257.08 33.1512C256.616 29.8996 257.912 26.656 261.816 26.4478Z" fill="#333399"/>
<path opacity="0.6" d="M261.816 26.4478C264.88 26.3116 270.904 33.848 270.904 33.848L264.648 42.6578C264.648 42.6578 257.624 37.0516 257.08 33.1512C256.616 29.8996 257.912 26.656 261.816 26.4478Z" fill="white"/>
<path d="M300.176 242.688C287.032 238.684 278.888 224.34 278.888 224.34C278.888 224.34 274.72 224.108 274.52 227.872C274.176 234.487 277.768 239.261 279.976 241.543L273.656 241.191C271.403 241.064 269.145 241.302 266.968 241.896L264.872 242.472C263.129 242.953 261.643 244.098 260.732 245.663C259.821 247.227 259.559 249.086 260 250.841L263.008 263.143C263.913 266.843 266.163 270.072 269.318 272.202C272.473 274.331 276.307 275.207 280.072 274.66C286.512 273.723 296.536 272.257 298.272 271.945L302.848 271.561L304.448 243.962L300.176 242.688Z" fill="white"/>
<path d="M320.752 238.9H303.048C301.665 238.9 300.544 240.023 300.544 241.407V272.754C300.544 274.139 301.665 275.261 303.048 275.261H320.752C322.135 275.261 323.256 274.139 323.256 272.754V241.407C323.256 240.023 322.135 238.9 320.752 238.9Z" fill="#333399"/>
<path opacity="0.3" d="M320.752 238.9H303.048C301.665 238.9 300.544 240.023 300.544 241.407V272.754C300.544 274.139 301.665 275.261 303.048 275.261H320.752C322.135 275.261 323.256 274.139 323.256 272.754V241.407C323.256 240.023 322.135 238.9 320.752 238.9Z" fill="black"/>
</svg>
