<svg width="400" height="300" viewBox="0 0 400 300" fill="none" xmlns="http://www.w3.org/2000/svg">
<path d="M400 264.44H0.000488281V264.637H400V264.44Z" fill="#E0E0E0"/>
<path d="M303.464 271.7H275.944V271.897H303.464V271.7Z" fill="#E0E0E0"/>
<path d="M335.84 271.141H320.352V271.338H335.84V271.141Z" fill="#E0E0E0"/>
<path d="M197.872 271.606H177.328V271.803H197.872V271.606Z" fill="#E0E0E0"/>
<path d="M212.712 274.401H198.68V274.598H212.712V274.401Z" fill="#E0E0E0"/>
<path d="M115.736 269.614H73.3442V269.811H115.736V269.614Z" fill="#E0E0E0"/>
<path d="M189.6 229.324H35.1284C33.9182 229.322 32.7584 228.847 31.9035 228.004C31.0485 227.161 30.5684 226.019 30.5684 224.828V11.1092C30.5789 9.92499 31.0637 8.7927 31.9175 7.95827C32.7713 7.12383 33.9251 6.65465 35.1284 6.65262H189.6C190.812 6.65262 191.974 7.1263 192.83 7.96945C193.687 8.8126 194.168 9.95616 194.168 11.1486V224.828C194.168 226.02 193.687 227.164 192.83 228.007C191.974 228.85 190.812 229.324 189.6 229.324ZM35.1284 6.81009C33.9713 6.81218 32.8623 7.26604 32.0449 8.07205C31.2275 8.87806 30.7684 9.97036 30.7684 11.1092V224.828C30.7684 225.966 31.2275 227.059 32.0449 227.865C32.8623 228.671 33.9713 229.125 35.1284 229.127H189.6C190.758 229.125 191.868 228.671 192.686 227.865C193.505 227.059 193.966 225.967 193.968 224.828V11.1092C193.966 9.96964 193.505 8.87735 192.686 8.07157C191.868 7.26578 190.758 6.81218 189.6 6.81009H35.1284Z" fill="#E0E0E0"/>
<path d="M362.648 229.324H208.168C206.957 229.322 205.797 228.847 204.94 228.004C204.084 227.162 203.602 226.019 203.6 224.828V11.1092C203.613 9.92427 204.099 8.79199 204.954 7.95777C205.809 7.12356 206.964 6.65462 208.168 6.65262H362.648C363.85 6.65672 365.001 7.12682 365.854 7.96103C366.706 8.79524 367.189 9.92635 367.2 11.1092V224.828C367.2 226.017 366.721 227.159 365.868 228.001C365.014 228.844 363.857 229.319 362.648 229.324ZM208.168 6.81009C207.01 6.81218 205.9 7.26578 205.082 8.07157C204.263 8.87735 203.802 9.96964 203.8 11.1092V224.828C203.802 225.967 204.263 227.059 205.082 227.865C205.9 228.671 207.01 229.125 208.168 229.127H362.648C363.806 229.125 364.915 228.671 365.734 227.865C366.553 227.059 367.014 225.967 367.016 224.828V11.1092C367.014 9.96964 366.553 8.87735 365.734 8.07157C364.915 7.26578 363.806 6.81218 362.648 6.81009H208.168Z" fill="#E0E0E0"/>
<path d="M347.224 25.7625H226.664V127.775H347.224V25.7625Z" fill="#E0E0E0"/>
<path d="M349.904 25.7625H229.344V127.775H349.904V25.7625Z" fill="#F0F0F0"/>
<path d="M345.096 122.988V30.5494L234.152 30.5494V122.988H345.096Z" fill="#FAFAFA"/>
<path d="M309.64 122.988V30.5494H302.392V122.988H309.64Z" fill="#E0E0E0"/>
<path d="M271.512 122.988V30.5494H264.264V122.988H271.512Z" fill="#E0E0E0"/>
<path d="M312.192 126.019V26.9825H304.944V126.019H312.192Z" fill="#F0F0F0"/>
<path d="M274.056 126.027V26.9908H266.808V126.027H274.056Z" fill="#F0F0F0"/>
<path d="M345.096 122.98V30.5417H343.072V122.98H345.096Z" fill="#E0E0E0"/>
<path d="M141.872 106.327C141.872 106.327 127.2 81.4534 147.56 61.6193C147.56 61.6193 152.872 65.0287 152.792 69.6112C152.712 74.1938 147.096 75.3512 148.304 79.1779C149.512 83.0046 154.8 86.7446 151.328 89.9099C147.856 93.0751 151.888 95.8782 151.656 99.7521C151.424 103.626 141.872 106.327 141.872 106.327Z" fill="#E0E0E0"/>
<path d="M144.176 110.398C144.176 110.398 150.128 82.2251 124.464 69.7373C124.464 69.7373 120.512 74.6191 122.064 78.9418C123.616 83.2645 129.304 82.6188 129.384 86.6266C129.464 90.6344 125.648 95.8311 129.952 97.7523C134.256 99.6735 131.336 103.595 132.8 107.201C134.264 110.807 144.176 110.398 144.176 110.398Z" fill="#E6E6E6"/>
<path d="M131.112 103.241C131.112 103.241 131.368 127.563 141.248 127.563C151.128 127.563 151.376 103.241 151.376 103.241H131.112Z" fill="#F0F0F0"/>
<path d="M71.7524 118.413C71.7524 118.413 72.3044 127.562 93.4004 127.562C114.496 127.562 115.056 118.413 115.056 118.413H71.7524Z" fill="#E6E6E6"/>
<path d="M294.16 173.577H283.024C281.637 173.577 280.512 174.684 280.512 176.05V194.175C280.512 195.541 281.637 196.648 283.024 196.648H294.16C295.548 196.648 296.672 195.541 296.672 194.175V176.05C296.672 174.684 295.548 173.577 294.16 173.577Z" fill="#F0F0F0"/>
<path d="M323.696 181.12H316.2C315.268 181.12 314.512 181.864 314.512 182.782V194.986C314.512 195.903 315.268 196.647 316.2 196.647H323.696C324.628 196.647 325.384 195.903 325.384 194.986V182.782C325.384 181.864 324.628 181.12 323.696 181.12Z" fill="#E6E6E6"/>
<path d="M324.816 179.616H315.08C314.767 179.616 314.512 179.866 314.512 180.175V180.805C314.512 181.114 314.767 181.364 315.08 181.364H324.816C325.13 181.364 325.384 181.114 325.384 180.805V180.175C325.384 179.866 325.13 179.616 324.816 179.616Z" fill="#F0F0F0"/>
<path d="M254.736 183.813C254.736 183.813 255.136 196.647 270.408 196.647C285.68 196.647 286.088 183.813 286.088 183.813H254.736Z" fill="#E6E6E6"/>
<path d="M216.752 166.861H239.864V162.373H216.752V166.861Z" fill="#E0E0E0"/>
<path d="M354.768 162.381H239.864V166.869H354.768V162.381Z" fill="#F0F0F0"/>
<path d="M216.752 201.135H239.864V196.647H216.752V201.135Z" fill="#E0E0E0"/>
<path d="M354.768 196.647H239.864V201.135H354.768V196.647Z" fill="#F0F0F0"/>
<path d="M225.08 166.861H220.816V264.433H225.08V166.861Z" fill="#E0E0E0"/>
<path d="M244.128 166.861H239.864V264.433H244.128V166.861Z" fill="#F0F0F0"/>
<path d="M339.984 166.861H335.72V264.433H339.984V166.861Z" fill="#E0E0E0"/>
<path d="M354.768 166.861H350.504V264.433H354.768V166.861Z" fill="#F0F0F0"/>
<path d="M71.7525 133.271H49.8965V258.536H71.7525V133.271Z" fill="#E6E6E6"/>
<path d="M161.873 258.528H54.0967V264.441H161.873V258.528Z" fill="#E6E6E6"/>
<path d="M71.7521 258.528H166.064L166.064 133.264H71.7521L71.7521 258.528Z" fill="#F0F0F0"/>
<path d="M80.3443 211.198H157.472V180.601H80.3443V211.198Z" fill="#E6E6E6"/>
<path d="M80.3443 247.371H157.472V216.773H80.3443V247.371Z" fill="#E6E6E6"/>
<path d="M127.569 183.955H110.249C109.685 183.952 109.145 183.731 108.746 183.339C108.348 182.946 108.123 182.415 108.121 181.86C108.121 181.304 108.345 180.77 108.743 180.376C109.142 179.982 109.683 179.76 110.249 179.758H127.569C128.134 179.76 128.675 179.982 129.074 180.376C129.473 180.77 129.697 181.304 129.697 181.86C129.694 182.415 129.47 182.946 129.071 183.339C128.672 183.731 128.132 183.952 127.569 183.955Z" fill="#F0F0F0"/>
<path d="M80.3443 175.018H157.472V144.42H80.3443V175.018Z" fill="#E6E6E6"/>
<path d="M127.569 147.782H110.249C109.683 147.78 109.142 147.558 108.743 147.164C108.345 146.77 108.121 146.236 108.121 145.68C108.123 145.125 108.348 144.594 108.746 144.201C109.145 143.809 109.685 143.588 110.249 143.586H127.569C128.132 143.588 128.672 143.809 129.071 144.201C129.47 144.594 129.694 145.125 129.697 145.68C129.697 146.236 129.473 146.77 129.074 147.164C128.675 147.558 128.134 147.78 127.569 147.782Z" fill="#F0F0F0"/>
<path d="M127.569 220.127H110.249C109.685 220.125 109.145 219.903 108.746 219.511C108.348 219.119 108.123 218.587 108.121 218.032C108.121 217.476 108.345 216.943 108.743 216.549C109.142 216.155 109.683 215.932 110.249 215.93H127.569C128.134 215.932 128.675 216.155 129.074 216.549C129.473 216.943 129.697 217.476 129.697 218.032C129.694 218.587 129.47 219.119 129.071 219.511C128.672 219.903 128.132 220.125 127.569 220.127Z" fill="#F0F0F0"/>
<path d="M168.976 127.563H71.7524V133.271H168.976V127.563Z" fill="#E6E6E6"/>
<path d="M46.8405 133.263H71.7524V127.555H46.8405V133.263Z" fill="#E0E0E0"/>
<path d="M96.1124 30.5494H60.7524V68.7688H96.1124V30.5494Z" fill="#E6E6E6"/>
<path d="M99.9445 30.5494H63.4165V68.7688H99.9445V30.5494Z" fill="#F0F0F0"/>
<path d="M96.8804 65.7533V33.5574H66.4724V65.7533H96.8804Z" fill="#FAFAFA"/>
<path d="M89.5122 57.9507V41.3606H73.8482V57.9507H89.5122Z" fill="#F0F0F0"/>
<path d="M133.392 19.2665H106.576V47.6201H133.392V19.2665Z" fill="#E6E6E6"/>
<path d="M136.24 19.2665H109.144V47.6201H136.24V19.2665Z" fill="#F0F0F0"/>
<path d="M133.968 45.3838V21.5025H111.416V45.3838H133.968Z" fill="#FAFAFA"/>
<path d="M122.689 27.3998L116.521 37.9192H128.856L122.689 27.3998Z" fill="#F0F0F0"/>
<path d="M200 300C285.666 300 355.112 296.009 355.112 291.087C355.112 286.164 285.666 282.174 200 282.174C114.335 282.174 44.8887 286.164 44.8887 291.087C44.8887 296.009 114.335 300 200 300Z" fill="#F5F5F5"/>
<path d="M335.84 78.1635H257.36C253.22 78.1635 249.864 81.4666 249.864 85.5412V106.548C249.864 110.623 253.22 113.926 257.36 113.926H335.84C339.98 113.926 343.336 110.623 343.336 106.548V85.5412C343.336 81.4666 339.98 78.1635 335.84 78.1635Z" fill="#333399"/>
<path d="M320.272 84.1947H258.968C258.243 84.1947 257.656 84.7728 257.656 85.486V86.9033C257.656 87.6165 258.243 88.1946 258.968 88.1946H320.272C320.996 88.1946 321.584 87.6165 321.584 86.9033V85.486C321.584 84.7728 320.996 84.1947 320.272 84.1947Z" fill="#333399"/>
<path d="M300.856 93.8321H258.968C258.243 93.8321 257.656 94.4102 257.656 95.1234V96.5406C257.656 97.2538 258.243 97.832 258.968 97.832H300.856C301.58 97.832 302.168 97.2538 302.168 96.5406V95.1234C302.168 94.4102 301.58 93.8321 300.856 93.8321Z" fill="#333399"/>
<path d="M289.624 103.469H258.968C258.243 103.469 257.656 104.048 257.656 104.761V106.178C257.656 106.891 258.243 107.469 258.968 107.469H289.624C290.348 107.469 290.936 106.891 290.936 106.178V104.761C290.936 104.048 290.348 103.469 289.624 103.469Z" fill="#333399"/>
<path d="M327.616 103.469H296.96C296.235 103.469 295.648 104.048 295.648 104.761V106.178C295.648 106.891 296.235 107.469 296.96 107.469H327.616C328.34 107.469 328.928 106.891 328.928 106.178V104.761C328.928 104.048 328.34 103.469 327.616 103.469Z" fill="#333399"/>
<g opacity="0.5">
<path opacity="0.5" d="M320.272 84.1944H258.968C258.243 84.1944 257.656 84.7725 257.656 85.4857V86.903C257.656 87.6161 258.243 88.1943 258.968 88.1943H320.272C320.996 88.1943 321.584 87.6161 321.584 86.903V85.4857C321.584 84.7725 320.996 84.1944 320.272 84.1944Z" fill="white"/>
<path opacity="0.5" d="M300.856 93.8318H258.968C258.243 93.8318 257.656 94.4099 257.656 95.1231V96.5403C257.656 97.2535 258.243 97.8316 258.968 97.8316H300.856C301.58 97.8316 302.168 97.2535 302.168 96.5403V95.1231C302.168 94.4099 301.58 93.8318 300.856 93.8318Z" fill="white"/>
<path opacity="0.5" d="M289.624 103.47H258.968C258.243 103.47 257.656 104.048 257.656 104.761V106.178C257.656 106.892 258.243 107.47 258.968 107.47H289.624C290.348 107.47 290.936 106.892 290.936 106.178V104.761C290.936 104.048 290.348 103.47 289.624 103.47Z" fill="white"/>
<path opacity="0.5" d="M327.616 103.47H296.96C296.235 103.47 295.648 104.048 295.648 104.761V106.178C295.648 106.892 296.235 107.47 296.96 107.47H327.616C328.34 107.47 328.928 106.892 328.928 106.178V104.761C328.928 104.048 328.34 103.47 327.616 103.47Z" fill="white"/>
</g>
<path d="M272.976 69.8249H183.896C177.825 69.8249 172.904 74.6686 172.904 80.6435V111.446C172.904 117.421 177.825 122.264 183.896 122.264H272.976C279.046 122.264 283.968 117.421 283.968 111.446V80.6435C283.968 74.6686 279.046 69.8249 272.976 69.8249Z" fill="#333399"/>
<path d="M276.128 78.6674H186.256C185.191 78.6674 184.328 79.5169 184.328 80.5649V82.6357C184.328 83.6838 185.191 84.5333 186.256 84.5333H276.128C277.193 84.5333 278.056 83.6838 278.056 82.6357V80.5649C278.056 79.5169 277.193 78.6674 276.128 78.6674Z" fill="#333399"/>
<path d="M247.656 92.8007H186.256C185.191 92.8007 184.328 93.6502 184.328 94.6982V96.769C184.328 97.8171 185.191 98.6666 186.256 98.6666H247.656C248.721 98.6666 249.584 97.8171 249.584 96.769V94.6982C249.584 93.6502 248.721 92.8007 247.656 92.8007Z" fill="#333399"/>
<path d="M231.192 106.934H186.256C185.191 106.934 184.328 107.783 184.328 108.831V110.902C184.328 111.95 185.191 112.8 186.256 112.8H231.192C232.257 112.8 233.12 111.95 233.12 110.902V108.831C233.12 107.783 232.257 106.934 231.192 106.934Z" fill="#333399"/>
<path d="M279.4 106.934H241.96C240.895 106.934 240.032 107.783 240.032 108.831V110.902C240.032 111.95 240.895 112.8 241.96 112.8H279.4C280.464 112.8 281.328 111.95 281.328 110.902V108.831C281.328 107.783 280.464 106.934 279.4 106.934Z" fill="#333399"/>
<g opacity="0.5">
<path opacity="0.5" d="M276.128 78.6669H186.256C185.191 78.6669 184.328 79.5164 184.328 80.5644V82.6353C184.328 83.6833 185.191 84.5328 186.256 84.5328H276.128C277.193 84.5328 278.056 83.6833 278.056 82.6353V80.5644C278.056 79.5164 277.193 78.6669 276.128 78.6669Z" fill="white"/>
<path opacity="0.5" d="M247.656 92.8001H186.256C185.191 92.8001 184.328 93.6497 184.328 94.6977V96.7685C184.328 97.8165 185.191 98.6661 186.256 98.6661H247.656C248.721 98.6661 249.584 97.8165 249.584 96.7685V94.6977C249.584 93.6497 248.721 92.8001 247.656 92.8001Z" fill="white"/>
<path opacity="0.5" d="M231.192 106.934H186.256C185.191 106.934 184.328 107.784 184.328 108.832V110.902C184.328 111.95 185.191 112.8 186.256 112.8H231.192C232.257 112.8 233.12 111.95 233.12 110.902V108.832C233.12 107.784 232.257 106.934 231.192 106.934Z" fill="white"/>
<path opacity="0.5" d="M279.4 106.934H241.96C240.895 106.934 240.032 107.784 240.032 108.832V110.902C240.032 111.95 240.895 112.8 241.96 112.8H279.4C280.464 112.8 281.328 111.95 281.328 110.902V108.832C281.328 107.784 280.464 106.934 279.4 106.934Z" fill="white"/>
</g>
<path d="M217.592 131.768H174.688C171.851 131.768 169.552 134.031 169.552 136.823V200.081C169.552 202.873 171.851 205.136 174.688 205.136H217.592C220.428 205.136 222.728 202.873 222.728 200.081V136.823C222.728 134.031 220.428 131.768 217.592 131.768Z" fill="#333399"/>
<path opacity="0.4" d="M217.592 131.768H174.688C171.851 131.768 169.552 134.031 169.552 136.823V200.081C169.552 202.873 171.851 205.136 174.688 205.136H217.592C220.428 205.136 222.728 202.873 222.728 200.081V136.823C222.728 134.031 220.428 131.768 217.592 131.768Z" fill="black"/>
<path d="M215.624 139.421H176.648C176.127 139.421 175.704 139.837 175.704 140.35V141.744C175.704 142.257 176.127 142.673 176.648 142.673H215.624C216.145 142.673 216.568 142.257 216.568 141.744V140.35C216.568 139.837 216.145 139.421 215.624 139.421Z" fill="#FAFAFA"/>
<path d="M203.216 147.248H176.648C176.127 147.248 175.704 147.664 175.704 148.177V149.571C175.704 150.084 176.127 150.5 176.648 150.5H203.216C203.737 150.5 204.16 150.084 204.16 149.571V148.177C204.16 147.664 203.737 147.248 203.216 147.248Z" fill="#FAFAFA"/>
<path d="M215.624 155.082H176.648C176.127 155.082 175.704 155.498 175.704 156.011V157.405C175.704 157.918 176.127 158.334 176.648 158.334H215.624C216.145 158.334 216.568 157.918 216.568 157.405V156.011C216.568 155.498 216.145 155.082 215.624 155.082Z" fill="#FAFAFA"/>
<path d="M191.136 162.909H176.648C176.127 162.909 175.704 163.325 175.704 163.838V165.232C175.704 165.745 176.127 166.161 176.648 166.161H191.136C191.657 166.161 192.08 165.745 192.08 165.232V163.838C192.08 163.325 191.657 162.909 191.136 162.909Z" fill="#FAFAFA"/>
<path d="M211.408 162.909H196.92C196.399 162.909 195.976 163.325 195.976 163.838V165.232C195.976 165.745 196.399 166.161 196.92 166.161H211.408C211.929 166.161 212.352 165.745 212.352 165.232V163.838C212.352 163.325 211.929 162.909 211.408 162.909Z" fill="#FAFAFA"/>
<path d="M215.624 170.744H176.648C176.127 170.744 175.704 171.16 175.704 171.673V173.066C175.704 173.579 176.127 173.995 176.648 173.995H215.624C216.145 173.995 216.568 173.579 216.568 173.066V171.673C216.568 171.16 216.145 170.744 215.624 170.744Z" fill="#FAFAFA"/>
<path d="M215.624 178.57H176.648C176.127 178.57 175.704 178.986 175.704 179.499V180.893C175.704 181.406 176.127 181.822 176.648 181.822H215.624C216.145 181.822 216.568 181.406 216.568 180.893V179.499C216.568 178.986 216.145 178.57 215.624 178.57Z" fill="#FAFAFA"/>
<path d="M208.712 186.405H176.648C176.127 186.405 175.704 186.82 175.704 187.334V188.727C175.704 189.24 176.127 189.656 176.648 189.656H208.712C209.233 189.656 209.656 189.24 209.656 188.727V187.334C209.656 186.82 209.233 186.405 208.712 186.405Z" fill="#FAFAFA"/>
<path d="M191.608 194.231H176.648C176.127 194.231 175.704 194.647 175.704 195.16V196.554C175.704 197.067 176.127 197.483 176.648 197.483H191.608C192.129 197.483 192.552 197.067 192.552 196.554V195.16C192.552 194.647 192.129 194.231 191.608 194.231Z" fill="#FAFAFA"/>
<path d="M229.2 131.319H169.688L196 151.925L236.344 166.885V138.335C236.34 136.473 235.585 134.688 234.246 133.373C232.907 132.058 231.092 131.319 229.2 131.319Z" fill="#333399"/>
<path opacity="0.4" d="M229.2 131.319H169.688L196 151.925L236.344 166.885V138.335C236.34 136.473 235.585 134.688 234.246 133.373C232.907 132.058 231.092 131.319 229.2 131.319Z" fill="black"/>
<path d="M226.6 141.933H183.056C182.402 141.933 181.872 142.455 181.872 143.098V145.271C181.872 145.915 182.402 146.437 183.056 146.437H226.6C227.254 146.437 227.784 145.915 227.784 145.271V143.098C227.784 142.455 227.254 141.933 226.6 141.933Z" fill="#FAFAFA"/>
<path d="M332.12 187.097V145.902C332.12 142.745 329.519 140.185 326.312 140.185H253.632C250.424 140.185 247.824 142.745 247.824 145.902V187.097C247.824 190.254 250.424 192.814 253.632 192.814H326.312C329.519 192.814 332.12 190.254 332.12 187.097Z" fill="#333399"/>
<path d="M345.392 174.042V132.847C345.392 129.69 342.791 127.13 339.584 127.13H266.904C263.696 127.13 261.096 129.69 261.096 132.847V174.042C261.096 177.199 263.696 179.759 266.904 179.759H339.584C342.791 179.759 345.392 177.199 345.392 174.042Z" fill="#333399"/>
<path opacity="0.5" d="M345.392 174.042V132.847C345.392 129.69 342.791 127.13 339.584 127.13H266.904C263.696 127.13 261.096 129.69 261.096 132.847V174.042C261.096 177.199 263.696 179.759 266.904 179.759H339.584C342.791 179.759 345.392 177.199 345.392 174.042Z" fill="white"/>
<path d="M338.016 159.925V134.563C338.016 133.158 336.859 132.02 335.432 132.02H311.68C310.253 132.02 309.096 133.158 309.096 134.563V159.925C309.096 161.329 310.253 162.468 311.68 162.468H335.432C336.859 162.468 338.016 161.329 338.016 159.925Z" fill="#333399"/>
<path opacity="0.7" d="M338.016 159.925V134.563C338.016 133.158 336.859 132.02 335.432 132.02H311.68C310.253 132.02 309.096 133.158 309.096 134.563V159.925C309.096 161.329 310.253 162.468 311.68 162.468H335.432C336.859 162.468 338.016 161.329 338.016 159.925Z" fill="white"/>
<path d="M304.568 172.192V152.759C304.568 151.681 303.68 150.807 302.584 150.807H284.384C283.288 150.807 282.4 151.681 282.4 152.759V172.192C282.4 173.27 283.288 174.145 284.384 174.145H302.584C303.68 174.145 304.568 173.27 304.568 172.192Z" fill="#333399"/>
<path opacity="0.3" d="M304.568 172.192V152.759C304.568 151.681 303.68 150.807 302.584 150.807H284.384C283.288 150.807 282.4 151.681 282.4 152.759V172.192C282.4 173.27 283.288 174.145 284.384 174.145H302.584C303.68 174.145 304.568 173.27 304.568 172.192Z" fill="white"/>
<path d="M293.48 48.983V38.4873C293.48 35.278 290.837 32.6764 287.576 32.6764L92.2723 32.6764C89.0116 32.6764 86.3683 35.278 86.3683 38.4873V48.983C86.3683 52.1923 89.0116 54.7939 92.2723 54.7939L287.576 54.7939C290.837 54.7939 293.48 52.1923 293.48 48.983Z" fill="#333399"/>
<path opacity="0.5" d="M293.48 48.983V38.4873C293.48 35.278 290.837 32.6764 287.576 32.6764L92.2723 32.6764C89.0116 32.6764 86.3683 35.278 86.3683 38.4873V48.983C86.3683 52.1923 89.0116 54.7939 92.2723 54.7939L287.576 54.7939C290.837 54.7939 293.48 52.1923 293.48 48.983Z" fill="white"/>
<path d="M256.528 58.4944V50.8805H200.328V58.4944H256.528Z" fill="#333399"/>
<path opacity="0.5" d="M256.528 58.4944V50.8805H200.328V58.4944H256.528Z" fill="white"/>
<path d="M313.632 16.3066V5.81087C313.632 2.60162 310.989 0 307.728 0L112.424 0C109.163 0 106.52 2.60162 106.52 5.81087V16.3066C106.52 19.5159 109.163 22.1175 112.424 22.1175L307.728 22.1175C310.989 22.1175 313.632 19.5159 313.632 16.3066Z" fill="#333399"/>
<path d="M104.288 116.303C103.584 117.878 102.808 119.579 102.128 121.24C101.448 122.902 100.744 124.61 100.128 126.311C98.8643 129.627 97.8509 133.029 97.0962 136.492L96.8642 137.752L96.7842 138.224C96.7842 138.358 96.7842 138.531 96.7362 138.689C96.7058 139.455 96.7219 140.223 96.7842 140.988C96.9362 142.649 97.2082 144.429 97.5842 146.208C98.2562 149.775 99.1122 153.452 99.9842 157.074L95.8802 158.649C93.9672 155.216 92.3379 151.638 91.0083 147.948C90.3077 146.028 89.7411 144.063 89.3123 142.067C89.072 140.962 88.9222 139.84 88.8643 138.712C88.8643 138.397 88.8643 138.098 88.8643 137.76C88.8643 137.421 88.8643 137.043 88.9203 136.823L89.0803 135.248C89.3193 133.22 89.6853 131.208 90.1763 129.224C90.6243 127.256 91.2003 125.343 91.7763 123.453C92.3523 121.563 93.0723 119.705 93.8322 117.878C94.2082 116.965 94.6322 116.059 95.0002 115.154C95.3682 114.248 95.8002 113.382 96.3122 112.414L104.288 116.303Z" fill="#E4897B"/>
<path d="M99.768 156.011L102.888 159.011L96.08 162.161C96.08 162.161 94.432 159.318 95.576 156.751L99.768 156.011Z" fill="#E4897B"/>
<path d="M105.408 163.475L99.6559 165.79L96.0879 162.129L102.888 159.011L105.408 163.475Z" fill="#E4897B"/>
<path opacity="0.4" d="M221.928 160.247C210.609 158.996 199.92 154.47 191.214 147.241C182.508 140.013 176.175 130.406 173.015 119.635C169.856 108.864 170.012 97.4133 173.463 86.7297C176.915 76.0462 183.508 66.6098 192.408 59.6133C201.308 52.6169 212.115 48.3747 223.464 47.4229C234.814 46.4711 246.195 48.8525 256.169 54.266C266.144 59.6795 274.263 67.8821 279.502 77.8369C284.74 87.7916 286.862 99.0515 285.6 110.193C284.761 117.596 282.448 124.763 278.794 131.285C275.14 137.808 270.215 143.557 264.302 148.206C258.389 152.854 251.603 156.31 244.332 158.376C237.062 160.442 229.448 161.078 221.928 160.247Z" fill="#FAFAFA"/>
<path opacity="0.4" d="M263.832 59.2416L176.232 128.129C175.864 127.342 175.504 126.555 175.168 125.767C172.972 120.626 171.567 115.191 171 109.642L246.664 50.1395C252.876 52.179 258.684 55.2582 263.832 59.2416Z" fill="#FAFAFA"/>
<path opacity="0.4" d="M284.048 89.4221L201.688 154.184C193.864 150.17 187.083 144.437 181.872 137.429L271.8 66.7062C277.597 73.2548 281.787 81.0267 284.048 89.4221Z" fill="#FAFAFA"/>
<path d="M163.512 82.2413L162.752 81.9893C164.068 78.1666 165.723 74.4649 167.696 70.9266L168.392 71.3046C166.445 74.8032 164.812 78.4627 163.512 82.2413ZM173.224 63.8638L172.576 63.3993C179.15 54.6498 187.755 47.5741 197.672 42.762L198.032 43.4707C188.227 48.233 179.722 55.2331 173.224 63.8874V63.8638ZM260.896 44.5494C258.282 43.1693 255.577 41.962 252.8 40.9353L253.088 40.1952C255.892 41.2459 258.623 42.4769 261.264 43.8801L260.896 44.5494Z" fill="#333399"/>
<path opacity="0.3" d="M163.512 82.2413L162.752 81.9893C164.068 78.1666 165.723 74.4649 167.696 70.9266L168.392 71.3046C166.445 74.8032 164.812 78.4627 163.512 82.2413ZM173.224 63.8638L172.576 63.3993C179.15 54.6498 187.755 47.5741 197.672 42.762L198.032 43.4707C188.227 48.233 179.722 55.2331 173.224 63.8874V63.8638ZM260.896 44.5494C258.282 43.1693 255.577 41.962 252.8 40.9353L253.088 40.1952C255.892 41.2459 258.623 42.4769 261.264 43.8801L260.896 44.5494Z" fill="black"/>
<path d="M287.896 74.9501C280.488 59.8287 267.452 48.0929 251.491 42.1755C235.529 36.2581 217.866 36.613 202.163 43.1667C186.46 49.7203 173.922 61.9701 167.147 77.3764C160.373 92.7828 159.882 110.164 165.776 125.917C160.432 127.76 155.152 129.736 149.904 131.775C142.336 134.731 134.837 137.817 127.408 141.035C119.984 144.271 112.592 147.57 105.272 151.019C101.6 152.712 97.9761 154.499 94.3201 156.231C92.4182 157.036 90.695 158.199 89.2481 159.656C88.4651 160.463 87.7756 161.353 87.1921 162.31C86.4802 163.441 85.9411 164.67 85.5921 165.955C84.9901 168.272 85.2505 170.725 86.326 172.87C87.4015 175.014 89.2213 176.709 91.4561 177.648C92.6971 178.16 94.0065 178.494 95.3441 178.64C96.4738 178.766 97.6144 178.766 98.7441 178.64C100.797 178.395 102.781 177.756 104.584 176.758C108.208 174.955 111.856 173.215 115.456 171.365C122.656 167.751 129.856 163.979 136.968 160.152C144.08 156.326 151.2 152.318 158.144 148.208C162.944 145.35 167.792 142.429 172.544 139.374C181.669 153.552 195.986 163.731 212.529 167.802C229.072 171.874 246.572 169.525 261.404 161.243C276.235 152.961 287.26 139.38 292.195 123.315C297.13 107.25 295.597 89.9324 287.912 74.9501H287.896ZM251.528 150.168C242.231 154.685 231.782 156.387 221.502 155.059C211.222 153.731 201.573 149.433 193.775 142.708C185.977 135.983 180.381 127.133 177.693 117.278C175.005 107.422 175.346 97.0036 178.674 87.3392C182.002 77.6748 188.167 69.1985 196.389 62.9823C204.611 56.7662 214.522 53.0891 224.867 52.4162C235.213 51.7433 245.528 54.1047 254.51 59.2018C263.492 64.299 270.737 71.903 275.328 81.0523C278.377 87.1285 280.18 93.7363 280.634 100.498C281.088 107.26 280.184 114.044 277.974 120.463C275.764 126.881 272.291 132.808 267.753 137.905C263.216 143.002 257.702 147.169 251.528 150.168Z" fill="#333399"/>
<path opacity="0.3" d="M287.896 74.9501C280.488 59.8287 267.452 48.0929 251.491 42.1755C235.529 36.2581 217.866 36.613 202.163 43.1667C186.46 49.7203 173.922 61.9701 167.147 77.3764C160.373 92.7828 159.882 110.164 165.776 125.917C160.432 127.76 155.152 129.736 149.904 131.775C142.336 134.731 134.837 137.817 127.408 141.035C119.984 144.271 112.592 147.57 105.272 151.019C101.6 152.712 97.9761 154.499 94.3201 156.231C92.4182 157.036 90.695 158.199 89.2481 159.656C88.4651 160.463 87.7756 161.353 87.1921 162.31C86.4802 163.441 85.9411 164.67 85.5921 165.955C84.9901 168.272 85.2505 170.725 86.326 172.87C87.4015 175.014 89.2213 176.709 91.4561 177.648C92.6971 178.16 94.0065 178.494 95.3441 178.64C96.4738 178.766 97.6144 178.766 98.7441 178.64C100.797 178.395 102.781 177.756 104.584 176.758C108.208 174.955 111.856 173.215 115.456 171.365C122.656 167.751 129.856 163.979 136.968 160.152C144.08 156.326 151.2 152.318 158.144 148.208C162.944 145.35 167.792 142.429 172.544 139.374C181.669 153.552 195.986 163.731 212.529 167.802C229.072 171.874 246.572 169.525 261.404 161.243C276.235 152.961 287.26 139.38 292.195 123.315C297.13 107.25 295.597 89.9324 287.912 74.9501H287.896ZM251.528 150.168C242.231 154.685 231.782 156.387 221.502 155.059C211.222 153.731 201.573 149.433 193.775 142.708C185.977 135.983 180.381 127.133 177.693 117.278C175.005 107.422 175.346 97.0036 178.674 87.3392C182.002 77.6748 188.167 69.1985 196.389 62.9823C204.611 56.7662 214.522 53.0891 224.867 52.4162C235.213 51.7433 245.528 54.1047 254.51 59.2018C263.492 64.299 270.737 71.903 275.328 81.0523C278.377 87.1285 280.18 93.7363 280.634 100.498C281.088 107.26 280.184 114.044 277.974 120.463C275.764 126.881 272.291 132.808 267.753 137.905C263.216 143.002 257.702 147.169 251.528 150.168Z" fill="black"/>
<path d="M126.4 88.1857C126.4 88.6503 126.648 89.0282 126.96 89.0282C127.272 89.0282 127.52 88.6503 127.52 88.1857C127.52 87.7212 127.272 87.3432 126.96 87.3432C126.648 87.3432 126.4 87.7527 126.4 88.1857Z" fill="#263238"/>
<path d="M126.624 89.0286C127.19 90.4546 127.952 91.7978 128.888 93.0206C128.564 93.2485 128.194 93.4039 127.803 93.476C127.412 93.5481 127.009 93.5351 126.624 93.438V89.0286Z" fill="#DE5753"/>
<path d="M124.744 85.5956C124.699 85.5957 124.655 85.5858 124.615 85.5667C124.575 85.5476 124.54 85.5198 124.512 85.4854C124.47 85.4253 124.454 85.3517 124.466 85.2799C124.478 85.2081 124.517 85.1435 124.576 85.0996C124.928 84.8366 125.34 84.6613 125.776 84.5887C126.212 84.516 126.659 84.5481 127.08 84.6823C127.118 84.6924 127.153 84.7102 127.183 84.7346C127.214 84.7589 127.239 84.7893 127.256 84.8237C127.274 84.858 127.284 84.8957 127.286 84.9342C127.288 84.9727 127.282 85.0111 127.268 85.0471C127.254 85.0831 127.232 85.1157 127.204 85.143C127.177 85.1702 127.144 85.1915 127.107 85.2053C127.071 85.2192 127.031 85.2253 126.992 85.2234C126.953 85.2215 126.915 85.2115 126.88 85.1941C126.546 85.0932 126.192 85.0727 125.848 85.1344C125.504 85.1961 125.181 85.338 124.904 85.5484C124.857 85.5794 124.801 85.5958 124.744 85.5956Z" fill="#263238"/>
<path d="M110.24 91.6898C111.04 95.918 111.92 103.674 108.912 106.5C108.912 106.5 110.088 110.792 118.08 110.792C126.88 110.792 122.272 106.5 122.272 106.5C117.472 105.367 117.608 101.871 118.44 98.5793L110.24 91.6898Z" fill="#E4897B"/>
<path d="M105.32 108.729C106.272 107.272 104.672 103.737 104.672 103.737C104.672 103.737 118.816 100.233 124.6 105.611C125.8 106.721 124.472 108.359 124.472 108.359L105.32 108.729Z" fill="#333399"/>
<path opacity="0.1" d="M105.32 108.729C106.272 107.272 104.672 103.737 104.672 103.737C104.672 103.737 118.816 100.233 124.6 105.611C125.8 106.721 124.472 108.359 124.472 108.359L105.32 108.729Z" fill="black"/>
<path d="M81.9201 269.377C81.1761 269.377 79.9841 268.157 79.6321 267.7C79.617 267.678 79.6089 267.652 79.6089 267.626C79.6089 267.599 79.617 267.573 79.6321 267.551C79.645 267.529 79.6637 267.511 79.6862 267.498C79.7088 267.486 79.7343 267.479 79.7601 267.48C79.8481 267.48 81.8081 267.653 82.3441 268.338C82.4024 268.41 82.444 268.494 82.4661 268.584C82.4882 268.674 82.4902 268.767 82.4721 268.858C82.4651 268.975 82.4214 269.087 82.3469 269.179C82.2723 269.271 82.1707 269.337 82.0561 269.37L81.9201 269.377ZM80.0641 267.803C80.6481 268.464 81.5841 269.212 81.9841 269.118C81.9841 269.118 82.1441 269.078 82.1921 268.826C82.2026 268.774 82.2009 268.719 82.187 268.668C82.1732 268.616 82.1476 268.568 82.1121 268.527C81.5195 268.085 80.8064 267.828 80.0641 267.787V267.803Z" fill="#333399"/>
<path d="M80.1519 267.787C80.0083 267.801 79.8636 267.801 79.7199 267.787C79.6946 267.785 79.6705 267.776 79.6506 267.761C79.6306 267.745 79.6158 267.724 79.6079 267.701C79.5967 267.679 79.5908 267.654 79.5908 267.63C79.5908 267.605 79.5967 267.581 79.6079 267.559C79.6639 267.512 80.8399 266.307 81.7279 266.307C81.8342 266.304 81.9398 266.324 82.0377 266.365C82.1356 266.406 82.2236 266.466 82.2959 266.543C82.3756 266.609 82.4301 266.699 82.4504 266.799C82.4708 266.899 82.4558 267.004 82.4079 267.094C82.1759 267.535 80.9519 267.787 80.1519 267.787ZM80.0479 267.512C80.8479 267.512 82.0079 267.267 82.1999 266.921C82.1999 266.921 82.2559 266.819 82.1279 266.693C82.0814 266.643 82.0243 266.604 81.9607 266.578C81.8972 266.552 81.8286 266.54 81.7599 266.543C81.1041 266.691 80.5081 267.028 80.0479 267.512Z" fill="#333399"/>
<path d="M134.712 287.251C134.105 287.247 133.5 287.192 132.904 287.086C132.874 287.08 132.847 287.065 132.828 287.042C132.809 287.018 132.799 286.99 132.8 286.96C132.795 286.933 132.799 286.905 132.81 286.88C132.822 286.854 132.84 286.833 132.864 286.818C132.952 286.771 135 285.613 135.984 285.881C136.075 285.901 136.161 285.94 136.237 285.994C136.312 286.048 136.376 286.117 136.424 286.196C136.486 286.284 136.52 286.388 136.52 286.495C136.52 286.602 136.486 286.707 136.424 286.795C136.192 287.149 135.464 287.251 134.712 287.251ZM133.36 286.881C134.448 287.039 135.936 287.031 136.208 286.653C136.248 286.606 136.28 286.519 136.208 286.354C136.147 286.256 136.049 286.185 135.936 286.157C135.312 285.999 134.072 286.519 133.36 286.881Z" fill="#333399"/>
<path d="M132.936 287.094C132.91 287.101 132.882 287.101 132.856 287.094C132.834 287.08 132.817 287.06 132.807 287.036C132.796 287.012 132.794 286.985 132.8 286.96C132.854 286.141 133.174 285.36 133.712 284.732C133.821 284.639 133.949 284.571 134.087 284.532C134.225 284.492 134.37 284.483 134.512 284.504C134.896 284.504 135.008 284.732 135.032 284.881C135.136 285.535 133.736 286.787 133.024 287.102L132.936 287.094ZM134.368 284.732C134.192 284.731 134.021 284.792 133.888 284.905C133.436 285.402 133.155 286.028 133.088 286.692C133.808 286.259 134.768 285.283 134.688 284.889C134.688 284.889 134.688 284.755 134.416 284.732H134.368Z" fill="#333399"/>
<path d="M126.472 286.952H132.352L132.936 273.559H127.056L126.472 286.952Z" fill="#E4897B"/>
<path d="M74.1123 263.961L79.0243 267.126L89.8723 258.11L84.9523 254.937L74.1123 263.961Z" fill="#E4897B"/>
<path d="M79.8321 266.827L74.7281 262.709C74.6379 262.636 74.5248 262.596 74.4081 262.596C74.2914 262.596 74.1783 262.636 74.0881 262.709L69.8801 265.961C69.7785 266.041 69.6964 266.142 69.6399 266.257C69.5835 266.372 69.5542 266.498 69.5542 266.626C69.5542 266.754 69.5835 266.88 69.6399 266.996C69.6964 267.111 69.7785 267.212 69.8801 267.292C71.6881 268.701 72.6401 269.299 74.8881 271.11C76.2721 272.221 79.6881 275.622 81.6161 277.157C83.5441 278.693 85.3121 277.039 84.6721 276.244C81.8001 272.662 80.6721 269.599 80.3441 267.701C80.2874 267.358 80.1053 267.047 79.8321 266.827Z" fill="#263238"/>
<path d="M132.312 286.283H125.912C125.795 286.283 125.682 286.322 125.591 286.394C125.499 286.465 125.435 286.565 125.408 286.676L124.248 291.818C124.219 291.943 124.219 292.072 124.248 292.197C124.277 292.321 124.335 292.438 124.417 292.537C124.498 292.636 124.602 292.716 124.72 292.77C124.837 292.824 124.966 292.852 125.096 292.849C127.408 292.81 130.752 292.676 133.664 292.676C137.064 292.676 140.008 292.857 143.992 292.857C146.392 292.857 147.08 290.456 146.064 290.243C141.472 289.251 137.712 289.149 133.744 286.732C133.318 286.454 132.822 286.299 132.312 286.283Z" fill="#263238"/>
<path d="M97.3281 108.225C92.2321 110.587 89.3281 126.413 89.3281 126.413L101.784 131.303C103.607 126.921 105.081 122.406 106.192 117.799C107.904 110.508 102.544 105.784 97.3281 108.225Z" fill="#263238"/>
<path d="M103.936 117.146C100.856 120.217 99.448 126.232 98.832 130.145L101.816 131.319C103.587 127.061 105.031 122.679 106.136 118.209C105.872 116.539 105.216 115.87 103.936 117.146Z" fill="#203048"/>
<path d="M131.312 108.114C131.312 108.114 137.568 115.075 131.664 158.113H100.232C100.016 153.389 103.048 130.2 98.3921 107.823C101.866 107.16 105.38 106.724 108.912 106.516C113.361 106.256 117.823 106.256 122.272 106.516C125.323 106.818 128.345 107.353 131.312 108.114Z" fill="#263238"/>
<path d="M134.184 124.822L128.888 115.838C127.866 120.03 127.448 124.343 127.648 128.649C127.792 131.736 130.664 143.168 133.248 144.838C133.934 138.188 134.246 131.506 134.184 124.822Z" fill="#203048"/>
<path d="M134.92 114.264C135.72 118.091 136.52 122.012 137.376 125.854C138.232 129.697 139.12 133.555 140.152 137.279C140.416 138.2 140.664 139.145 140.952 140.027L141.168 140.704L141.272 141.043V141.004C141.216 140.933 141.152 140.925 141.2 141.004C141.529 141.357 141.949 141.616 142.416 141.752C143.172 142.029 143.951 142.242 144.744 142.389C148.526 142.979 152.356 143.224 156.184 143.122L156.944 147.405C155.872 147.743 154.872 147.988 153.816 148.232C152.76 148.476 151.72 148.68 150.656 148.838C148.455 149.199 146.223 149.346 143.992 149.279C142.752 149.246 141.519 149.088 140.312 148.806C138.777 148.476 137.335 147.817 136.088 146.877C135.273 146.23 134.601 145.426 134.112 144.515C133.984 144.279 133.872 144.011 133.768 143.783L133.624 143.413L133.328 142.626C132.92 141.626 132.584 140.641 132.216 139.657C130.864 135.72 129.736 131.744 128.744 127.776C127.752 123.807 126.896 119.847 126.184 115.776L134.92 114.264Z" fill="#E4897B"/>
<path d="M123.464 112.335C121.808 117.619 128.52 133.374 128.52 133.374L141.888 130.067C141.888 130.067 141.376 121.878 138.328 115.382C133.736 105.587 125.448 105.997 123.464 112.335Z" fill="#263238"/>
<path d="M156.072 143.121L162.728 142.956L159.528 149.775C159.528 149.775 156.816 150.129 154.592 146.531L152.248 143.775L154.944 143.247C155.315 143.171 155.693 143.128 156.072 143.121Z" fill="#E4897B"/>
<path d="M166.928 144.224L163.12 149.877L159.528 149.775L162.728 142.956L166.928 144.224Z" fill="#E4897B"/>
<path d="M132.936 273.559L132.632 280.464H126.752L127.056 273.559H132.936Z" fill="#CE6F64"/>
<path d="M84.9523 254.937L89.8723 258.11L84.2723 262.756L79.3604 259.591L84.9523 254.937Z" fill="#CE6F64"/>
<path d="M110.608 87.1859C110.96 92.9101 110.872 96.288 113.808 99.2249C118.224 103.658 125.416 101.036 126.808 95.288C128.064 90.1386 127.28 81.6349 121.584 79.3515C120.327 78.8522 118.962 78.6753 117.617 78.8376C116.272 78.9998 114.99 79.4957 113.893 80.2789C112.796 81.062 111.919 82.1067 111.344 83.3148C110.77 84.523 110.516 85.855 110.608 87.1859Z" fill="#E4897B"/>
<path d="M103.76 86.1782C105.208 91.3985 108.616 97.4141 113.024 97.7999C118.496 98.2724 120.968 92.7056 121.688 86.9577C124.968 84.7452 123.248 82.3122 126.536 82.0051C130.76 81.6114 129.408 74.0053 123.848 72.7849C123.848 72.7849 125.712 76.21 121.8 74.4777C118.08 72.7375 113.946 72.0323 109.848 72.4384C109.848 72.4384 114.84 74.8951 109.96 75.9895C105.08 77.084 103.624 80.0445 105.872 81.8319C105.872 81.8397 102.808 82.7452 103.76 86.1782Z" fill="#263238"/>
<path d="M118.352 88.139C118.46 89.5619 119.042 90.9099 120.008 91.9735C121.288 93.3672 122.624 92.501 122.848 90.8082C123.056 89.2885 122.632 86.7295 121.064 85.9579C119.496 85.1863 118.248 86.4225 118.352 88.139Z" fill="#E4897B"/>
<path d="M120.512 158.113C120.512 158.113 126.24 198.939 121.728 215.301C114.576 241.206 87.232 263.071 87.232 263.071L77.96 257.087C77.96 257.087 101.248 238.623 104.096 216.931C106.656 197.459 100.232 173.908 100.232 158.105L120.512 158.113Z" fill="#333399"/>
<path opacity="0.1" d="M120.512 158.113C120.512 158.113 126.24 198.939 121.728 215.301C114.576 241.206 87.232 263.071 87.232 263.071L77.96 257.087C77.96 257.087 101.248 238.623 104.096 216.931C106.656 197.459 100.232 173.908 100.232 158.105L120.512 158.113Z" fill="black"/>
<path d="M122.88 181.451C121.355 179.732 119.677 178.151 117.864 176.727C118.84 189.978 119.64 209.608 118.752 223.552C119.946 220.879 120.941 218.124 121.728 215.308C123.928 207.317 123.696 193.514 122.88 181.451Z" fill="#333399"/>
<path opacity="0.3" d="M122.88 181.451C121.355 179.732 119.677 178.151 117.864 176.727C118.84 189.978 119.64 209.608 118.752 223.552C119.946 220.879 120.941 218.124 121.728 215.308C123.928 207.317 123.696 193.514 122.88 181.451Z" fill="black"/>
<path d="M90.968 261.032C91.008 261.032 87.376 263.394 87.376 263.394L77.248 256.859L80.448 254.253L90.968 261.032Z" fill="#333399"/>
<path opacity="0.3" d="M90.968 261.032C91.008 261.032 87.376 263.394 87.376 263.394L77.248 256.859L80.448 254.253L90.968 261.032Z" fill="black"/>
<path d="M131.664 158.113C131.664 158.113 140.512 195.041 141.136 212.686C141.84 232.465 134.824 279.126 134.824 279.126H124.864C124.864 279.126 123.64 232.103 123.2 214.088C122.712 194.443 111 158.113 111 158.113H131.664Z" fill="#333399"/>
<path opacity="0.1" d="M131.664 158.113C131.664 158.113 140.512 195.041 141.136 212.686C141.84 232.465 134.824 279.126 134.824 279.126H124.864C124.864 279.126 123.64 232.103 123.2 214.088C122.712 194.443 111 158.113 111 158.113H131.664Z" fill="black"/>
<path d="M136.736 275.228C136.784 275.228 136.176 279.291 136.176 279.291H124.064L123.736 275.661L136.736 275.228Z" fill="#333399"/>
<path opacity="0.3" d="M136.736 275.228C136.784 275.228 136.176 279.291 136.176 279.291H124.064L123.736 275.661L136.736 275.228Z" fill="black"/>
<path d="M284.8 122.627C285.48 123.257 286.016 123.792 286.576 124.391C287.136 124.989 287.664 125.572 288.176 126.178C289.216 127.383 290.192 128.651 291.136 129.926C293.021 132.485 294.698 135.186 296.152 138.005L296.448 138.579C296.592 138.858 296.713 139.147 296.808 139.446C297.001 140.022 297.119 140.62 297.16 141.225C297.212 142.293 297.063 143.36 296.72 144.375C296.135 146.059 295.267 147.635 294.152 149.036C292.142 151.577 289.771 153.82 287.112 155.697L285.12 153.445C286.056 152.366 287.032 151.209 287.904 150.052C288.791 148.93 289.593 147.746 290.304 146.508C290.968 145.429 291.459 144.255 291.76 143.028C291.863 142.589 291.882 142.135 291.816 141.69C291.787 141.54 291.739 141.394 291.672 141.257C291.642 141.196 291.607 141.138 291.568 141.083L291.312 140.658C289.769 138.182 288.095 135.788 286.296 133.485C285.408 132.328 284.456 131.217 283.496 130.123C283.024 129.572 282.536 129.036 282.048 128.501C281.56 127.966 281.032 127.43 280.608 127.013L284.8 122.627Z" fill="#E4897B"/>
<path d="M285.888 152.784L279.912 151.823L283.04 156.973C283.04 156.973 286.888 156.839 287.984 154.61L285.888 152.784Z" fill="#E4897B"/>
<path d="M275.496 154.201L278.344 158.382L283.04 156.973L279.912 151.823L275.496 154.201Z" fill="#E4897B"/>
<path d="M285.6 287.181C285.194 287.216 284.788 287.107 284.456 286.874C284.356 286.781 284.282 286.664 284.241 286.534C284.2 286.405 284.195 286.267 284.224 286.134C284.23 286.05 284.259 285.968 284.308 285.899C284.358 285.83 284.425 285.775 284.504 285.741C285.2 285.433 287.024 286.583 287.232 286.717C287.256 286.731 287.274 286.753 287.284 286.778C287.294 286.804 287.296 286.832 287.288 286.859C287.285 286.886 287.273 286.911 287.255 286.931C287.236 286.951 287.211 286.964 287.184 286.969C286.666 287.098 286.134 287.17 285.6 287.181ZM284.8 285.961C284.742 285.952 284.682 285.952 284.624 285.961C284.589 285.977 284.559 286.003 284.538 286.035C284.516 286.067 284.505 286.104 284.504 286.142C284.483 286.23 284.485 286.322 284.51 286.409C284.535 286.495 284.583 286.574 284.648 286.638C284.952 286.906 285.736 286.945 286.784 286.74C286.184 286.35 285.508 286.085 284.8 285.961Z" fill="#333399"/>
<path d="M287.2 286.961H287.128C286.56 286.638 285.464 285.386 285.6 284.701C285.626 284.593 285.687 284.496 285.773 284.425C285.86 284.354 285.967 284.313 286.08 284.307C286.188 284.292 286.298 284.301 286.402 284.334C286.506 284.367 286.601 284.422 286.68 284.496C287.336 285.063 287.344 286.764 287.344 286.858C287.342 286.882 287.335 286.906 287.323 286.926C287.31 286.947 287.293 286.964 287.272 286.976L287.2 286.961ZM286.176 284.599H286.112C285.936 284.599 285.896 284.693 285.88 284.764C285.8 285.166 286.48 286.126 287.048 286.575C287.062 285.914 286.869 285.266 286.496 284.717C286.448 284.673 286.391 284.639 286.329 284.619C286.267 284.599 286.201 284.592 286.136 284.599H286.176Z" fill="#333399"/>
<path d="M258.336 287.182C257.825 287.23 257.314 287.102 256.888 286.82C256.792 286.736 256.718 286.631 256.672 286.513C256.626 286.395 256.61 286.268 256.624 286.142C256.629 286.066 256.654 285.992 256.696 285.927C256.738 285.862 256.796 285.809 256.864 285.772C257.608 285.363 259.992 286.56 260.264 286.709C260.289 286.725 260.309 286.748 260.322 286.774C260.334 286.8 260.339 286.83 260.336 286.859C260.332 286.886 260.318 286.912 260.298 286.932C260.278 286.952 260.252 286.965 260.224 286.969C259.603 287.099 258.971 287.17 258.336 287.182ZM257.272 285.961C257.181 285.955 257.089 285.974 257.008 286.016C256.979 286.03 256.955 286.051 256.938 286.078C256.921 286.104 256.912 286.135 256.912 286.166C256.9 286.248 256.908 286.332 256.936 286.41C256.964 286.488 257.011 286.558 257.072 286.615C257.44 286.938 258.424 286.993 259.752 286.772C258.978 286.366 258.139 286.092 257.272 285.961Z" fill="#333399"/>
<path d="M260.2 286.961H260.136C259.424 286.646 258.008 285.386 258.12 284.701C258.12 284.544 258.264 284.347 258.656 284.307C258.799 284.292 258.944 284.306 259.082 284.348C259.219 284.39 259.347 284.459 259.456 284.551C260.208 285.166 260.352 286.756 260.352 286.827C260.355 286.851 260.352 286.875 260.342 286.898C260.332 286.92 260.316 286.939 260.296 286.953C260.266 286.966 260.232 286.969 260.2 286.961ZM258.768 284.599H258.68C258.424 284.599 258.408 284.725 258.4 284.756C258.336 285.158 259.296 286.158 260 286.591C259.931 285.918 259.651 285.282 259.2 284.772C259.079 284.67 258.927 284.609 258.768 284.599Z" fill="#333399"/>
<path d="M269.656 104.525C269.424 108.084 268.8 115.312 271.576 117.312C271.576 117.312 271.072 120.958 264.52 121.808C257.32 122.729 260.608 118.729 260.608 118.729C264.424 117.296 263.936 114.438 262.896 111.824L269.656 104.525Z" fill="#E4897B"/>
<path d="M254.752 98.2339C254.712 98.234 254.673 98.2256 254.637 98.2093C254.602 98.193 254.57 98.1691 254.544 98.1394C254.315 97.8724 254.026 97.6619 253.699 97.5252C253.373 97.3884 253.018 97.3291 252.664 97.3521C252.627 97.3588 252.588 97.3579 252.551 97.3496C252.514 97.3412 252.479 97.3255 252.448 97.3034C252.418 97.2813 252.392 97.2532 252.373 97.221C252.353 97.1887 252.341 97.153 252.336 97.1158C252.327 97.0418 252.348 96.9672 252.394 96.9082C252.441 96.8493 252.509 96.8107 252.584 96.8009C253.036 96.7633 253.49 96.8339 253.908 97.0067C254.326 97.1795 254.695 97.4492 254.984 97.793C255.019 97.834 255.041 97.8839 255.048 97.9368C255.055 97.9897 255.047 98.0436 255.024 98.0921C255.002 98.1406 254.966 98.1819 254.92 98.2112C254.875 98.2404 254.822 98.2565 254.768 98.2575L254.752 98.2339Z" fill="#263238"/>
<path d="M253.504 101.722C253.22 102.852 252.782 103.938 252.2 104.95C252.467 105.092 252.763 105.174 253.065 105.19C253.368 105.206 253.671 105.157 253.952 105.045L253.504 101.722Z" fill="#DE5753"/>
<path d="M253.824 100.856C253.888 101.329 253.688 101.738 253.376 101.785C253.064 101.832 252.752 101.47 252.696 100.998C252.64 100.525 252.832 100.116 253.144 100.077C253.456 100.037 253.768 100.352 253.824 100.856Z" fill="#263238"/>
<path d="M253.288 100.085L252.096 99.9035C252.096 99.9035 252.8 100.715 253.288 100.085Z" fill="#263238"/>
<path d="M266.792 286.835H260.792L260.392 273.174H266.392L266.792 286.835Z" fill="#E4897B"/>
<path d="M294.032 286.835H288.032L286.104 273.174H292.104L294.032 286.835Z" fill="#E4897B"/>
<path d="M287.664 286.173H294.4C294.515 286.172 294.626 286.212 294.713 286.286C294.8 286.36 294.856 286.463 294.872 286.575L295.672 291.827C295.686 291.959 295.673 292.093 295.631 292.22C295.589 292.346 295.521 292.463 295.43 292.562C295.34 292.661 295.229 292.74 295.105 292.794C294.981 292.847 294.847 292.875 294.712 292.874C292.368 292.835 291.232 292.701 288.272 292.701C286.448 292.701 283.784 292.882 281.272 292.882C278.76 292.882 278.624 290.433 279.672 290.213C284.368 289.22 285.112 287.85 286.688 286.535C286.963 286.311 287.307 286.183 287.664 286.173Z" fill="#263238"/>
<path d="M260.592 286.173H267.32C267.436 286.172 267.548 286.212 267.637 286.286C267.725 286.36 267.783 286.462 267.8 286.575L268.6 291.827C268.615 291.959 268.601 292.093 268.559 292.22C268.518 292.347 268.449 292.463 268.359 292.562C268.268 292.661 268.157 292.74 268.033 292.794C267.91 292.847 267.776 292.875 267.64 292.874C265.296 292.835 264.16 292.701 261.2 292.701C259.376 292.701 255.6 292.882 253.088 292.882C250.576 292.882 250.44 290.433 251.488 290.213C256.184 289.22 258.032 287.85 259.616 286.535C259.891 286.311 260.235 286.183 260.592 286.173Z" fill="#263238"/>
<path d="M260.392 273.174L260.6 280.221H266.6L266.392 273.174H260.392Z" fill="#CE6F64"/>
<path d="M292.104 273.174H286.104L287.104 280.221H293.096L292.104 273.174Z" fill="#CE6F64"/>
<path d="M269.736 97.1553C270.144 102.998 270.44 105.462 267.864 108.824C263.984 113.871 256.608 113.092 254.432 107.486C252.472 102.439 252.136 93.7381 257.592 90.6831C258.792 90.006 260.149 89.6421 261.532 89.6256C262.915 89.6092 264.28 89.9409 265.496 90.5893C266.713 91.2376 267.741 92.1811 268.483 93.3302C269.225 94.4794 269.656 95.796 269.736 97.1553Z" fill="#E4897B"/>
<path d="M273.192 102.58C276.52 104.407 278.992 99.9032 278.992 99.9032C278.992 99.9032 273.024 100.541 273.56 97.045C274.264 92.4073 270.888 86.7697 262.424 87.4941C261.952 87.5334 261.504 87.5886 261.064 87.6594C260.178 87.246 259.176 87.1393 258.221 87.3566C257.265 87.5738 256.412 88.1022 255.8 88.8562C253.4 89.0531 250.16 91.8719 252.36 95.5962C252.515 95.1683 252.754 94.7748 253.064 94.4388C253.248 96.6198 255.184 100.084 257.6 100.313C258.12 103.297 256.104 106.753 256.8 109.871C257.832 114.367 265.536 115.383 265.536 115.383C265.27 114.822 265.172 114.198 265.251 113.583C265.33 112.969 265.584 112.389 265.984 111.911C271.216 114.273 274.664 111.966 274.664 111.966C271.096 110.659 272.176 108.328 272.176 108.328C273.408 108.867 274.804 108.914 276.071 108.46C277.337 108.006 278.376 107.087 278.968 105.895C277.783 105.951 276.607 105.667 275.582 105.079C274.557 104.49 273.727 103.623 273.192 102.58Z" fill="#263238"/>
<path d="M259.688 101.21C259.702 101.771 259.604 102.329 259.398 102.852C259.192 103.375 258.883 103.853 258.488 104.258C257.432 105.336 256.136 104.58 255.784 103.202C255.472 101.958 255.648 99.9034 257.024 99.3365C257.327 99.2193 257.655 99.1786 257.978 99.2179C258.301 99.2572 258.609 99.3753 258.873 99.5615C259.138 99.7477 259.351 99.9961 259.494 100.284C259.636 100.572 259.703 100.89 259.688 101.21Z" fill="#E4897B"/>
<path d="M264.672 155.642C264.672 155.642 266.192 194.507 269.808 217.325C272.72 235.765 285.656 278.851 285.656 278.851H293.832C293.832 278.851 287.088 237.238 285.608 219.01C281.864 172.877 291.584 162.972 282.408 153.366L264.672 155.642Z" fill="#263238"/>
<path d="M271.504 167.933C271.504 167.933 267.808 167.303 265.648 174.232C266.448 187.358 267.816 204.775 269.808 217.325C270.248 220.121 270.92 223.491 271.744 227.183C270.184 205.011 271.504 167.933 271.504 167.933Z" fill="#161F33"/>
<path d="M258.296 156.461C258.296 156.461 251.56 199.459 251.952 217.451C252.36 236.167 259.328 278.867 259.328 278.867H267.432C267.432 278.867 266.152 237.277 266.864 218.9C267.664 198.861 275.976 154.201 275.976 154.201L258.296 156.461Z" fill="#263238"/>
<path d="M295.016 279.229H284.144L283.296 275.638L294.936 275.717L295.016 279.229Z" fill="#333399"/>
<path opacity="0.2" d="M295.016 279.229H284.144L283.296 275.638L294.936 275.717L295.016 279.229Z" fill="black"/>
<path d="M282 117.32C285.128 117.619 289.88 126.367 289.88 126.367L281.984 132.327C281.984 132.327 275.448 126.682 276.224 123.508C277.032 120.209 279 117.044 282 117.32Z" fill="#333399"/>
<path opacity="0.1" d="M282 117.32C285.128 117.619 289.88 126.367 289.88 126.367L281.984 132.327C281.984 132.327 275.448 126.682 276.224 123.508C277.032 120.209 279 117.044 282 117.32Z" fill="black"/>
<path d="M279.64 121.084C278.843 120.872 278.017 120.782 277.192 120.816C276.772 121.677 276.448 122.58 276.224 123.509C275.424 126.658 281.984 132.328 281.984 132.328L282.568 131.887L279.64 121.084Z" fill="#333399"/>
<path opacity="0.3" d="M279.64 121.084C278.843 120.872 278.017 120.782 277.192 120.816C276.772 121.677 276.448 122.58 276.224 123.509C275.424 126.658 281.984 132.328 281.984 132.328L282.568 131.887L279.64 121.084Z" fill="black"/>
<path d="M255.616 129.485C253.336 135.162 250.936 140.934 249.024 146.626C248.896 146.989 248.792 147.335 248.68 147.689L248.408 148.563C248.334 148.821 248.334 149.093 248.408 149.351C248.86 150.335 249.576 151.179 250.48 151.792C252.872 153.481 255.478 154.855 258.232 155.878L257.512 158.776C254.124 158.336 250.848 157.284 247.848 155.673C246.002 154.703 244.499 153.204 243.536 151.374C242.984 150.205 242.792 148.902 242.984 147.626C243.003 147.47 243.029 147.315 243.064 147.162L243.144 146.831L243.28 146.233C243.376 145.831 243.472 145.445 243.576 145.052C244.376 141.902 245.4 138.91 246.48 135.942C247.56 132.973 248.688 130.044 249.96 127.123L255.616 129.485Z" fill="#E4897B"/>
<path d="M250.76 121.517C250.76 121.517 248.056 122.863 258.296 156.461L282.44 153.358C280.744 143.737 279.944 137.776 282 117.32C278.538 117.076 275.063 117.076 271.6 117.32C267.914 117.531 264.249 118.005 260.632 118.737C256 119.753 250.76 121.517 250.76 121.517Z" fill="#333399"/>
<path opacity="0.1" d="M250.76 121.517C250.76 121.517 248.056 122.863 258.296 156.461L282.44 153.358C280.744 143.737 279.944 137.776 282 117.32C278.538 117.076 275.063 117.076 271.6 117.32C267.914 117.531 264.249 118.005 260.632 118.737C256 119.753 250.76 121.517 250.76 121.517Z" fill="black"/>
<path d="M282.616 151.918L284 153.894C284.104 154.051 283.928 154.24 283.656 154.28L258.336 157.54C258.12 157.54 257.92 157.484 257.888 157.351L257.392 155.248C257.352 155.107 257.528 154.957 257.768 154.925L282.216 151.776C282.29 151.764 282.365 151.771 282.435 151.796C282.505 151.821 282.567 151.863 282.616 151.918Z" fill="#333399"/>
<path opacity="0.2" d="M282.616 151.918L284 153.894C284.104 154.051 283.928 154.24 283.656 154.28L258.336 157.54C258.12 157.54 257.92 157.484 257.888 157.351L257.392 155.248C257.352 155.107 257.528 154.957 257.768 154.925L282.216 151.776C282.29 151.764 282.365 151.771 282.435 151.796C282.505 151.821 282.567 151.863 282.616 151.918Z" fill="black"/>
<path d="M279.688 155.027L280.344 154.941C280.472 154.941 280.56 154.846 280.544 154.768L279.872 152.043C279.846 151.997 279.805 151.96 279.756 151.94C279.706 151.92 279.651 151.918 279.6 151.933L278.944 152.012C278.808 152.012 278.72 152.106 278.744 152.193L279.416 154.909C279.432 154.996 279.56 155.043 279.688 155.027Z" fill="#263238"/>
<path d="M263.816 157.043L264.472 156.957C264.6 156.957 264.696 156.862 264.672 156.784L264 154.059C263.974 154.013 263.933 153.977 263.884 153.956C263.835 153.934 263.78 153.929 263.728 153.941L263.072 154.028C262.944 154.028 262.848 154.122 262.872 154.201L263.544 156.925C263.56 157.043 263.688 157.091 263.816 157.043Z" fill="#263238"/>
<path d="M251.888 132.918C252.552 135.957 253.488 139.807 254.856 144.681L255.152 132.327L251.888 132.918Z" fill="#333399"/>
<path opacity="0.3" d="M251.888 132.918C252.552 135.957 253.488 139.807 254.856 144.681L255.152 132.327L251.888 132.918Z" fill="black"/>
<path d="M250.76 121.517C247.76 122.706 245.16 132.808 245.16 132.808L255.48 137.753C255.48 137.753 260.464 125.399 258.232 122.989C256 120.58 254.216 120.155 250.76 121.517Z" fill="#333399"/>
<path opacity="0.1" d="M250.76 121.517C247.76 122.706 245.16 132.808 245.16 132.808L255.48 137.753C255.48 137.753 260.464 125.399 258.232 122.989C256 120.58 254.216 120.155 250.76 121.517Z" fill="black"/>
<path d="M268.816 279.229H257.944L257.096 275.638L269.2 275.717L268.816 279.229Z" fill="#333399"/>
<path opacity="0.2" d="M268.816 279.229H257.944L257.096 275.638L269.2 275.717L268.816 279.229Z" fill="black"/>
<path d="M258.4 154.902L257.528 154.547C257.314 154.461 257.08 154.433 256.851 154.465C256.622 154.496 256.405 154.587 256.223 154.728C256.041 154.869 255.9 155.054 255.815 155.266C255.729 155.478 255.702 155.708 255.736 155.933L256.368 160.035C256.398 160.241 256.475 160.437 256.591 160.61C256.708 160.782 256.862 160.927 257.043 161.034C257.224 161.141 257.426 161.207 257.636 161.228C257.846 161.249 258.057 161.223 258.256 161.153C258.573 161.04 258.87 160.878 259.136 160.673C259.425 160.437 259.654 160.137 259.804 159.798C259.954 159.459 260.021 159.09 260 158.72L259.912 157.02C259.897 156.56 259.745 156.115 259.477 155.739C259.208 155.362 258.834 155.071 258.4 154.902Z" fill="#E4897B"/>
</svg>
