<svg width="400" height="300" viewBox="0 0 400 300" fill="none" xmlns="http://www.w3.org/2000/svg">
<path d="M400 263.635H0V263.836H400V263.635Z" fill="#E6E6E6"/>
<path d="M61.4078 272.106H46.8398V272.308H61.4078V272.106Z" fill="#E6E6E6"/>
<path d="M95.7198 272.01H67.2798V272.211H95.7198V272.01Z" fill="#E6E6E6"/>
<path d="M135.416 276.713H112.368V276.914H135.416V276.713Z" fill="#E6E6E6"/>
<path d="M210.016 268.121H163.792V268.322H210.016V268.121Z" fill="#E6E6E6"/>
<path d="M342.528 271.623H301.152V271.824H342.528V271.623Z" fill="#E6E6E6"/>
<path d="M296.712 271.623H288.84V271.824H296.712V271.623Z" fill="#E6E6E6"/>
<path d="M362.4 276.608H354.528V276.809H362.4V276.608Z" fill="#E6E6E6"/>
<path d="M189.6 227.722H35.1279C33.9177 227.72 32.7579 227.234 31.903 226.372C31.048 225.51 30.5679 224.342 30.5679 223.124V4.55765C30.5784 3.3466 31.0632 2.18862 31.917 1.33526C32.7708 0.481902 33.9246 0.00207461 35.1279 0H189.6C190.811 0 191.973 0.484422 192.83 1.3467C193.687 2.20898 194.168 3.37847 194.168 4.59792V223.124C194.168 224.343 193.687 225.513 192.83 226.375C191.973 227.237 190.811 227.722 189.6 227.722ZM35.1279 0.161048C33.9708 0.163182 32.8618 0.627334 32.0444 1.45163C31.227 2.27592 30.7679 3.393 30.7679 4.55765V223.124C30.7679 224.288 31.227 225.406 32.0444 226.23C32.8618 227.054 33.9708 227.518 35.1279 227.52H189.6C190.758 227.518 191.867 227.054 192.686 226.23C193.505 225.406 193.966 224.289 193.968 223.124V4.55765C193.966 3.39226 193.505 2.2752 192.686 1.45114C191.867 0.627072 190.758 0.163177 189.6 0.161048H35.1279Z" fill="#E6E6E6"/>
<path d="M362.648 227.722H208.168C206.957 227.72 205.797 227.234 204.94 226.373C204.084 225.511 203.602 224.343 203.6 223.124V4.55765C203.613 3.34586 204.099 2.1879 204.954 1.33476C205.809 0.481621 206.964 0.00205198 208.168 0H362.648C363.85 0.00419086 365.002 0.484955 365.854 1.33809C366.706 2.19122 367.19 3.34799 367.2 4.55765V223.124C367.2 224.34 366.721 225.507 365.868 226.369C365.015 227.231 363.857 227.717 362.648 227.722ZM208.168 0.161048C207.01 0.163177 205.9 0.627072 205.082 1.45114C204.263 2.2752 203.802 3.39226 203.8 4.55765V223.124C203.802 224.289 204.263 225.406 205.082 226.23C205.9 227.054 207.01 227.518 208.168 227.52H362.648C363.806 227.518 364.916 227.054 365.734 226.23C366.553 225.406 367.014 224.289 367.016 223.124V4.55765C367.014 3.39226 366.553 2.2752 365.734 1.45114C364.916 0.627072 363.806 0.163177 362.648 0.161048H208.168Z" fill="#E6E6E6"/>
<path d="M253.592 15.1304H46.0801V109.166H253.592V15.1304Z" fill="#E0E0E0"/>
<path d="M257.944 15.1304H48.1118V109.166H257.944V15.1304Z" fill="#F0F0F0"/>
<path d="M253.592 109.167H46.0801V117.308H253.592V109.167Z" fill="#E0E0E0"/>
<path d="M265.2 109.167H55.3682V117.308H265.2V109.167Z" fill="#EBEBEB"/>
<path d="M251.848 103.03V21.2663L54.2081 21.2663V103.03L251.848 103.03Z" fill="#FAFAFA"/>
<path d="M92.0562 103.03L127.824 21.2663H144.704L108.944 103.03H92.0562Z" fill="white"/>
<path d="M57.0321 88.6486C56.9175 88.6486 56.8076 88.6027 56.7266 88.5212C56.6456 88.4397 56.6001 88.3291 56.6001 88.2137V25.2521C56.6001 25.1367 56.6456 25.0261 56.7266 24.9446C56.8076 24.863 56.9175 24.8172 57.0321 24.8172C57.1467 24.8172 57.2566 24.863 57.3376 24.9446C57.4186 25.0261 57.4641 25.1367 57.4641 25.2521V88.2137C57.4641 88.3291 57.4186 88.4397 57.3376 88.5212C57.2566 88.6027 57.1467 88.6486 57.0321 88.6486Z" fill="#EBEBEB"/>
<path d="M112.568 103.03L148.336 21.2663H154.92L119.152 103.03H112.568Z" fill="white"/>
<path d="M251.856 103.03V21.2663H251.08V103.03H251.856Z" fill="#E0E0E0"/>
<path d="M259.384 29.1098H51.872L51.312 23.6502H258.824L259.384 29.1098Z" fill="#E0E0E0"/>
<path d="M259.384 33.1111H51.872L51.312 27.6436H258.824L259.384 33.1111Z" fill="#E0E0E0"/>
<path d="M259.384 37.9109H51.872L51.312 32.4434H258.824L259.384 37.9109Z" fill="#E0E0E0"/>
<path d="M259.384 43.2497H51.872L51.312 37.7821H258.824L259.384 43.2497Z" fill="#E0E0E0"/>
<path d="M259.384 49.6431H51.872L51.312 44.1836H258.824L259.384 49.6431Z" fill="#E0E0E0"/>
<path d="M259.384 56.8417H51.872L51.312 51.3822H258.824L259.384 56.8417Z" fill="#E0E0E0"/>
<path d="M341.744 22.0714H289.352V91.3865H341.744V22.0714Z" fill="#E0E0E0"/>
<path d="M345.312 22.0714H291.2V91.3865H345.312V22.0714Z" fill="#F5F5F5"/>
<path d="M340.784 86.8289V26.6372L295.736 26.6372V86.8289H340.784Z" fill="white"/>
<path d="M329.224 68.212H317.528C314.699 68.2078 311.988 67.0744 309.989 65.0606C307.99 63.0468 306.866 60.317 306.864 57.4701V45.6975C306.864 45.6404 306.875 45.5839 306.897 45.5311C306.918 45.4784 306.95 45.4304 306.99 45.3901C307.03 45.3497 307.078 45.3176 307.13 45.2958C307.183 45.2739 307.239 45.2627 307.296 45.2627H318.992C321.819 45.267 324.529 46.3992 326.528 48.4113C328.527 50.4233 329.652 53.1511 329.656 55.9965V67.7691C329.656 67.8852 329.611 67.9967 329.53 68.0795C329.449 68.1623 329.339 68.2099 329.224 68.212ZM307.736 46.1404V57.4701C307.738 60.0842 308.77 62.5908 310.606 64.44C312.441 66.2892 314.931 67.33 317.528 67.3343H328.8V55.9965C328.796 53.3824 327.761 50.8768 325.924 49.0291C324.087 47.1814 321.597 46.1425 319 46.1404H307.736Z" fill="#EBEBEB"/>
<path d="M196.544 154.606C196.544 157.021 198.232 158.745 195.808 158.745C193.384 158.745 187.808 157.046 187.808 154.606C187.808 153.431 188.272 152.305 189.097 151.474C189.922 150.644 191.041 150.177 192.208 150.177C193.375 150.177 194.494 150.644 195.319 151.474C196.145 152.305 196.608 153.431 196.608 154.606H196.544Z" fill="#E6E6E6"/>
<path d="M204.048 156.724C204.048 159.14 205.736 160.855 203.312 160.855C200.888 160.855 195.312 159.156 195.312 156.724C195.312 155.549 195.776 154.423 196.601 153.592C197.426 152.762 198.545 152.295 199.712 152.295C200.879 152.295 201.998 152.762 202.823 153.592C203.648 154.423 204.112 155.549 204.112 156.724H204.048Z" fill="#E6E6E6"/>
<path d="M211.24 155.412C211.24 157.827 212.928 159.542 210.504 159.542C208.08 159.542 202.504 157.843 202.504 155.412C202.504 154.237 202.967 153.11 203.793 152.28C204.618 151.449 205.737 150.983 206.904 150.983C208.071 150.983 209.19 151.449 210.015 152.28C210.84 153.11 211.304 154.237 211.304 155.412H211.24Z" fill="#E6E6E6"/>
<path d="M185.088 155.999C185.088 155.999 185.448 164.607 199.192 164.607C212.936 164.607 213.296 155.999 213.296 155.999H185.088Z" fill="#F5F5F5"/>
<path d="M213.8 103.981H294.104L298.768 152.77H218.464L213.8 103.981Z" fill="#E6E6E6"/>
<path d="M254.072 114.489H266.512L260.96 163.278H248.52L254.072 114.489Z" fill="#E6E6E6"/>
<path d="M267.28 114.489L262.616 155.476L261.728 163.278H249.288L250.176 155.476L254.84 114.489H267.28Z" fill="#F0F0F0"/>
<path d="M267.28 114.489L262.616 155.476H250.176L254.84 114.489H267.28Z" fill="#E6E6E6"/>
<path d="M214.544 103.981H296.632L301.296 152.77H219.208L214.544 103.981Z" fill="#F0F0F0"/>
<path d="M221.28 150.548L217.032 106.211H294.56L298.808 150.548H221.28Z" fill="white"/>
<path d="M253.4 163.278H242.4V164.615H253.4V163.278Z" fill="#E6E6E6"/>
<path d="M253.4 164.615H271.736V163.278H253.4V164.615Z" fill="#F0F0F0"/>
<path d="M342.384 164.615H336.152V263.635H342.384V164.615Z" fill="#E6E6E6"/>
<path d="M344.352 164.615H340.024V263.635H344.352V164.615Z" fill="#F0F0F0"/>
<path d="M95.304 172.321L345.688 172.321V164.615L95.304 164.615V172.321Z" fill="#F0F0F0"/>
<path d="M92.5201 172.321H86.2881V263.635H92.5201V172.321Z" fill="#E0E0E0"/>
<path d="M94.4799 172.321H90.1519V263.635H94.4799V172.321Z" fill="#F0F0F0"/>
<path d="M53.0718 172.321H46.8398V263.635H53.0718V172.321Z" fill="#E0E0E0"/>
<path d="M55.0399 172.321H50.7119V263.635H55.0399V172.321Z" fill="#F0F0F0"/>
<path d="M302.944 172.321H296.712V263.635H302.944V172.321Z" fill="#E6E6E6"/>
<path d="M304.912 172.321H300.584V263.635H304.912V172.321Z" fill="#F0F0F0"/>
<path d="M95.3038 164.615H46.8398V172.321H95.3038V164.615Z" fill="#E0E0E0"/>
<path d="M94.4878 131.987H146.496L154.04 162.9H102.024L94.4878 131.987Z" fill="#E6E6E6"/>
<path d="M102.024 162.9L102.232 164.615H154.248L154.04 162.9H102.024Z" fill="#E6E6E6"/>
<path d="M96.0879 131.987H148.104L155.64 162.9H103.624L96.0879 131.987Z" fill="#F0F0F0"/>
<path d="M104.728 161.49L97.8721 133.396H147L153.848 161.49H104.728Z" fill="white"/>
<path d="M117.176 162.9L117.384 164.615H174.664L174.456 162.9H117.176Z" fill="#FAFAFA"/>
<path d="M159.2 263.635H157.464L152.52 239.092L151.656 234.792L146.256 208.05H125.552L114.352 263.611H112.616L124 207.027C124.039 206.84 124.138 206.671 124.283 206.547C124.428 206.423 124.61 206.351 124.8 206.343H146.88C147.073 206.34 147.26 206.408 147.407 206.534C147.554 206.66 147.651 206.835 147.68 207.027L152.416 230.516L153.288 234.808L159.2 263.635Z" fill="#F0F0F0"/>
<path d="M192.408 263.636H190.68L179.48 208.074H158.776L153.376 234.832L152.512 239.116L147.56 263.66H145.832L151.648 234.816L152.504 230.54L157.248 207.051C157.286 206.863 157.385 206.694 157.53 206.569C157.675 206.445 157.858 206.374 158.048 206.367H180.12C180.311 206.373 180.494 206.443 180.639 206.568C180.785 206.692 180.884 206.863 180.92 207.051L192.408 263.636Z" fill="#F0F0F0"/>
<path d="M141.408 207.196H179.424C182.918 207.208 186.278 205.838 188.779 203.382C191.281 200.926 192.724 197.579 192.8 194.063L194.216 135.9C194.241 134.6 194.009 133.308 193.532 132.1C193.056 130.892 192.344 129.791 191.44 128.863C190.536 127.934 189.456 127.197 188.265 126.694C187.074 126.19 185.795 125.931 184.504 125.931H160.632C158.247 125.932 155.946 126.815 154.167 128.413C152.388 130.011 151.255 132.211 150.984 134.596L141.408 207.196Z" fill="#E0E0E0"/>
<path d="M162.144 207.196H121.632C121.129 207.196 120.647 206.995 120.291 206.637C119.936 206.279 119.736 205.794 119.736 205.288V205.111C119.736 203.72 120.285 202.387 121.261 201.404C122.238 200.421 123.563 199.868 124.944 199.868H162.144V207.196Z" fill="#E0E0E0"/>
<path d="M291.2 263.635H289.464L284.52 239.092L283.648 234.792L278.256 208.05H257.6L246.4 263.611H244.664L256.088 207.003C256.127 206.816 256.227 206.647 256.372 206.523C256.516 206.399 256.698 206.327 256.888 206.318H278.968C279.161 206.316 279.348 206.384 279.495 206.51C279.642 206.636 279.739 206.811 279.768 207.003L284.504 230.492L285.376 234.784L291.2 263.635Z" fill="#F0F0F0"/>
<path d="M324.424 263.636H322.696L311.496 208.074H290.792L285.392 234.832L284.528 239.116L279.576 263.66H277.848L283.656 234.816L284.52 230.54L289.264 207.051C289.302 206.863 289.401 206.694 289.546 206.569C289.691 206.445 289.874 206.374 290.064 206.367H312.136C312.327 206.373 312.51 206.443 312.655 206.568C312.801 206.692 312.9 206.863 312.936 207.051L324.424 263.636Z" fill="#F0F0F0"/>
<path d="M273.424 207.196H311.44C314.932 207.203 318.287 205.832 320.785 203.376C323.283 200.92 324.725 197.577 324.8 194.063L326.216 135.9C326.242 134.6 326.01 133.308 325.533 132.1C325.056 130.892 324.345 129.791 323.441 128.863C322.536 127.934 321.457 127.197 320.266 126.694C319.075 126.19 317.796 125.931 316.504 125.931H292.648C290.264 125.932 287.963 126.815 286.184 128.413C284.404 130.011 283.271 132.211 283 134.596L273.424 207.196Z" fill="#F0F0F0"/>
<path d="M294.16 207.196H253.648C253.145 207.196 252.663 206.995 252.307 206.637C251.952 206.279 251.752 205.794 251.752 205.288V205.111C251.752 203.72 252.301 202.387 253.278 201.404C254.254 200.421 255.579 199.868 256.96 199.868H294.16V207.196Z" fill="#F0F0F0"/>
<path d="M79.912 152.013C79.7619 152.021 79.6123 152.037 79.464 152.061V151.047C79.464 150.709 79.3308 150.386 79.0937 150.147C78.8567 149.908 78.5352 149.774 78.2 149.774H68.336C68 149.774 67.6777 149.908 67.4393 150.147C67.201 150.385 67.0661 150.709 67.064 151.047V164.607H79.464V162.328C79.6125 162.349 79.762 162.363 79.912 162.368C80.9014 162.368 81.8505 161.973 82.5509 161.27C83.2513 160.566 83.6458 159.612 83.648 158.616V155.773C83.6458 154.777 83.2516 153.822 82.5514 153.117C81.8512 152.412 80.9022 152.015 79.912 152.013ZM82.048 158.616C82.0458 159.185 81.8199 159.73 81.4195 160.131C81.0192 160.532 80.4771 160.758 79.912 160.758C79.7613 160.758 79.6111 160.742 79.464 160.71V153.672C79.6117 153.643 79.7616 153.627 79.912 153.623C80.4778 153.626 81.0199 153.853 81.42 154.256C81.8201 154.658 82.0459 155.204 82.048 155.773V158.616Z" fill="#E0E0E0"/>
<path d="M200 300C285.666 300 355.112 295.919 355.112 290.884C355.112 285.85 285.666 281.769 200 281.769C114.334 281.769 44.8882 285.85 44.8882 290.884C44.8882 295.919 114.334 300 200 300Z" fill="#F5F5F5"/>
<path d="M111.04 102.828L111.488 109.963L115.904 110.116L117.056 103.158L111.04 102.828Z" fill="#E4897B"/>
<path d="M152 89.7274C150.784 93.5443 149.448 97.2162 147.96 100.912C146.463 104.671 144.753 108.341 142.84 111.904L142.04 113.289L141.144 114.698C141.056 114.827 141.024 114.899 140.896 115.076C140.768 115.254 140.664 115.407 140.536 115.568C140.286 115.896 140.019 116.21 139.736 116.51C139.108 117.155 138.385 117.698 137.592 118.12C136.078 118.896 134.383 119.243 132.688 119.127C131.339 119.021 130.016 118.701 128.768 118.177C127.689 117.742 126.655 117.203 125.68 116.566C124.76 115.988 123.878 115.351 123.04 114.658C122.229 113.992 121.452 113.285 120.712 112.54C119.957 111.8 119.241 111.02 118.568 110.205L121.768 106.726C122.488 107.153 123.312 107.668 124.088 108.111C124.864 108.554 125.688 108.965 126.488 109.367C127.944 110.113 129.483 110.683 131.072 111.066C131.641 111.182 132.225 111.201 132.8 111.123C133.24 111.058 133.408 110.913 133.464 110.809L133.584 110.607L133.672 110.43L133.728 110.317L133.848 110.076L134.424 108.981L134.992 107.789C136.472 104.528 137.832 100.977 139.128 97.4175C140.424 93.8583 141.728 90.2267 142.984 86.6836L152 89.7274Z" fill="#E4897B"/>
<path d="M121.912 106.831L117.064 103.159L115.904 110.116C115.904 110.116 119.904 113.192 122.768 110.511L121.912 106.831Z" fill="#E4897B"/>
<path d="M156.216 83.277C158.248 88.6882 147.488 107.966 147.488 107.966L133.976 103.336C133.976 103.336 138.776 90.1135 142.904 83.8971C147.2 77.5115 153.992 77.3021 156.216 83.277Z" fill="#333399"/>
<path opacity="0.3" d="M156.216 83.277C158.248 88.6882 147.488 107.966 147.488 107.966L133.976 103.336C133.976 103.336 138.776 90.1135 142.904 83.8971C147.2 77.5115 153.992 77.3021 156.216 83.277Z" fill="black"/>
<path d="M149.08 79.1302C149.08 79.1302 141.976 92.6502 148.72 126.688H180.888C181.112 121.719 178.008 102.241 182.768 78.8242C179.212 78.1313 175.615 77.674 172 77.4553C167.446 77.1894 162.881 77.1894 158.328 77.4553C155.207 77.771 152.115 78.331 149.08 79.1302Z" fill="#333399"/>
<path opacity="0.3" d="M149.08 79.1302C149.08 79.1302 141.976 92.6502 148.72 126.688H180.888C181.112 121.719 178.008 102.241 182.768 78.8242C179.212 78.1313 175.615 77.674 172 77.4553C167.446 77.1894 162.881 77.1894 158.328 77.4553C155.207 77.771 152.115 78.331 149.08 79.1302Z" fill="black"/>
<path d="M189.184 285.569H183.304L182.192 271.872H188.064L189.184 285.569Z" fill="#E4897B"/>
<path d="M182.192 271.881L182.768 278.934H188.648L188.072 271.881H182.192Z" fill="#CE6F64"/>
<path d="M154.624 285.569H148.752L148.552 271.872H154.432L154.624 285.569Z" fill="#E4897B"/>
<path d="M148.552 271.881L148.656 278.934H154.536L154.432 271.881H148.552Z" fill="#CE6F64"/>
<path d="M148.72 126.688C148.72 126.688 144.4 182.185 143.592 200.641C142.752 219.83 146.752 277.243 146.752 277.243H156.312C156.312 277.243 159.8 223.993 161.44 205.199C163.232 184.713 169.864 126.688 169.864 126.688H148.72Z" fill="#333399"/>
<path opacity="0.7" d="M148.72 126.688C148.72 126.688 144.4 182.185 143.592 200.641C142.752 219.83 146.752 277.243 146.752 277.243H156.312C156.312 277.243 159.8 223.993 161.44 205.199C163.232 184.713 169.864 126.688 169.864 126.688H148.72Z" fill="black"/>
<path d="M183.08 284.885H189.48C189.598 284.886 189.712 284.927 189.803 285.002C189.895 285.076 189.959 285.18 189.984 285.296L191.144 290.554C191.172 290.681 191.171 290.812 191.141 290.939C191.111 291.065 191.053 291.183 190.971 291.284C190.89 291.384 190.787 291.465 190.67 291.52C190.553 291.575 190.425 291.603 190.296 291.601C187.984 291.561 184.64 291.424 181.728 291.424C178.328 291.424 177.856 291.617 173.864 291.617C171.464 291.617 170.776 289.201 171.792 288.935C176.384 287.921 177.672 287.816 181.648 285.352C182.071 285.062 182.568 284.9 183.08 284.885Z" fill="#263238"/>
<path d="M148.52 284.885H154.92C155.037 284.885 155.151 284.926 155.242 285.001C155.332 285.076 155.394 285.18 155.416 285.296L156.584 290.554C156.612 290.681 156.611 290.812 156.581 290.939C156.551 291.065 156.493 291.183 156.412 291.284C156.33 291.384 156.227 291.465 156.11 291.52C155.993 291.575 155.865 291.603 155.736 291.601C153.416 291.561 150.072 291.424 147.168 291.424C143.76 291.424 140.824 291.617 136.832 291.617C134.432 291.617 133.752 289.201 134.76 288.935C139.36 287.921 143.112 287.816 147.088 285.352C147.511 285.061 148.008 284.899 148.52 284.885Z" fill="#263238"/>
<path d="M146.096 285.795C145.697 285.892 145.276 285.849 144.904 285.674C144.779 285.604 144.676 285.501 144.604 285.376C144.532 285.251 144.495 285.11 144.496 284.966C144.483 284.884 144.492 284.8 144.523 284.723C144.554 284.647 144.606 284.58 144.672 284.531C145.264 284.088 147.376 284.966 147.616 285.07C147.641 285.082 147.662 285.1 147.678 285.123C147.693 285.145 147.702 285.172 147.704 285.199C147.703 285.228 147.694 285.256 147.678 285.28C147.663 285.304 147.641 285.323 147.616 285.336C147.127 285.542 146.617 285.696 146.096 285.795ZM145.016 284.7C144.953 284.705 144.892 284.727 144.84 284.764C144.8 284.764 144.768 284.829 144.776 284.941C144.779 285.038 144.805 285.133 144.853 285.217C144.9 285.301 144.967 285.372 145.048 285.425C145.76 285.626 146.521 285.545 147.176 285.199C146.495 284.895 145.761 284.725 145.016 284.7Z" fill="#333399"/>
<path d="M147.584 285.344H147.512C146.84 285.102 145.448 283.983 145.472 283.299C145.474 283.191 145.514 283.088 145.584 283.007C145.654 282.926 145.751 282.873 145.856 282.856C145.962 282.826 146.072 282.819 146.181 282.834C146.29 282.849 146.394 282.887 146.488 282.944C147.288 283.403 147.68 285.102 147.696 285.175C147.703 285.199 147.704 285.225 147.697 285.249C147.689 285.274 147.675 285.295 147.656 285.312C147.635 285.328 147.61 285.339 147.584 285.344ZM145.984 283.105H145.92C145.744 283.162 145.744 283.242 145.736 283.282C145.736 283.685 146.64 284.555 147.336 284.893C147.187 284.219 146.842 283.605 146.344 283.129C146.235 283.083 146.114 283.074 146 283.105H145.984Z" fill="#333399"/>
<path d="M158.152 277.485H146.288L145.256 272.975L158.36 273.209L158.152 277.485Z" fill="#333399"/>
<path d="M180.656 285.795C180.257 285.892 179.836 285.849 179.464 285.674C179.344 285.598 179.244 285.494 179.173 285.371C179.102 285.247 179.062 285.108 179.056 284.966C179.043 284.884 179.052 284.8 179.083 284.723C179.114 284.647 179.166 284.58 179.232 284.531C179.832 284.088 181.936 284.966 182.176 285.07C182.202 285.08 182.224 285.098 182.24 285.121C182.256 285.144 182.264 285.171 182.264 285.199C182.265 285.228 182.257 285.257 182.241 285.281C182.225 285.306 182.203 285.325 182.176 285.336C181.687 285.542 181.177 285.696 180.656 285.795ZM179.576 284.7C179.513 284.706 179.453 284.729 179.4 284.764C179.374 284.785 179.354 284.812 179.343 284.844C179.331 284.875 179.329 284.909 179.336 284.941C179.339 285.038 179.365 285.133 179.413 285.217C179.46 285.301 179.527 285.372 179.608 285.425C180.32 285.626 181.081 285.545 181.736 285.199C181.055 284.895 180.321 284.725 179.576 284.7Z" fill="#333399"/>
<path d="M182.144 285.344H182.072C181.408 285.102 180.008 283.983 180.032 283.299C180.036 283.191 180.078 283.087 180.149 283.007C180.221 282.926 180.318 282.873 180.424 282.856C180.528 282.824 180.638 282.816 180.746 282.831C180.853 282.846 180.957 282.885 181.048 282.944C181.848 283.403 182.24 285.102 182.256 285.175C182.269 285.195 182.276 285.219 182.276 285.243C182.276 285.268 182.269 285.291 182.256 285.312C182.224 285.336 182.184 285.348 182.144 285.344ZM180.544 283.105H180.488C180.304 283.162 180.304 283.242 180.304 283.283C180.304 283.685 181.2 284.555 181.904 284.893C181.752 284.218 181.404 283.604 180.904 283.13C180.795 283.083 180.674 283.075 180.56 283.105H180.544Z" fill="#333399"/>
<path d="M160.136 126.688C160.136 126.688 162.864 180.937 166.608 198.265C170.712 217.245 179.672 277.243 179.672 277.243H190.68C190.68 277.243 186.992 218.775 184.648 199.989C182.112 179.592 180.888 126.712 180.888 126.712L160.136 126.688Z" fill="#333399"/>
<path opacity="0.7" d="M160.136 126.688C160.136 126.688 162.864 180.937 166.608 198.265C170.712 217.245 179.672 277.243 179.672 277.243H190.68C190.68 277.243 186.992 218.775 184.648 199.989C182.112 179.592 180.888 126.712 180.888 126.712L160.136 126.688Z" fill="black"/>
<path d="M186.24 270.697C186.253 270.695 186.265 270.69 186.276 270.683C186.287 270.677 186.296 270.668 186.304 270.657C186.311 270.647 186.316 270.635 186.319 270.622C186.322 270.61 186.322 270.596 186.32 270.584C186.232 270.02 183.536 217.551 181.432 200.673C179.152 182.354 178.44 133.749 178.392 133.339C178.386 133.312 178.371 133.288 178.349 133.272C178.327 133.255 178.299 133.248 178.272 133.25C178.259 133.251 178.246 133.255 178.234 133.261C178.222 133.268 178.211 133.276 178.203 133.287C178.195 133.298 178.189 133.31 178.186 133.323C178.182 133.336 178.182 133.35 178.184 133.363C178.232 133.774 178.984 182.378 181.232 200.697C183.336 217.607 186.032 270.052 186.12 270.616C186.126 270.642 186.142 270.666 186.164 270.681C186.186 270.696 186.214 270.701 186.24 270.697Z" fill="#333399"/>
<path opacity="0.4" d="M186.24 270.697C186.253 270.695 186.265 270.69 186.276 270.683C186.287 270.677 186.296 270.668 186.304 270.657C186.311 270.647 186.316 270.635 186.319 270.622C186.322 270.61 186.322 270.596 186.32 270.584C186.232 270.02 183.536 217.551 181.432 200.673C179.152 182.354 178.44 133.749 178.392 133.339C178.386 133.312 178.371 133.288 178.349 133.272C178.327 133.255 178.299 133.248 178.272 133.25C178.259 133.251 178.246 133.255 178.234 133.261C178.222 133.268 178.211 133.276 178.203 133.287C178.195 133.298 178.189 133.31 178.186 133.323C178.182 133.336 178.182 133.35 178.184 133.363C178.232 133.774 178.984 182.378 181.232 200.697C183.336 217.607 186.032 270.052 186.12 270.616C186.126 270.642 186.142 270.666 186.164 270.681C186.186 270.696 186.214 270.701 186.24 270.697Z" fill="black"/>
<path d="M191.112 277.485H179.24L178.208 272.975L191.344 272.605L191.112 277.485Z" fill="#333399"/>
<path d="M170.648 61.9543C169.784 66.3831 168.92 74.4999 172 77.4551C172 77.4551 170.616 80.4265 162.44 80.4265C154.968 80.4265 158.328 77.4551 158.328 77.4551C163.232 76.2714 163.128 72.6237 162.256 69.1692L170.648 61.9543Z" fill="#E4897B"/>
<path d="M167.2 64.9014L162.232 69.1692C162.445 69.96 162.587 70.7685 162.656 71.5849C164.256 73.1148 167.104 69.2416 167.304 67.2688C167.41 66.4797 167.374 65.678 167.2 64.9014Z" fill="#CE6F64"/>
<path d="M155.608 48.4589C152.936 50.2546 152.896 58.7579 156.976 59.9336C161.056 61.1092 160.672 45.093 155.608 48.4589Z" fill="#263238"/>
<path d="M171.2 55.2949C170.84 61.2859 170.928 64.8128 167.92 67.8969C163.392 72.527 156.04 69.7731 154.616 63.7902C153.336 58.4031 154.152 49.5052 159.984 47.1137C161.268 46.5807 162.665 46.3873 164.044 46.5517C165.423 46.7161 166.737 47.2329 167.861 48.053C168.985 48.873 169.882 49.969 170.467 51.2366C171.051 52.5042 171.304 53.9013 171.2 55.2949Z" fill="#E4897B"/>
<path d="M173.264 47.7339L167.512 50.3268C169.768 54.5623 164.696 61.7129 169.808 60.9318C172.152 60.5694 179.544 53.2095 173.264 47.7339Z" fill="#263238"/>
<path d="M171.776 58.5963C170.352 58.2661 165.92 57.3481 165.872 57.3401C165.839 57.3324 165.81 57.3124 165.79 57.284C165.771 57.2557 165.763 57.2211 165.768 57.1871C165.771 57.17 165.777 57.1537 165.786 57.1392C165.796 57.1246 165.808 57.112 165.822 57.1023C165.836 57.0925 165.852 57.0857 165.869 57.0823C165.886 57.0789 165.903 57.0789 165.92 57.0824C165.968 57.0824 170.408 58.0084 171.84 58.3386C171.874 58.3386 171.907 58.3522 171.931 58.3763C171.955 58.4005 171.968 58.4333 171.968 58.4674C171.968 58.5016 171.955 58.5344 171.931 58.5585C171.907 58.5827 171.874 58.5963 171.84 58.5963H171.776Z" fill="#263238"/>
<path d="M173.864 61.8983C173.469 62.532 172.953 63.0809 172.346 63.5134C171.739 63.9459 171.053 64.2536 170.328 64.4187C168.384 64.8535 167.52 63.074 168.152 61.2863C168.728 59.6759 170.424 57.5178 172.328 57.8882C172.742 57.9779 173.128 58.1699 173.45 58.447C173.772 58.7241 174.02 59.0776 174.173 59.4755C174.325 59.8734 174.377 60.3032 174.323 60.7262C174.269 61.1492 174.111 61.552 173.864 61.8983Z" fill="#E4897B"/>
<path d="M162.504 56.9704C162.504 57.4536 162.24 57.8481 161.928 57.8481C161.616 57.8481 161.352 57.4536 161.352 56.9704C161.352 56.4873 161.608 56.0847 161.928 56.0847C162.248 56.0847 162.504 56.4792 162.504 56.9704Z" fill="#263238"/>
<path d="M157.016 56.9704C157.016 57.4536 156.76 57.8481 156.44 57.8481C156.12 57.8481 155.872 57.4536 155.872 56.9704C155.872 56.4873 156.128 56.0847 156.44 56.0847C156.752 56.0847 157.016 56.4792 157.016 56.9704Z" fill="#263238"/>
<path d="M158.4 57.2116C157.822 58.7018 157.044 60.1052 156.088 61.3827C156.417 61.623 156.795 61.7873 157.195 61.8638C157.594 61.9404 158.006 61.9273 158.4 61.8256V57.2116Z" fill="#DE5753"/>
<path d="M159.12 63.9112C159.101 63.9102 159.083 63.9054 159.066 63.8972C159.049 63.8889 159.033 63.8774 159.021 63.8631C159.008 63.8489 158.998 63.8323 158.992 63.8143C158.986 63.7963 158.983 63.7773 158.984 63.7582C158.984 63.7395 158.988 63.7211 158.995 63.7039C159.003 63.6868 159.013 63.6713 159.027 63.6585C159.04 63.6456 159.056 63.6357 159.074 63.6294C159.091 63.623 159.11 63.6202 159.128 63.6213C159.731 63.6604 160.335 63.5561 160.891 63.3169C161.447 63.0777 161.939 62.7103 162.328 62.2444C162.351 62.2139 162.383 62.1929 162.42 62.1855C162.457 62.178 162.496 62.1847 162.528 62.2041C162.554 62.2311 162.569 62.2672 162.569 62.3048C162.569 62.3423 162.554 62.3784 162.528 62.4054C162.119 62.9105 161.597 63.3104 161.005 63.5723C160.412 63.8341 159.766 63.9503 159.12 63.9112Z" fill="#263238"/>
<path d="M164.976 52.8553C164.933 52.8601 164.89 52.8546 164.849 52.8392C164.809 52.8238 164.773 52.799 164.744 52.7667C164.514 52.4886 164.221 52.2702 163.89 52.1301C163.558 51.9899 163.198 51.9321 162.84 51.9615C162.765 51.971 162.689 51.9513 162.628 51.9063C162.567 51.8614 162.526 51.7947 162.512 51.7199C162.5 51.6453 162.518 51.5691 162.561 51.5074C162.605 51.4458 162.67 51.4036 162.744 51.3898C163.192 51.3486 163.643 51.4154 164.061 51.5849C164.478 51.7543 164.849 52.0215 165.144 52.3641C165.196 52.4182 165.225 52.4903 165.225 52.5654C165.225 52.6405 165.196 52.7127 165.144 52.7667C165.098 52.8127 165.039 52.8436 164.976 52.8553Z" fill="#263238"/>
<path d="M175.631 93.5509L166.236 93.2339L166.21 94.0065L175.605 94.3235L175.631 93.5509Z" fill="#E0E0E0"/>
<path d="M154.576 52.7989C154.534 52.7855 154.496 52.7636 154.464 52.7345C154.412 52.6791 154.382 52.6056 154.382 52.5291C154.382 52.4527 154.412 52.3792 154.464 52.3238C154.775 51.9931 155.16 51.7423 155.588 51.5924C156.015 51.4425 156.472 51.3979 156.92 51.4622C156.961 51.465 157.001 51.4765 157.037 51.496C157.073 51.5154 157.104 51.5425 157.129 51.5752C157.154 51.608 157.172 51.6457 157.181 51.6859C157.19 51.7261 157.191 51.7678 157.183 51.8083C157.175 51.8487 157.158 51.887 157.135 51.9205C157.111 51.954 157.08 51.982 157.044 52.0026C157.009 52.0232 156.969 52.0359 156.929 52.04C156.888 52.044 156.847 52.0392 156.808 52.0259C156.453 51.9811 156.093 52.0212 155.757 52.1429C155.42 52.2647 155.117 52.4646 154.872 52.7264C154.834 52.7644 154.786 52.7912 154.734 52.8039C154.682 52.8167 154.627 52.815 154.576 52.7989Z" fill="#263238"/>
<path d="M160.552 47.734C160.552 47.734 160.376 43.0636 165.064 43.3051C168.704 43.4903 175.528 48.8049 177.664 47.734C177.664 47.734 173.664 52.4849 168.4 50.9549C165.654 50.2363 163.015 49.1531 160.552 47.734Z" fill="#263238"/>
<path d="M160.552 47.7339C160.552 47.7339 164.488 45.3182 161.88 43.9412C158.088 41.9603 153.528 49.1592 151.4 48.0882C151.4 48.0882 151.864 51.5105 156.944 49.5054C158.19 49.0085 159.396 48.4162 160.552 47.7339Z" fill="#263238"/>
<path d="M162.504 61.0928C160.568 61.0928 158.992 59.1119 158.992 56.6801C158.992 54.522 160.24 53.3303 162.504 53.3303C164.768 53.3303 166.024 54.522 166.024 56.6801C166.024 59.1119 164.448 61.0928 162.504 61.0928ZM162.504 53.5879C161.024 53.5879 159.248 54.1274 159.248 56.6801C159.248 58.9669 160.712 60.827 162.504 60.827C164.296 60.827 165.76 58.9669 165.76 56.6801C165.76 54.1274 164 53.5879 162.504 53.5879Z" fill="#263238"/>
<path d="M154.568 61.0928C152.968 61.0928 151.616 59.1119 151.616 56.6801C151.616 53.7651 153.464 53.3303 154.568 53.3303C155.672 53.3303 157.52 53.7651 157.52 56.6801C157.52 59.1119 156.2 61.0928 154.568 61.0928ZM154.568 53.5879C153.336 53.5879 151.872 54.1274 151.872 56.6801C151.872 58.9669 153.08 60.827 154.568 60.827C156.056 60.827 157.264 58.9669 157.264 56.6801C157.264 54.1274 155.8 53.5879 154.568 53.5879Z" fill="#263238"/>
<path d="M157.152 55.2551C157.129 55.2553 157.107 55.2494 157.087 55.2381C157.067 55.2268 157.051 55.2104 157.04 55.1907C157.03 55.1762 157.024 55.1599 157.021 55.1426C157.018 55.1254 157.019 55.1078 157.023 55.091C157.028 55.0741 157.036 55.0585 157.047 55.0451C157.058 55.0318 157.072 55.021 157.088 55.0135C157.45 54.795 157.865 54.6796 158.288 54.6796C158.71 54.6796 159.125 54.795 159.488 55.0135C159.518 55.0305 159.54 55.0582 159.55 55.0911C159.561 55.1239 159.558 55.1595 159.544 55.1907C159.536 55.2063 159.526 55.2201 159.512 55.2315C159.499 55.2428 159.484 55.2513 159.468 55.2566C159.451 55.2619 159.434 55.2637 159.417 55.2621C159.4 55.2605 159.383 55.2553 159.368 55.247C159.046 55.0492 158.677 54.9445 158.3 54.9445C157.923 54.9445 157.553 55.0492 157.232 55.247L157.152 55.2551Z" fill="#263238"/>
<path d="M164.112 79.5648C164.112 79.5648 166.176 82.4717 166.576 84.5734C169.04 83.5427 173.704 80.9659 174.328 77.3262C173.428 77.0395 172.569 76.6333 171.776 76.1183C171.776 76.1183 169.288 78.2442 164.112 79.5648Z" fill="#F0F0F0"/>
<path d="M162.448 79.4282C161.162 80.6658 160.318 82.2964 160.048 84.0664C157.584 83.0357 156.616 79.6698 157.264 77.4393C158.199 77.0106 159.178 76.6865 160.184 76.473C160.147 77.1569 160.355 77.8314 160.771 78.3738C161.186 78.9162 161.781 79.2904 162.448 79.4282Z" fill="#F0F0F0"/>
<path d="M178 77.7291L176.48 77.5923C176.408 77.587 176.336 77.6087 176.279 77.6533C176.221 77.6978 176.182 77.7621 176.168 77.8338C171.936 100.678 174.312 124.932 174.312 124.932H176C175.079 109.273 175.846 93.56 178.288 78.0673C178.294 78.0256 178.291 77.9832 178.279 77.9429C178.267 77.9025 178.247 77.8651 178.22 77.8331C178.192 77.8012 178.159 77.7754 178.121 77.7575C178.083 77.7396 178.042 77.7299 178 77.7291Z" fill="#333399"/>
<path opacity="0.7" d="M178 77.7291L176.48 77.5923C176.408 77.587 176.336 77.6087 176.279 77.6533C176.221 77.6978 176.182 77.7621 176.168 77.8338C171.936 100.678 174.312 124.932 174.312 124.932H176C175.079 109.273 175.846 93.56 178.288 78.0673C178.294 78.0256 178.291 77.9832 178.279 77.9429C178.267 77.9025 178.247 77.8651 178.22 77.8331C178.192 77.8012 178.159 77.7754 178.121 77.7575C178.083 77.7396 178.042 77.7299 178 77.7291Z" fill="black"/>
<path d="M175.688 125.472H174.528C174.386 125.472 174.25 125.415 174.149 125.314C174.049 125.212 173.992 125.075 173.992 124.932C173.992 124.788 174.048 124.65 174.149 124.548C174.249 124.445 174.385 124.387 174.528 124.384H175.688C175.832 124.387 175.969 124.445 176.071 124.547C176.172 124.649 176.23 124.787 176.232 124.932C176.23 125.076 176.172 125.213 176.07 125.314C175.968 125.415 175.831 125.472 175.688 125.472Z" fill="#E0E0E0"/>
<path d="M174.4 126.897V125.367C174.4 125.273 174.418 125.181 174.454 125.094C174.49 125.008 174.543 124.929 174.609 124.863C174.675 124.797 174.754 124.745 174.84 124.71C174.926 124.675 175.019 124.658 175.112 124.659C175.299 124.659 175.478 124.733 175.61 124.866C175.742 124.999 175.816 125.179 175.816 125.367V126.897C175.814 127.084 175.739 127.263 175.607 127.396C175.476 127.528 175.298 127.604 175.112 127.606C174.924 127.606 174.745 127.531 174.611 127.399C174.478 127.266 174.402 127.086 174.4 126.897Z" fill="#E0E0E0"/>
<path d="M152.536 78.0352L151.032 78.317C150.97 78.3286 150.914 78.3599 150.87 78.4062C150.827 78.4526 150.8 78.5116 150.792 78.5747C147.592 101.427 151.104 124.932 151.104 124.932H152.8C150.296 100.059 152.52 81.3125 152.904 78.3654C152.913 78.3163 152.91 78.2657 152.894 78.2185C152.878 78.1713 152.85 78.129 152.813 78.0958C152.776 78.0626 152.731 78.0396 152.683 78.029C152.634 78.0184 152.584 78.0205 152.536 78.0352Z" fill="#333399"/>
<path opacity="0.7" d="M152.536 78.0352L151.032 78.317C150.97 78.3286 150.914 78.3599 150.87 78.4062C150.827 78.4526 150.8 78.5116 150.792 78.5747C147.592 101.427 151.104 124.932 151.104 124.932H152.8C150.296 100.059 152.52 81.3125 152.904 78.3654C152.913 78.3163 152.91 78.2657 152.894 78.2185C152.878 78.1713 152.85 78.129 152.813 78.0958C152.776 78.0626 152.731 78.0396 152.683 78.029C152.634 78.0184 152.584 78.0205 152.536 78.0352Z" fill="black"/>
<path d="M152.504 125.472H151.344C151.199 125.47 151.061 125.413 150.955 125.313C150.85 125.214 150.786 125.077 150.776 124.932C150.774 124.862 150.786 124.791 150.811 124.726C150.836 124.66 150.874 124.6 150.922 124.549C150.971 124.498 151.029 124.457 151.093 124.429C151.157 124.401 151.226 124.385 151.296 124.384H152.456C152.601 124.386 152.74 124.444 152.844 124.546C152.949 124.648 153.01 124.786 153.016 124.932C153.021 125.002 153.011 125.072 152.987 125.138C152.963 125.204 152.926 125.264 152.878 125.315C152.829 125.365 152.771 125.406 152.707 125.433C152.643 125.46 152.574 125.473 152.504 125.472Z" fill="#E0E0E0"/>
<path d="M151.28 126.897L151.208 125.367C151.204 125.275 151.218 125.183 151.251 125.097C151.283 125.01 151.332 124.931 151.396 124.865C151.46 124.799 151.536 124.746 151.621 124.711C151.706 124.675 151.797 124.657 151.888 124.659C152.077 124.66 152.259 124.735 152.396 124.866C152.532 124.998 152.614 125.177 152.624 125.367L152.696 126.897C152.701 126.989 152.686 127.08 152.655 127.166C152.623 127.252 152.574 127.33 152.511 127.396C152.448 127.463 152.373 127.515 152.289 127.551C152.205 127.587 152.115 127.606 152.024 127.606C151.834 127.604 151.652 127.53 151.514 127.399C151.376 127.267 151.292 127.088 151.28 126.897Z" fill="#E0E0E0"/>
<path d="M168.28 96.6281C168.164 96.6198 168.056 96.5664 167.978 96.4793C167.901 96.3921 167.86 96.278 167.864 96.161L168.088 92.1348C168.09 92.0763 168.104 92.0187 168.128 91.9656C168.153 91.9126 168.188 91.8651 168.231 91.8259C168.275 91.7868 168.326 91.7569 168.381 91.7381C168.436 91.7192 168.494 91.7117 168.552 91.7161C168.61 91.7192 168.667 91.7337 168.719 91.7589C168.771 91.784 168.818 91.8193 168.856 91.8627C168.895 91.9061 168.925 91.9567 168.944 92.0117C168.963 92.0667 168.971 92.1249 168.968 92.1831L168.744 96.2093C168.742 96.2679 168.728 96.3254 168.704 96.3785C168.679 96.4316 168.644 96.4791 168.601 96.5182C168.557 96.5573 168.507 96.5872 168.452 96.6061C168.396 96.6249 168.338 96.6324 168.28 96.6281Z" fill="#333399"/>
<path d="M169.648 98.0773C169.612 98.0774 169.577 98.07 169.544 98.0556C169.512 98.0412 169.482 98.02 169.458 97.9935C169.434 97.9669 169.416 97.9356 169.404 97.9015C169.393 97.8674 169.389 97.8312 169.392 97.7954L169.664 92.0621C169.668 91.9888 169.701 91.92 169.755 91.8703C169.808 91.8207 169.879 91.7942 169.952 91.7964C169.988 91.7984 170.023 91.8076 170.055 91.8233C170.087 91.839 170.116 91.8609 170.14 91.8878C170.164 91.9148 170.182 91.9462 170.194 91.9802C170.205 92.0143 170.21 92.0503 170.208 92.0863L169.936 97.8196C169.934 97.8556 169.925 97.8908 169.91 97.9232C169.894 97.9556 169.872 97.9847 169.845 98.0086C169.819 98.0325 169.787 98.0509 169.754 98.0627C169.72 98.0745 169.684 98.0794 169.648 98.0773Z" fill="#333399"/>
<path opacity="0.7" d="M168.28 96.6281C168.164 96.6198 168.056 96.5664 167.978 96.4793C167.901 96.3921 167.86 96.278 167.864 96.161L168.088 92.1348C168.09 92.0763 168.104 92.0187 168.128 91.9656C168.153 91.9126 168.188 91.8651 168.231 91.8259C168.275 91.7868 168.326 91.7569 168.381 91.7381C168.436 91.7192 168.494 91.7117 168.552 91.7161C168.61 91.7192 168.667 91.7337 168.719 91.7589C168.771 91.784 168.818 91.8193 168.856 91.8627C168.895 91.9061 168.925 91.9567 168.944 92.0117C168.963 92.0667 168.971 92.1249 168.968 92.1831L168.744 96.2093C168.742 96.2679 168.728 96.3254 168.704 96.3785C168.679 96.4316 168.644 96.4791 168.601 96.5182C168.557 96.5573 168.507 96.5872 168.452 96.6061C168.396 96.6249 168.338 96.6324 168.28 96.6281Z" fill="black"/>
<path opacity="0.7" d="M169.648 98.0773C169.612 98.0774 169.577 98.07 169.544 98.0556C169.512 98.0412 169.482 98.02 169.458 97.9935C169.434 97.9669 169.416 97.9356 169.404 97.9015C169.393 97.8674 169.389 97.8312 169.392 97.7954L169.664 92.0621C169.668 91.9888 169.701 91.92 169.755 91.8703C169.808 91.8207 169.879 91.7942 169.952 91.7964C169.988 91.7984 170.023 91.8076 170.055 91.8233C170.087 91.839 170.116 91.8609 170.14 91.8878C170.164 91.9148 170.182 91.9462 170.194 91.9802C170.205 92.0143 170.21 92.0503 170.208 92.0863L169.936 97.8196C169.934 97.8556 169.925 97.8908 169.91 97.9232C169.894 97.9556 169.872 97.9847 169.845 98.0086C169.819 98.0325 169.787 98.0509 169.754 98.0627C169.72 98.0745 169.684 98.0794 169.648 98.0773Z" fill="black"/>
<path d="M162.936 80.4185L164.112 79.565L166.608 81.9807L162.936 80.4185Z" fill="#333399"/>
<path opacity="0.5" d="M162.936 80.4185L164.112 79.565L166.608 81.9807L162.936 80.4185Z" fill="black"/>
<path d="M162.936 80.4184L162.448 79.4279L159.224 81.9805L162.936 80.4184Z" fill="#333399"/>
<path opacity="0.5" d="M162.936 80.4184L162.448 79.4279L159.224 81.9805L162.936 80.4184Z" fill="black"/>
<path d="M164.056 81.6588C165.448 81.1354 171.016 76.61 172.6 78.9613C174.184 81.3126 172.048 82.1822 172.744 83.7927C173.44 85.4032 174.488 88.1249 170.992 87.4163C167.088 86.611 165.328 83.8652 164.2 83.8008C164.136 82.8506 164.056 81.6588 164.056 81.6588Z" fill="#333399"/>
<path opacity="0.7" d="M164.056 81.6588C165.448 81.1354 171.016 76.61 172.6 78.9613C174.184 81.3126 172.048 82.1822 172.744 83.7927C173.44 85.4032 174.488 88.1249 170.992 87.4163C167.088 86.611 165.328 83.8652 164.2 83.8008C164.136 82.8506 164.056 81.6588 164.056 81.6588Z" fill="black"/>
<path d="M161.84 81.3286C160.672 80.8293 155.856 76.5938 154.688 78.7679C153.52 80.9421 155.32 81.7393 154.832 83.2209C154.344 84.7025 153.64 87.2471 156.472 86.6029C159.624 85.8943 160.92 83.3417 161.84 83.2853V81.3286Z" fill="#333399"/>
<path opacity="0.7" d="M161.84 81.3286C160.672 80.8293 155.856 76.5938 154.688 78.7679C153.52 80.9421 155.32 81.7393 154.832 83.2209C154.344 84.7025 153.64 87.2471 156.472 86.6029C159.624 85.8943 160.92 83.3417 161.84 83.2853V81.3286Z" fill="black"/>
<path d="M164.304 83.9214C164.88 82.947 165.264 80.2656 164.032 80.7407C162.8 81.2158 162.664 81.2802 162.312 81.0466C161.96 80.8131 161.04 80.3864 160.88 81.3687C160.72 82.3511 160.96 84.3079 161.872 84.2676C162.784 84.2273 163.72 84.9199 164.304 83.9214Z" fill="#333399"/>
<path opacity="0.7" d="M164.304 83.9214C164.88 82.947 165.264 80.2656 164.032 80.7407C162.8 81.2158 162.664 81.2802 162.312 81.0466C161.96 80.8131 161.04 80.3864 160.88 81.3687C160.72 82.3511 160.96 84.3079 161.872 84.2676C162.784 84.2273 163.72 84.9199 164.304 83.9214Z" fill="black"/>
<path d="M121.248 101.234L119.488 114.343C119.473 114.446 119.42 114.538 119.34 114.604C119.26 114.669 119.159 114.703 119.056 114.697L113.456 114.359C113.354 114.349 113.258 114.302 113.187 114.227C113.117 114.151 113.076 114.052 113.072 113.949L113.032 110.993L112.928 104.1L112.88 100.751L121.248 101.234Z" fill="#333399"/>
<path opacity="0.3" d="M121.248 101.234L119.488 114.343C119.473 114.446 119.42 114.538 119.34 114.604C119.26 114.669 119.159 114.703 119.056 114.697L113.456 114.359C113.354 114.349 113.258 114.302 113.187 114.227C113.117 114.151 113.076 114.052 113.072 113.949L113.032 110.993L112.928 104.1L112.88 100.751L121.248 101.234Z" fill="black"/>
<path d="M122.199 100.638L111.985 100.02L111.906 101.347L122.12 101.965L122.199 100.638Z" fill="#333399"/>
<path d="M121.552 99.9317L112.712 99.3969L112.633 100.723L121.473 101.258L121.552 99.9317Z" fill="#333399"/>
<path d="M121.552 99.9317L112.712 99.3969L112.633 100.723L121.473 101.258L121.552 99.9317Z" fill="#F5F5F5"/>
<path d="M122.199 100.638L111.985 100.02L111.906 101.347L122.12 101.965L122.199 100.638Z" fill="#EBEBEB"/>
<path opacity="0.43" d="M116.224 104.278L115.816 111.139L112.976 110.97L112.872 104.077L116.224 104.278Z" fill="#EBEBEB"/>
<path d="M193.84 144.943L163.608 144.258C163.216 144.235 162.832 144.131 162.482 143.951C162.132 143.771 161.823 143.52 161.575 143.213C161.326 142.906 161.144 142.551 161.04 142.169C160.935 141.788 160.911 141.388 160.968 140.997L163.472 114.319C163.483 113.929 163.58 113.546 163.755 113.197C163.93 112.849 164.179 112.543 164.484 112.303C164.79 112.062 165.144 111.892 165.522 111.805C165.901 111.718 166.293 111.716 166.672 111.799L196.272 118.627C197.28 118.861 198 120.173 197.872 121.542L195.952 142.478C195.808 143.831 194.872 144.943 193.84 144.943Z" fill="#333399"/>
<path opacity="0.3" d="M193.84 144.943L163.608 144.258C163.216 144.235 162.832 144.131 162.482 143.951C162.132 143.771 161.823 143.52 161.575 143.213C161.326 142.906 161.144 142.551 161.04 142.169C160.935 141.788 160.911 141.388 160.968 140.997L163.472 114.319C163.483 113.929 163.58 113.546 163.755 113.197C163.93 112.849 164.179 112.543 164.484 112.303C164.79 112.062 165.144 111.892 165.522 111.805C165.901 111.718 166.293 111.716 166.672 111.799L196.272 118.627C197.28 118.861 198 120.173 197.872 121.542L195.952 142.478C195.808 143.831 194.872 144.943 193.84 144.943Z" fill="white"/>
<path d="M194.4 144.943L164.44 144.258C164.053 144.234 163.675 144.13 163.33 143.952C162.985 143.774 162.68 143.525 162.435 143.223C162.19 142.92 162.01 142.57 161.906 142.194C161.802 141.817 161.777 141.424 161.832 141.037L164.32 114.464C164.327 114.08 164.417 113.701 164.585 113.355C164.753 113.009 164.994 112.705 165.292 112.463C165.589 112.221 165.936 112.048 166.307 111.956C166.678 111.863 167.065 111.854 167.44 111.928L196.768 118.692C197.776 118.917 198.488 120.23 198.368 121.599L196.456 142.446C196.328 143.848 195.392 144.943 194.4 144.943Z" fill="#333399"/>
<path opacity="0.7" d="M194.4 144.943L164.44 144.258C164.053 144.234 163.675 144.13 163.33 143.952C162.985 143.774 162.68 143.525 162.435 143.223C162.19 142.92 162.01 142.57 161.906 142.194C161.802 141.817 161.777 141.424 161.832 141.037L164.32 114.464C164.327 114.08 164.417 113.701 164.585 113.355C164.753 113.009 164.994 112.705 165.292 112.463C165.589 112.221 165.936 112.048 166.307 111.956C166.678 111.863 167.065 111.854 167.44 111.928L196.768 118.692C197.776 118.917 198.488 120.23 198.368 121.599L196.456 142.446C196.328 143.848 195.392 144.943 194.4 144.943Z" fill="white"/>
<path d="M194.512 143.702L164.584 142.72C164.401 142.715 164.221 142.672 164.055 142.593C163.89 142.513 163.743 142.4 163.624 142.261C163.486 142.096 163.382 141.905 163.319 141.698C163.256 141.492 163.234 141.276 163.256 141.061L165.72 114.77C165.738 114.561 165.798 114.358 165.897 114.174C165.996 113.99 166.132 113.828 166.296 113.699C166.443 113.593 166.611 113.519 166.789 113.481C166.967 113.444 167.15 113.444 167.328 113.482L196.696 119.923C196.978 120.043 197.21 120.256 197.356 120.527C197.501 120.798 197.551 121.11 197.496 121.413L195.576 142.422C195.581 142.729 195.477 143.027 195.281 143.262C195.086 143.497 194.813 143.654 194.512 143.702ZM167.016 113.61C166.782 113.61 166.554 113.686 166.368 113.828C166.22 113.942 166.099 114.087 166.01 114.252C165.922 114.417 165.87 114.599 165.856 114.786L163.384 141.077C163.347 141.466 163.465 141.854 163.712 142.156C163.818 142.279 163.948 142.378 164.094 142.447C164.24 142.516 164.398 142.554 164.56 142.559L194.488 143.549C194.936 143.549 195.344 143.05 195.4 142.43L197.32 121.421C197.373 121.152 197.331 120.873 197.201 120.631C197.071 120.39 196.861 120.202 196.608 120.101L167.248 113.659C167.173 113.633 167.095 113.617 167.016 113.61Z" fill="white"/>
<path d="M182.152 134.926H181.848C181.379 134.871 180.926 134.723 180.514 134.491C180.102 134.259 179.74 133.947 179.448 133.573C178.583 132.468 178.184 131.066 178.336 129.667C178.382 128.985 178.565 128.319 178.874 127.709C179.183 127.1 179.613 126.561 180.136 126.124C180.502 125.829 180.925 125.613 181.378 125.49C181.831 125.366 182.304 125.338 182.768 125.408C183.277 125.498 183.761 125.694 184.189 125.984C184.618 126.274 184.981 126.651 185.256 127.091C185.263 127.097 185.269 127.105 185.272 127.114C185.276 127.123 185.278 127.133 185.278 127.143C185.278 127.153 185.276 127.162 185.272 127.171C185.269 127.18 185.263 127.189 185.256 127.195C185.249 127.202 185.241 127.208 185.232 127.212C185.223 127.216 185.214 127.218 185.204 127.218C185.194 127.218 185.185 127.216 185.176 127.212C185.167 127.208 185.159 127.202 185.152 127.195C184.884 126.775 184.532 126.415 184.119 126.138C183.706 125.86 183.241 125.672 182.752 125.585C182.309 125.52 181.856 125.547 181.424 125.667C180.992 125.786 180.589 125.994 180.24 126.277C179.735 126.699 179.319 127.22 179.02 127.809C178.72 128.397 178.542 129.04 178.496 129.7C178.349 131.06 178.736 132.424 179.576 133.5C180.153 134.223 180.989 134.689 181.904 134.797C182.387 134.833 182.871 134.763 183.324 134.592C183.777 134.421 184.188 134.153 184.528 133.806C184.543 133.792 184.563 133.783 184.584 133.783C184.605 133.783 184.625 133.792 184.64 133.806C184.653 133.822 184.66 133.842 184.66 133.863C184.66 133.883 184.653 133.903 184.64 133.919C184.312 134.244 183.923 134.5 183.496 134.673C183.069 134.845 182.612 134.931 182.152 134.926Z" fill="white"/>
<path d="M184.536 133.902C184.515 133.91 184.493 133.91 184.472 133.902C183.777 132.855 183.468 131.596 183.6 130.343C183.698 129.122 184.232 127.977 185.104 127.122C185.12 127.107 185.141 127.099 185.163 127.1C185.185 127.101 185.205 127.11 185.22 127.126C185.235 127.142 185.243 127.164 185.242 127.185C185.241 127.207 185.232 127.228 185.216 127.243C184.357 128.073 183.835 129.195 183.752 130.391C183.628 131.605 183.928 132.823 184.6 133.838C184.608 133.845 184.615 133.853 184.62 133.863C184.624 133.873 184.627 133.883 184.627 133.894C184.627 133.905 184.624 133.916 184.62 133.925C184.615 133.935 184.608 133.944 184.6 133.951L184.536 133.902Z" fill="white"/>
<path d="M188.656 85.9992C189.752 90.2428 190.704 94.4784 191.552 98.7784C191.976 100.928 192.352 103.078 192.728 105.261C192.912 106.348 193.096 107.443 193.248 108.554L193.472 110.229L193.6 111.123L193.656 111.549L193.704 112.065C193.876 114.545 193.752 117.038 193.336 119.489C192.977 121.752 192.497 123.994 191.896 126.205C190.734 130.522 189.239 134.741 187.424 138.823L182.944 137.365C183.744 133.21 184.392 128.951 184.912 124.812C185.168 122.742 185.352 120.681 185.448 118.676C185.563 116.823 185.486 114.964 185.216 113.128L185.168 112.838L185.088 112.467L184.936 111.71L184.6 110.189L183.888 107.096L182.4 100.816C181.392 96.6525 180.392 92.4411 179.456 88.2619L188.656 85.9992Z" fill="#E4897B"/>
<path d="M187.616 135.368L183.776 135.908L180.688 141.005L179.328 144.894L185.464 144.588L186.936 142.229C186.936 142.229 189.664 138.734 187.616 135.368Z" fill="#E4897B"/>
<path d="M182.768 78.8242C189.168 79.9676 196.168 103.988 196.168 103.988L181.392 109.069C181.392 109.069 176.464 97.1434 177.392 89.7432C178.272 82.4317 176.696 77.7371 182.768 78.8242Z" fill="#333399"/>
<path opacity="0.3" d="M182.768 78.8242C189.168 79.9676 196.168 103.988 196.168 103.988L181.392 109.069C181.392 109.069 176.464 97.1434 177.392 89.7432C178.272 82.4317 176.696 77.7371 182.768 78.8242Z" fill="black"/>
<path d="M253.648 69.7979C250.904 68.735 243.752 66.1663 248.144 57.4938C252.536 48.8214 263.24 60.6584 266.88 56.6886C266.4 61.7213 262.12 73.0752 253.648 69.7979Z" fill="#263238"/>
<path d="M248.736 70.1043C245.488 68.4536 244.736 66.8834 244.52 66.1747C244.493 66.0756 244.491 65.9713 244.515 65.8714C244.539 65.7715 244.587 65.6792 244.656 65.603C245.264 64.9105 247.176 63.0182 248.816 64.6448C250.456 66.2714 252.016 66.4405 249.52 69.903C249.434 70.0248 249.308 70.112 249.165 70.1489C249.021 70.1858 248.869 70.17 248.736 70.1043Z" fill="#333399"/>
<path opacity="0.3" d="M248.736 70.1043C245.488 68.4536 244.736 66.8834 244.52 66.1747C244.493 66.0756 244.491 65.9713 244.515 65.8714C244.539 65.7715 244.587 65.6792 244.656 65.603C245.264 64.9105 247.176 63.0182 248.816 64.6448C250.456 66.2714 252.016 66.4405 249.52 69.903C249.434 70.0248 249.308 70.112 249.165 70.1489C249.021 70.1858 248.869 70.17 248.736 70.1043Z" fill="black"/>
<path d="M243.672 98.5528C239.717 98.2666 235.747 98.2666 231.792 98.5528C234.472 95.9841 233.72 88.5839 232.968 84.7349L238.016 89.0751L240.264 91.0077C240.082 91.6909 239.959 92.3887 239.896 93.0933C239.696 95.4687 240.384 97.7556 243.672 98.5528Z" fill="#E4897B"/>
<path d="M256.656 107.354C256.792 108.82 256.96 110.431 257.16 111.969C257.36 113.507 257.6 115.085 257.856 116.631C258.362 119.708 259.029 122.756 259.856 125.762C260.28 127.244 260.736 128.709 261.264 130.135L261.96 131.955C262.071 132.239 262.24 132.497 262.456 132.711C262.754 132.938 263.108 133.078 263.48 133.114C264.064 133.177 264.653 133.16 265.232 133.066C266.631 132.82 267.998 132.412 269.304 131.85L271.168 134.547C270.496 135.164 269.774 135.721 269.008 136.214C268.232 136.731 267.407 137.169 266.544 137.519C265.584 137.915 264.57 138.165 263.536 138.26C262.251 138.387 260.957 138.153 259.796 137.585C258.635 137.016 257.653 136.135 256.96 135.039C256.651 134.592 256.383 134.117 256.16 133.621L255.632 132.438C254.936 130.827 254.344 129.217 253.816 127.606C252.774 124.394 251.948 121.115 251.344 117.79C251.016 116.18 250.76 114.489 250.544 112.83C250.328 111.171 250.144 109.537 250.04 107.757L256.656 107.354Z" fill="#E4897B"/>
<path d="M254.568 99.8494C257.224 100.526 259.08 111.525 259.08 111.525L251.76 116.534C251.76 116.534 244.744 105.438 246.784 102.507C248.912 99.4548 250.688 98.875 254.568 99.8494Z" fill="#333399"/>
<path opacity="0.7" d="M254.568 99.8494C257.224 100.526 259.08 111.525 259.08 111.525L251.76 116.534C251.76 116.534 244.744 105.438 246.784 102.507C248.912 99.4548 250.688 98.875 254.568 99.8494Z" fill="black"/>
<path d="M281.568 119.232L270.712 117.484L270.16 119.739L264.752 131.536L275.608 133.283L281.016 121.486L281.568 119.232Z" fill="#263238"/>
<path d="M282.184 119.337L271.328 117.589L270.776 119.836L265.368 131.641L276.224 133.388L281.632 121.583L282.184 119.337Z" fill="#333399"/>
<path d="M270.896 134.708L276.024 130.682L269.624 129.329C269.624 129.329 266.928 132.486 267.896 134.966L270.896 134.708Z" fill="#E4897B"/>
<path d="M277.328 125.384L271.896 124.538L269.608 129.321L276.024 130.674L277.328 125.384Z" fill="#E4897B"/>
<path d="M254.568 99.8494C254.568 99.8494 257.632 100.936 251.488 138.992H225.32C225.76 128.266 225.768 121.663 220.68 99.6642C224.345 98.9191 228.059 98.4428 231.792 98.2389C235.747 97.9527 239.717 97.9527 243.672 98.2389C248.8 98.6737 254.568 99.8494 254.568 99.8494Z" fill="#333399"/>
<path opacity="0.7" d="M254.568 99.8494C254.568 99.8494 257.632 100.936 251.488 138.992H225.32C225.76 128.266 225.768 121.663 220.68 99.6642C224.345 98.9191 228.059 98.4428 231.792 98.2389C235.747 97.9527 239.717 97.9527 243.672 98.2389C248.8 98.6737 254.568 99.8494 254.568 99.8494Z" fill="black"/>
<path d="M239.984 284.99H246.424L247.288 269.972H240.848L239.984 284.99Z" fill="#E4897B"/>
<path d="M210.672 284.99H217.112L219.88 269.972H213.44L210.672 284.99Z" fill="#E4897B"/>
<path d="M217.768 284.25H210.568C210.444 284.248 210.323 284.293 210.229 284.374C210.135 284.455 210.074 284.569 210.056 284.692L209.256 290.458C209.24 290.604 209.255 290.751 209.3 290.89C209.345 291.029 209.418 291.158 209.516 291.266C209.613 291.375 209.732 291.462 209.865 291.521C209.999 291.58 210.143 291.61 210.288 291.609C212.808 291.569 214.024 291.416 217.208 291.416C219.168 291.416 222.008 291.626 224.736 291.626C227.464 291.626 227.584 288.928 226.456 288.686C221.408 287.591 220.608 286.086 218.912 284.66C218.593 284.387 218.186 284.241 217.768 284.25Z" fill="#263238"/>
<path d="M246.864 284.249H239.624C239.5 284.246 239.378 284.29 239.284 284.372C239.189 284.454 239.128 284.568 239.112 284.692L238.312 290.458C238.296 290.603 238.311 290.751 238.356 290.89C238.401 291.029 238.474 291.158 238.572 291.266C238.669 291.375 238.789 291.462 238.922 291.521C239.055 291.58 239.199 291.61 239.344 291.609C241.864 291.569 243.08 291.416 246.264 291.416C248.224 291.416 252.272 291.625 254.976 291.625C257.68 291.625 257.824 288.928 256.704 288.686C251.648 287.591 249.664 286.085 247.96 284.66C247.656 284.395 247.267 284.249 246.864 284.249Z" fill="#263238"/>
<path d="M247.288 269.981L246.84 277.719H240.4L240.848 269.981H247.288Z" fill="#CE6F64"/>
<path d="M213.44 269.981H219.88L218.456 277.719H212.008L213.44 269.981Z" fill="#CE6F64"/>
<path d="M232.92 96.2581C232.051 96.6593 231.303 97.2843 230.752 98.0699C231.384 99.1087 236.256 101.049 237.576 100.929C237.528 99.8728 237.848 98.8334 238.48 97.9894C238.48 97.9894 235.088 97.8767 232.92 96.2581Z" fill="#333399"/>
<path d="M240.8 96.4272C241.681 96.8105 242.492 97.3384 243.2 97.9894C242.928 98.8752 240.8 100.486 239.872 100.84C239.685 99.7714 239.193 98.7808 238.456 97.9894C239.345 97.6552 240.147 97.1209 240.8 96.4272Z" fill="#333399"/>
<path d="M251.488 139.008C251.488 139.008 256.568 188.933 256.144 208.734C255.704 229.308 248.216 276.221 248.216 276.221H239.504C239.504 276.221 240.888 230.508 240.112 210.304C239.272 188.281 232.328 139.008 232.328 139.008H251.488Z" fill="#333399"/>
<path d="M244.576 139.008C244.576 139.008 240.84 183.514 236.96 208.597C233.824 228.857 219.928 276.237 219.928 276.237H211.128C211.128 276.237 218.376 230.5 219.928 210.457C223.928 159.727 216.896 150.773 225.28 139.025L244.576 139.008Z" fill="#333399"/>
<path opacity="0.57" d="M238.587 118.366L242.081 118.49C243.71 118.548 245.077 117.266 245.135 115.626L245.253 112.254C245.31 110.614 244.036 109.237 242.407 109.179L238.913 109.055C237.284 108.998 235.916 110.28 235.859 111.92L235.741 115.292C235.683 116.932 236.957 118.308 238.587 118.366Z" fill="#333399"/>
<path d="M240.264 90.9921C240.082 91.6753 239.959 92.3731 239.896 93.0777C238.144 92.7717 235.848 91.0243 235.672 89.3575C235.566 88.6654 235.598 87.959 235.768 87.2799L238.016 89.0595L240.264 90.9921Z" fill="#CE6F64"/>
<path d="M230.896 75.9824C231.288 82.4243 231.32 85.13 234.544 88.4314C239.392 93.3917 247.144 91.4994 248.664 85.0897C250.04 79.3161 249.168 69.7901 242.92 67.2214C241.545 66.6499 240.047 66.4421 238.57 66.6177C237.092 66.7932 235.684 67.3464 234.479 68.2244C233.274 69.1025 232.312 70.2764 231.685 71.6343C231.058 72.9922 230.786 74.489 230.896 75.9824Z" fill="#E4897B"/>
<path d="M229.896 78.7361C229.867 78.7444 229.837 78.7444 229.808 78.7361C229.784 78.7258 229.762 78.7105 229.744 78.6912C229.725 78.672 229.711 78.6492 229.702 78.6243C229.693 78.5993 229.69 78.5728 229.691 78.5463C229.693 78.5199 229.7 78.494 229.712 78.4704C230.512 76.8116 236.968 75.6762 237.712 75.5474C239.805 75.2474 241.926 75.1934 244.032 75.3863C244.282 75.2668 244.555 75.2047 244.832 75.2047C245.109 75.2047 245.382 75.2668 245.632 75.3863C246.998 75.2336 248.377 75.2336 249.744 75.3863C249.771 75.3882 249.797 75.3957 249.821 75.4083C249.844 75.421 249.865 75.4385 249.882 75.4597C249.898 75.481 249.91 75.5055 249.917 75.5317C249.923 75.5579 249.924 75.5852 249.92 75.6118C249.912 75.6639 249.884 75.7108 249.842 75.7424C249.8 75.774 249.748 75.7878 249.696 75.7809C248.343 75.6313 246.977 75.6313 245.624 75.7809C245.59 75.7888 245.554 75.7888 245.52 75.7809C245.317 75.6744 245.092 75.6187 244.864 75.6187C244.635 75.6187 244.41 75.6744 244.208 75.7809C244.186 75.79 244.163 75.7947 244.14 75.7947C244.117 75.7947 244.093 75.79 244.072 75.7809C241.98 75.5791 239.871 75.6332 237.792 75.9419C235.864 76.2721 230.704 77.3914 230.104 78.6395C230.084 78.676 230.053 78.7051 230.016 78.7225C229.978 78.7399 229.936 78.7446 229.896 78.7361Z" fill="#263238"/>
<path d="M240.84 80.8054H240.648C240.24 80.8032 239.838 80.7104 239.47 80.5336C239.103 80.3568 238.778 80.1004 238.52 79.7828C237.368 78.3092 237.824 75.821 237.84 75.7566C237.842 75.7429 237.847 75.7299 237.854 75.7182C237.861 75.7066 237.871 75.6966 237.882 75.689C237.893 75.6813 237.906 75.6763 237.92 75.674C237.933 75.6718 237.947 75.6725 237.96 75.676C237.973 75.678 237.985 75.6825 237.996 75.6892C238.007 75.696 238.016 75.7049 238.024 75.7154C238.031 75.7259 238.036 75.7378 238.039 75.7504C238.042 75.763 238.042 75.7761 238.04 75.7888C238.04 75.7888 237.584 78.3011 238.68 79.7022C238.92 79.9979 239.223 80.2358 239.566 80.3988C239.91 80.5618 240.285 80.6457 240.664 80.6444C241.027 80.6812 241.393 80.636 241.737 80.512C242.08 80.388 242.391 80.1884 242.648 79.9277C244 78.5507 243.824 75.6519 243.824 75.6197C243.823 75.607 243.824 75.5942 243.828 75.582C243.832 75.5699 243.838 75.5586 243.846 75.5489C243.855 75.5392 243.865 75.5312 243.876 75.5253C243.887 75.5195 243.899 75.516 243.912 75.515C243.938 75.5149 243.964 75.5248 243.983 75.5427C244.002 75.5607 244.014 75.5853 244.016 75.6116C244.016 75.7324 244.192 78.6313 242.784 80.0726C242.526 80.3199 242.22 80.5122 241.886 80.6381C241.552 80.764 241.196 80.8209 240.84 80.8054Z" fill="#263238"/>
<path d="M247.936 80.661C247.629 80.6725 247.322 80.6174 247.038 80.4993C246.754 80.3812 246.498 80.2029 246.288 79.9765C245.072 78.6318 245.488 75.8295 245.488 75.7087C245.489 75.6954 245.492 75.6825 245.499 75.6708C245.505 75.6591 245.514 75.6491 245.525 75.6413C245.536 75.6336 245.548 75.6284 245.561 75.6261C245.574 75.6239 245.587 75.6246 245.6 75.6282C245.613 75.6302 245.625 75.6346 245.636 75.6414C245.647 75.6482 245.656 75.6571 245.664 75.6676C245.671 75.6781 245.676 75.69 245.679 75.7026C245.682 75.7152 245.682 75.7282 245.68 75.7409C245.68 75.7409 245.264 78.5673 246.408 79.8396C246.621 80.0672 246.884 80.2417 247.175 80.3493C247.467 80.4569 247.779 80.4947 248.088 80.4596C248.296 80.4523 248.5 80.3978 248.684 80.3002C248.868 80.2026 249.028 80.0644 249.152 79.896C250.104 78.6237 249.432 75.6202 249.424 75.5879C249.421 75.5616 249.428 75.535 249.442 75.5129C249.457 75.4908 249.479 75.4746 249.504 75.4672C249.517 75.4636 249.531 75.4629 249.545 75.4651C249.558 75.4674 249.571 75.4725 249.582 75.4801C249.594 75.4877 249.603 75.4977 249.61 75.5093C249.618 75.521 249.622 75.5341 249.624 75.5477C249.624 75.6765 250.32 78.672 249.312 80.0168C249.17 80.2083 248.987 80.3655 248.776 80.4769C248.566 80.5884 248.334 80.6512 248.096 80.661H247.936Z" fill="#263238"/>
<path d="M229.896 79.3805C239.76 77.3674 243.928 68.3084 243.928 68.3084C243.928 68.3084 242.672 64.2822 236.912 64.8217C232.328 65.2646 223.072 73.3412 229.896 79.3805Z" fill="#263238"/>
<path d="M225.968 69.8947C229.088 68.8882 237.168 66.4805 231.728 56.9706C226.288 47.4607 214.48 59.644 210.128 55.2152C210.936 60.6264 216.368 72.9949 225.968 69.8947Z" fill="#263238"/>
<path d="M248.728 75.2981C245.016 67.4872 238.648 66.8994 238.648 66.8994C238.648 66.8994 242.224 63.7509 247.128 66.8108C250.64 69.0092 250.096 72.7938 248.728 75.2981Z" fill="#263238"/>
<path d="M229.352 79.5493C229.484 80.7883 230.1 81.9236 231.064 82.7059C232.344 83.7285 233.616 82.7059 233.792 81.1759C233.952 79.7748 233.472 77.5604 231.928 77.1497C231.59 77.0645 231.236 77.0653 230.899 77.1523C230.561 77.2393 230.25 77.4096 229.995 77.6478C229.739 77.886 229.546 78.1846 229.434 78.5166C229.322 78.8486 229.294 79.2036 229.352 79.5493Z" fill="#E4897B"/>
<path d="M240.536 78.7278C240.876 78.7278 241.152 78.3024 241.152 77.7777C241.152 77.2529 240.876 76.8275 240.536 76.8275C240.196 76.8275 239.92 77.2529 239.92 77.7777C239.92 78.3024 240.196 78.7278 240.536 78.7278Z" fill="#263238"/>
<path d="M246.512 78.7278C246.852 78.7278 247.128 78.3024 247.128 77.7777C247.128 77.2529 246.852 76.8275 246.512 76.8275C246.172 76.8275 245.896 77.2529 245.896 77.7777C245.896 78.3024 246.172 78.7278 246.512 78.7278Z" fill="#263238"/>
<path d="M246.4 76.8601L247.648 76.4977C247.648 76.4977 246.968 77.4801 246.4 76.8601Z" fill="#263238"/>
<path d="M244.896 78.6717C245.361 79.8651 245.986 80.9893 246.752 82.0135C246.486 82.2037 246.183 82.3332 245.862 82.393C245.541 82.4528 245.212 82.4414 244.896 82.3597V78.6717Z" fill="#DE5753"/>
<path d="M243.072 84.4213C242.374 84.4411 241.681 84.292 241.052 83.9865C240.422 83.6811 239.875 83.2282 239.456 82.6659C239.434 82.6304 239.427 82.588 239.436 82.5475C239.445 82.507 239.469 82.4715 239.504 82.4485C239.538 82.4274 239.579 82.4207 239.618 82.4297C239.657 82.4387 239.69 82.4628 239.712 82.4968C240.109 83.0098 240.619 83.4226 241.202 83.7022C241.786 83.9817 242.426 84.1205 243.072 84.1073C243.111 84.1092 243.149 84.126 243.177 84.1543C243.205 84.1825 243.222 84.2203 243.224 84.2603C243.225 84.281 243.222 84.3018 243.215 84.3213C243.207 84.3408 243.196 84.3586 243.182 84.3737C243.168 84.3888 243.151 84.4008 243.132 84.4089C243.113 84.4171 243.092 84.4213 243.072 84.4213Z" fill="#263238"/>
<path d="M239.096 73.4133C239.031 73.4125 238.967 73.3904 238.915 73.3505C238.863 73.3105 238.826 73.2547 238.808 73.1914C238.79 73.1281 238.792 73.0607 238.816 72.9991C238.839 72.9376 238.881 72.8852 238.936 72.8497C239.474 72.5346 240.075 72.345 240.695 72.2949C241.316 72.2447 241.939 72.3352 242.52 72.5598C242.558 72.5748 242.592 72.5972 242.621 72.6257C242.649 72.6542 242.672 72.6881 242.688 72.7256C242.704 72.7631 242.712 72.8034 242.712 72.844C242.712 72.8847 242.704 72.9249 242.688 72.9624C242.655 73.0359 242.595 73.0936 242.52 73.1236C242.446 73.1536 242.362 73.1535 242.288 73.1235C241.795 72.9409 241.268 72.8686 240.745 72.9117C240.221 72.9548 239.713 73.1123 239.256 73.3731C239.208 73.4015 239.152 73.4154 239.096 73.4133Z" fill="#263238"/>
<path d="M247.752 73.0995C247.693 73.0999 247.635 73.0831 247.584 73.0512C247.268 72.8335 246.905 72.6951 246.525 72.6475C246.145 72.5999 245.76 72.6444 245.4 72.7774C245.363 72.7944 245.324 72.8038 245.283 72.8053C245.243 72.8067 245.203 72.8002 245.165 72.786C245.127 72.7718 245.092 72.7502 245.063 72.7225C245.033 72.6948 245.009 72.6615 244.992 72.6244C244.975 72.5874 244.966 72.5474 244.965 72.5068C244.963 72.4661 244.97 72.4255 244.984 72.3874C244.998 72.3493 245.019 72.3143 245.047 72.2845C245.074 72.2547 245.107 72.2307 245.144 72.2138C245.597 72.0401 246.086 71.9787 246.567 72.0348C247.049 72.0908 247.51 72.2627 247.912 72.5359C247.98 72.579 248.028 72.647 248.046 72.7254C248.064 72.8038 248.05 72.8861 248.008 72.9546C247.982 72.9991 247.944 73.0359 247.899 73.0613C247.854 73.0867 247.804 73.0999 247.752 73.0995Z" fill="#263238"/>
<path d="M220 285.377C219.426 285.363 218.855 285.287 218.296 285.151C218.266 285.144 218.238 285.128 218.217 285.105C218.196 285.082 218.181 285.053 218.176 285.022C218.169 284.992 218.172 284.961 218.183 284.932C218.195 284.903 218.214 284.879 218.24 284.861C218.464 284.708 220.432 283.436 221.176 283.782C221.261 283.822 221.334 283.883 221.389 283.959C221.443 284.035 221.478 284.124 221.488 284.217C221.515 284.362 221.506 284.512 221.462 284.653C221.417 284.793 221.338 284.92 221.232 285.022C220.877 285.286 220.44 285.412 220 285.377ZM218.744 284.918C219.856 285.143 220.688 285.103 221.016 284.805C221.085 284.735 221.135 284.649 221.161 284.555C221.188 284.461 221.19 284.361 221.168 284.266C221.168 284.225 221.156 284.186 221.135 284.152C221.114 284.118 221.084 284.09 221.048 284.072C220.632 283.895 219.512 284.435 218.72 284.918H218.744Z" fill="#333399"/>
<path d="M218.304 285.151C218.278 285.158 218.25 285.158 218.224 285.151C218.201 285.137 218.182 285.117 218.17 285.093C218.157 285.069 218.151 285.042 218.152 285.014C218.152 284.934 218.152 283.066 218.856 282.438C218.944 282.357 219.048 282.297 219.161 282.263C219.275 282.228 219.395 282.219 219.512 282.236C219.635 282.239 219.753 282.284 219.847 282.362C219.942 282.441 220.007 282.55 220.032 282.671C220.176 283.404 219 284.805 218.384 285.151C218.358 285.159 218.33 285.159 218.304 285.151ZM219.4 282.526C219.278 282.525 219.161 282.571 219.072 282.655C218.67 283.25 218.46 283.956 218.472 284.676C219.088 284.185 219.808 283.146 219.72 282.703C219.72 282.639 219.664 282.55 219.472 282.526H219.4Z" fill="#333399"/>
<path d="M249.28 285.377C248.6 285.363 247.922 285.288 247.256 285.151C247.224 285.145 247.195 285.129 247.172 285.105C247.149 285.082 247.134 285.052 247.129 285.019C247.124 284.987 247.129 284.954 247.143 284.924C247.157 284.894 247.179 284.87 247.208 284.853C247.504 284.7 250.072 283.38 250.864 283.815C250.939 283.855 251.003 283.913 251.049 283.985C251.095 284.057 251.123 284.14 251.128 284.225C251.143 284.365 251.126 284.506 251.078 284.637C251.029 284.769 250.95 284.887 250.848 284.982C250.384 285.288 249.832 285.427 249.28 285.377ZM247.784 284.918C249.2 285.159 250.248 285.095 250.632 284.741C250.698 284.681 250.749 284.605 250.78 284.521C250.81 284.437 250.82 284.346 250.808 284.258C250.808 284.224 250.8 284.192 250.783 284.163C250.766 284.135 250.741 284.112 250.712 284.097C250.288 283.855 248.8 284.419 247.784 284.918Z" fill="#333399"/>
<path d="M247.28 285.151C247.252 285.163 247.22 285.163 247.192 285.151C247.169 285.137 247.151 285.117 247.139 285.093C247.128 285.068 247.124 285.041 247.128 285.014C247.128 284.934 247.28 283.187 248.096 282.51C248.211 282.409 248.346 282.333 248.492 282.288C248.638 282.242 248.792 282.227 248.944 282.244C249.392 282.244 249.496 282.534 249.52 282.679C249.64 283.428 248.136 284.813 247.352 285.167L247.28 285.151ZM248.816 282.526C248.625 282.526 248.441 282.595 248.296 282.72C247.829 283.282 247.549 283.977 247.496 284.708C248.296 284.225 249.296 283.138 249.224 282.703C249.224 282.663 249.224 282.558 248.928 282.526H248.816Z" fill="#333399"/>
<path d="M240.384 76.8601L241.6 76.4977C241.6 76.4977 240.992 77.4801 240.384 76.8601Z" fill="#263238"/>
<path d="M220.296 276.431H210.464L210.552 270.665L222.2 270.794L220.296 276.431Z" fill="#333399"/>
<path opacity="0.7" d="M220.296 276.431H210.464L210.552 270.665L222.2 270.794L220.296 276.431Z" fill="white"/>
<path d="M249.368 276.431H238.712L238.792 270.665L250.064 270.794L249.368 276.431Z" fill="#333399"/>
<path opacity="0.7" d="M249.368 276.431H238.712L238.792 270.665L250.064 270.794L249.368 276.431Z" fill="white"/>
<path d="M225.032 137.696L223.856 140.055C223.76 140.232 223.976 140.418 224.28 140.418H251.72C251.952 140.418 252.152 140.305 252.168 140.152L252.4 137.801C252.4 137.631 252.216 137.495 251.952 137.495H225.456C225.374 137.487 225.291 137.502 225.217 137.537C225.142 137.573 225.079 137.627 225.032 137.696Z" fill="#333399"/>
<path opacity="0.6" d="M225.032 137.696L223.856 140.055C223.76 140.232 223.976 140.418 224.28 140.418H251.72C251.952 140.418 252.152 140.305 252.168 140.152L252.4 137.801C252.4 137.631 252.216 137.495 251.952 137.495H225.456C225.374 137.487 225.291 137.502 225.217 137.537C225.142 137.573 225.079 137.627 225.032 137.696Z" fill="white"/>
<path d="M227.472 140.441H226.76C226.616 140.441 226.512 140.369 226.52 140.28L226.856 137.212C226.856 137.124 226.984 137.051 227.128 137.051H227.84C227.976 137.051 228.088 137.124 228.08 137.212L227.744 140.28C227.736 140.369 227.608 140.441 227.472 140.441Z" fill="#333399"/>
<path d="M250.4 140.441H249.688C249.552 140.441 249.44 140.369 249.448 140.28L249.784 137.212C249.784 137.124 249.92 137.051 250.056 137.051H250.768C250.912 137.051 251.016 137.124 251.008 137.212L250.672 140.28C250.664 140.369 250.544 140.441 250.4 140.441Z" fill="#333399"/>
<path d="M241.128 140.441H240.424C240.28 140.441 240.176 140.369 240.184 140.28L240.512 137.212C240.512 137.124 240.648 137.051 240.792 137.051H241.504C241.64 137.051 241.752 137.124 241.736 137.212L241.408 140.28C241.4 140.369 241.272 140.441 241.128 140.441Z" fill="#333399"/>
<path d="M230.24 136.085H231.4C231.549 136.083 231.692 136.027 231.803 135.928C231.915 135.829 231.987 135.694 232.008 135.546C232.019 135.477 232.014 135.408 231.995 135.342C231.976 135.275 231.943 135.214 231.898 135.162C231.853 135.11 231.798 135.068 231.735 135.04C231.673 135.011 231.605 134.997 231.536 134.998H230.4C230.251 135.001 230.107 135.057 229.995 135.158C229.883 135.259 229.811 135.396 229.792 135.546C229.782 135.611 229.786 135.679 229.803 135.743C229.821 135.807 229.852 135.867 229.895 135.918C229.937 135.969 229.99 136.01 230.049 136.039C230.109 136.068 230.174 136.084 230.24 136.085Z" fill="#E0E0E0"/>
<path d="M231.36 137.503L231.544 135.973C231.558 135.883 231.553 135.792 231.527 135.705C231.502 135.618 231.458 135.537 231.399 135.47C231.339 135.402 231.265 135.348 231.182 135.313C231.099 135.277 231.01 135.26 230.92 135.264C230.723 135.263 230.533 135.334 230.386 135.465C230.238 135.595 230.143 135.776 230.12 135.973L229.936 137.503C229.922 137.592 229.927 137.684 229.952 137.771C229.978 137.857 230.022 137.938 230.081 138.006C230.141 138.073 230.215 138.127 230.298 138.163C230.38 138.198 230.47 138.215 230.56 138.211C230.756 138.213 230.947 138.141 231.094 138.01C231.242 137.88 231.336 137.699 231.36 137.503Z" fill="#E0E0E0"/>
<path d="M246.832 136.085H248C248.148 136.083 248.289 136.027 248.4 135.928C248.51 135.829 248.581 135.693 248.6 135.546C248.61 135.477 248.606 135.408 248.587 135.342C248.568 135.275 248.535 135.214 248.49 135.162C248.445 135.11 248.39 135.068 248.327 135.04C248.264 135.011 248.197 134.997 248.128 134.998H246.96C246.811 135.004 246.669 135.062 246.558 135.162C246.447 135.262 246.374 135.397 246.352 135.546C246.343 135.614 246.348 135.683 246.368 135.749C246.388 135.815 246.422 135.876 246.468 135.927C246.514 135.978 246.57 136.019 246.633 136.046C246.696 136.074 246.764 136.087 246.832 136.085Z" fill="#E0E0E0"/>
<path d="M247.944 137.503L248.128 135.973C248.142 135.883 248.137 135.792 248.112 135.705C248.086 135.618 248.042 135.537 247.983 135.47C247.923 135.402 247.849 135.348 247.766 135.313C247.684 135.277 247.594 135.26 247.504 135.264C247.307 135.263 247.117 135.334 246.97 135.465C246.822 135.595 246.728 135.776 246.704 135.973L246.52 137.503C246.507 137.592 246.514 137.683 246.54 137.769C246.565 137.855 246.609 137.935 246.669 138.003C246.728 138.07 246.801 138.124 246.883 138.16C246.966 138.196 247.054 138.213 247.144 138.211C247.341 138.213 247.531 138.141 247.678 138.01C247.826 137.88 247.92 137.699 247.944 137.503Z" fill="#E0E0E0"/>
<path d="M226.6 98.239L227.904 98.1101C228.003 98.1026 228.102 98.1297 228.183 98.1869C228.265 98.2441 228.325 98.3279 228.352 98.4242C233.784 116.59 231.712 135.578 231.712 135.578H230.04C231.304 112.983 226.928 101.186 226.24 98.7624C226.225 98.7039 226.222 98.6427 226.232 98.5831C226.243 98.5236 226.266 98.4669 226.3 98.4172C226.334 98.3675 226.379 98.3258 226.431 98.295C226.482 98.2642 226.54 98.2451 226.6 98.239Z" fill="#333399"/>
<path opacity="0.6" d="M226.6 98.239L227.904 98.1101C228.003 98.1026 228.102 98.1297 228.183 98.1869C228.265 98.2441 228.325 98.3279 228.352 98.4242C233.784 116.59 231.712 135.578 231.712 135.578H230.04C231.304 112.983 226.928 101.186 226.24 98.7624C226.225 98.7039 226.222 98.6427 226.232 98.5831C226.243 98.5236 226.266 98.4669 226.3 98.4172C226.334 98.3675 226.379 98.3258 226.431 98.295C226.482 98.2642 226.54 98.2451 226.6 98.239Z" fill="white"/>
<path d="M246.672 98.1666L247.816 98.3276C247.904 98.3445 247.985 98.3883 248.048 98.4531C248.111 98.5179 248.153 98.6006 248.168 98.69C251.416 112.798 248.304 135.538 248.304 135.538H246.624C248.752 110.857 246.576 100.912 246.208 98.6416C246.199 98.5778 246.204 98.5127 246.224 98.4515C246.244 98.3902 246.278 98.3344 246.323 98.2884C246.368 98.2424 246.423 98.2075 246.483 98.1864C246.544 98.1652 246.608 98.1585 246.672 98.1666Z" fill="#333399"/>
<path opacity="0.6" d="M246.672 98.1666L247.816 98.3276C247.904 98.3445 247.985 98.3883 248.048 98.4531C248.111 98.5179 248.153 98.6006 248.168 98.69C251.416 112.798 248.304 135.538 248.304 135.538H246.624C248.752 110.857 246.576 100.912 246.208 98.6416C246.199 98.5778 246.204 98.5127 246.224 98.4515C246.244 98.3902 246.278 98.3344 246.323 98.2884C246.368 98.2424 246.423 98.2075 246.483 98.1864C246.544 98.1652 246.608 98.1585 246.672 98.1666Z" fill="white"/>
<path d="M224.2 107.596C224.2 109.408 224.256 111.34 224.36 113.233C224.464 115.125 224.544 116.993 224.736 118.869C224.928 120.746 225.168 122.541 225.536 124.297C225.712 125.166 225.912 126.02 226.144 126.825C226.267 127.228 226.395 127.614 226.528 127.985L226.712 128.452C226.709 128.459 226.707 128.467 226.707 128.476C226.707 128.484 226.709 128.492 226.712 128.5C226.712 128.572 227.016 128.83 227.616 129.007C228.329 129.198 229.063 129.295 229.8 129.297C231.567 129.31 233.331 129.165 235.072 128.862C236.888 128.581 238.728 128.186 240.552 127.735C242.376 127.284 244.24 126.785 246.032 126.269L247.264 129.305C243.695 131.118 239.96 132.58 236.112 133.67C234.087 134.258 232.006 134.633 229.904 134.789C228.708 134.874 227.507 134.806 226.328 134.588C225.623 134.449 224.937 134.222 224.288 133.911C223.502 133.539 222.8 133.011 222.224 132.357C221.914 132.006 221.645 131.62 221.424 131.206C221.296 130.972 221.264 130.892 221.192 130.747L221 130.352C220.768 129.821 220.552 129.297 220.36 128.742C219.988 127.729 219.673 126.697 219.416 125.649C218.919 123.65 218.542 121.623 218.288 119.578C217.765 115.574 217.538 111.537 217.608 107.499L224.2 107.596Z" fill="#E4897B"/>
<path d="M244.616 127.091L246.64 120.866L250.088 126.503C250.088 126.503 248.064 130.134 245.384 130.078L244.616 127.091Z" fill="#E4897B"/>
<path d="M251.136 117.831L253.776 122.678L250.088 126.471L246.64 120.866L251.136 117.831Z" fill="#E4897B"/>
<path d="M220.68 99.6807C218.056 100.486 214.912 109.569 214.912 109.569L225.08 116.889C225.08 116.889 228.792 109.303 227.688 105.889C226.544 102.338 223.672 98.7627 220.68 99.6807Z" fill="#333399"/>
<path opacity="0.7" d="M220.68 99.6807C218.056 100.486 214.912 109.569 214.912 109.569L225.08 116.889C225.08 116.889 228.792 109.303 227.688 105.889C226.544 102.338 223.672 98.7627 220.68 99.6807Z" fill="black"/>
<path d="M231.04 69.8543C234.6 68.5096 235.6 66.9313 235.84 66.2468C235.879 66.1463 235.892 66.0375 235.878 65.9306C235.864 65.8237 235.823 65.722 235.76 65.6349C235.208 64.8296 233.432 62.6555 231.544 64.1613C229.656 65.6671 228.04 65.6671 230.208 69.5564C230.285 69.7014 230.413 69.8123 230.567 69.8674C230.721 69.9225 230.889 69.9178 231.04 69.8543Z" fill="#333399"/>
<path opacity="0.3" d="M231.04 69.8543C234.6 68.5096 235.6 66.9313 235.84 66.2468C235.879 66.1463 235.892 66.0375 235.878 65.9306C235.864 65.8237 235.823 65.722 235.76 65.6349C235.208 64.8296 233.432 62.6555 231.544 64.1613C229.656 65.6671 228.04 65.6671 230.208 69.5564C230.285 69.7014 230.413 69.8123 230.567 69.8674C230.721 69.9225 230.889 69.9178 231.04 69.8543Z" fill="black"/>
</svg>
